SplineFontDB: 3.2
FontName: xkcdMono
FullName: xkcd-Monospace-Regular
FamilyName: xkcd Monospace
Weight: Regular
Copyright: Copyright (c) ipython/xkcd-font contributors, Creative Commons Attribution-NonCommercial 3.0 License
UComments: "Created with FontForge (http://fontforge.org)"
Version: 1.0
ItalicAngle: 0
UnderlinePosition: -102.4
UnderlineWidth: 51.2
Ascent: 600
Descent: 256
InvalidEm: 0
LayerCount: 2
Layer: 0 0 "Back" 1
Layer: 1 0 "Fore" 0
XUID: [-1]
UniqueID: -1
StyleMap: 0x0000
FSType: 0
OS2Version: 0
OS2_WeightWidthSlopeOnly: 0
OS2_UseTypoMetrics: 1
CreationTime: 946684800
ModificationTime: 946684800
PfmFamily: 64
TTFWeight: 400
TTFWidth: 5
LineGap: 77
VLineGap: 77
Panose: 2 0 5 9 0 0 0 0 0 0
OS2TypoAscent: 855
OS2TypoAOffset: 0
OS2TypoDescent: -270
OS2TypoDOffset: 0
OS2TypoLinegap: 77
OS2WinAscent: 855
OS2WinAOffset: 0
OS2WinDescent: 270
OS2WinDOffset: 0
HheadAscent: 855
HheadAOffset: 0
HheadDescent: -270
HheadDOffset: 0
OS2SubXSize: 556
OS2SubYSize: 599
OS2SubXOff: 0
OS2SubYOff: 119
OS2SupXSize: 556
OS2SupYSize: 599
OS2SupXOff: 0
OS2SupYOff: 410
OS2StrikeYSize: 42
OS2StrikeYPos: 221
OS2CapHeight: 592
OS2XHeight: 338
OS2Vendor: 'PfEd'
Lookup: 1 0 0 "ss01-display-operators" { "ss01-display-operators-1"  } ['ss01' ('DFLT' <'dflt' > 'latn' <'dflt' > 'math' <'dflt' > ) ]
Lookup: 260 0 0 "below" { "below_sub"  } ['mark' ('latn' <'dflt' > ) ]
Lookup: 260 0 0 "above" { "above_sub"  } ['mark' ('latn' <'dflt' > ) ]
Lookup: 262 0 0 "mkmk" { "abovechain_sub"  } ['mkmk' ('latn' <'dflt' > ) ]
DEI: 91125
Encoding: Custom
UnicodeInterp: none
NameList: AGL For New Fonts
DisplaySize: -48
AntiAlias: 1
FitToEm: 0
BeginPrivate: 8
BlueValues 24 [-10 20 411 441 573 603]
OtherBlues 11 [-241 -190]
BlueScale 9 0.0208333
BlueShift 2 16
StdHW 2 74
StdVW 2 76
StemSnapH 30 [53 61 70 74 78 83 87 172 220]
StemSnapV 16 [60 70 76 80 85]
EndPrivate
AnchorClass2: "below" "below_sub" "abovechain" "abovechain_sub" "above" "above_sub"
BeginChars: 1114256 645

StartChar: a
Encoding: 97 97 0
AltUni2: 01d482.ffffffff.0 01d44e.ffffffff.0 01d41a.ffffffff.0
Width: 514
VWidth: 109
Flags: HW
AnchorPoint: "above" 250 405 basechar 0
LayerCount: 2
Fore
SplineSet
315 240 m 0
 315 240 315 252 315 263 c 0
 315 269 315 283 315 283 c 0
 315 295 315 296 290 306 c 0
 277 311 275 312 267 312 c 0
 242 312 188 312 147 237 c 0
 138 221 124 176 124 170 c 0
 124 157 123 155 119 131 c 0
 119 125 123 99 125 95 c 0
 128 86 138 80 154 80 c 0
 186 80 227 108 246 126 c 0
 282 160 315 215 315 240 c 0
335 118 m 1
 284 50 220 5 144 5 c 0
 120 5 127 11 114 12 c 0
 112 12 85 23 82 32 c 0
 81 33 78 36 75 39 c 0
 48 64 47 105 47 126 c 0
 47 166 50 179 56 200 c 0
 69 244 76 262 91 288 c 0
 115 330 155 358 174 367 c 0
 175 367 214 385 250 385 c 0
 322 385 359 342 359 339 c 0
 361 337 365 332 367 332 c 0
 369 332 l 0
 391 332 393 308 393 246 c 0
 393 200 394 195 403 153 c 0
 407 135 416 95 430 78 c 0
 430 78 452 72 452 49 c 0
 452 47 452 47 452 46 c 0
 452 42 453 42 453 37 c 0
 453 30 451 23 447 21 c 0
 443 14 439 7 422 7 c 0
 397 7 391 13 383 21 c 0
 357 48 349 74 335 118 c 1
EndSplineSet
EndChar

StartChar: k
Encoding: 107 107 1
AltUni2: 01d48c.ffffffff.0 01d458.ffffffff.0 01d424.ffffffff.0
Width: 514
VWidth: 715
Flags: HW
AnchorPoint: "above" 252.548 561 basechar 0
LayerCount: 2
Fore
SplineSet
97 517 m 0
 97 520 98 541 120 541 c 0
 135 541 156 540 156 529 c 0
 156 527 157 523 159 521 c 0
 162 516 163 493 163 456 c 0
 163 417 158 330 155 304 c 2
 154 296 l 1
 166 307 l 2
 199 338 259 377 260 377 c 0
 263 377 347 435 348 435 c 0
 355 437 361 439 367 439 c 0
 372 439 375 438 377 436 c 0
 377 436 402 405 402 392 c 0
 402 387 400 381 396 378 c 0
 389 372 377 363 371 360 c 0
 365 356 314 322 298 314 c 0
 297 313 218 258 210 248 c 0
 206 243 223 234 223 234 c 0
 227 234 259 207 264 204 c 0
 290 187 324 135 357 102 c 0
 404 55 431 26 431 24 c 0
 431 16 439 17 440 1 c 0
 441 -5 441 -10 442 -11 c 0
 443 -13 436 -24 433 -24 c 0
 433 -24 402 -39 395 -39 c 0
 390 -39 382 -38 382 -36 c 0
 382 -35 381 -34 380 -34 c 0
 376 -34 377 -28 355 -6 c 0
 340 9 309 39 251 108 c 0
 235 128 200 160 185 169 c 0
 174 176 154 184 150 184 c 0
 147 184 142 105 142 104 c 0
 142 102 142 101 142 99 c 0
 142 69 140 29 139 26 c 0
 136 20 130 11 98 11 c 0
 89 11 63 10 63 39 c 0
 63 47 65 67 65 81 c 0
 65 82 65 85 65 85 c 0
 65 88 81 299 83 368 c 0
 86 465 97 502 97 517 c 0
EndSplineSet
EndChar

StartChar: l
Encoding: 108 108 2
AltUni2: 01d48d.ffffffff.0 01d459.ffffffff.0 01d425.ffffffff.0 002113.ffffffff.0
Width: 514
VWidth: 149
Flags: HW
AnchorPoint: "above" 252.5 628.512 basechar 0
LayerCount: 2
Fore
SplineSet
236 440 m 0
 236 456 240 473 240 494 c 0
 240 508 239 519 235 523 c 0
 229 530 229 534 216 550 c 0
 209 559 208 561 208 568 c 0
 208 575 208 578 235 601 c 0
 256 619 263 599 267 599 c 0
 271 599 304 558 309 547 c 0
 313 539 313 537 313 518 c 0
 313 453 310 435 302 400 c 0
 291 352 272 252 270 215 c 0
 268 175 265 177 265 126 c 0
 265 105 266 81 267 55 c 0
 269 13 269 12 274 7 c 0
 278 3 279 -2 279 -8 c 0
 279 -19 268 -45 244 -45 c 0
 218 -45 213 -38 204 -26 c 0
 198 -18 198 -18 194 40 c 0
 193 58 192 94 192 127 c 0
 192 148 193 246 205 285 c 0
 209 299 207 316 212 335 c 0
 229 398 228 413 233 424 c 0
 234 427 236 434 236 440 c 0
EndSplineSet
EndChar

StartChar: m
Encoding: 109 109 3
AltUni2: 01d48e.ffffffff.0 01d45a.ffffffff.0 01d426.ffffffff.0
Width: 514
VWidth: 54
Flags: HW
AnchorPoint: "above" 249.5 409 basechar 0
LayerCount: 2
Fore
SplineSet
207 248 m 0
 207 249 206 307 200 307 c 0
 179 307 152 298 134 258 c 0
 107 201 91 94 91 92 c 0
 91 91 89 40 82 32 c 0
 81 31 79 28 78 26 c 0
 68 7 45 5 40 9 c 0
 26 11 26 11 18 19 c 0
 11 26 5 36 5 46 c 0
 5 65 15 83 15 127 c 0
 15 265 6 320 6 333 c 0
 6 376 15 377 43 382 c 0
 50 383 53 384 57 384 c 0
 63 384 74 379 76 366 c 1
 76 359 76 366 76 366 c 2
 76 366 84 347 86 321 c 1
 86 321 89 326 90 328 c 0
 94 340 123 359 133 364 c 0
 142 369 168 383 200 383 c 0
 212 383 228 379 240 372 c 0
 259 362 261 357 272 333 c 1
 297 369 349 389 382 389 c 0
 383 389 418 381 432 369 c 0
 434 369 436 368 448 355 c 0
 454 349 460 341 462 340 c 0
 472 331 491 287 492 273 c 0
 492 270 492 272 492 272 c 1
 492 272 l 2
 492 266 494 266 494 252 c 0
 494 236 491 211 485 197 c 0
 485 196 455 110 455 82 c 0
 455 68 472 54 472 42 c 0
 472 15 435 5 434 5 c 0
 399 5 381 50 381 82 c 0
 381 141 418 213 418 244 c 0
 418 262 410 283 399 297 c 0
 393 305 378 313 373 313 c 0
 368 313 348 304 338 295 c 0
 284 247 291 37 269 23 c 1
 264 10 228 10 228 10 c 0
 218 10 212 18 207 26 c 0
 200 36 198 46 198 72 c 0
 198 129 204 190 204 191 c 0
 204 209 207 213 207 248 c 0
EndSplineSet
EndChar

StartChar: n
Encoding: 110 110 4
AltUni2: 01d48f.ffffffff.0 01d45b.ffffffff.0 01d427.ffffffff.0
Width: 514
VWidth: 104
Flags: HW
AnchorPoint: "above" 250 429 basechar 0
LayerCount: 2
Fore
SplineSet
78 358 m 0
 78 379 121 389 128 389 c 0
 135 389 137 389 148 365 c 2
 157 345 l 1
 163 354 166 359 169 364 c 0
 183 390 222 409 251 409 c 0
 252 409 311 408 335 390 c 0
 344 383 357 378 357 375 c 0
 357 374 357 374 359 374 c 0
 369 374 406 319 406 305 c 0
 406 292 422 298 422 190 c 0
 422 125 410 14 397 -3 c 0
 394 -8 391 -12 391 -13 c 0
 391 -13 371 -26 367 -26 c 0
 354 -26 344 -13 335 -7 c 0
 328 -2 323 10 323 20 c 0
 323 35 331 33 331 40 c 0
 331 45 335 71 337 73 c 0
 340 78 345 184 345 223 c 0
 345 225 345 286 317 310 c 0
 299 326 283 334 266 334 c 0
 255 334 235 334 214 293 c 0
 196 261 195 252 183 205 c 0
 180 193 176 177 174 169 c 0
 171 156 170 147 170 87 c 0
 170 50 169 18 169 17 c 0
 168 13 163 0 123 0 c 0
 105 0 100 5 96 19 c 0
 89 43 89 43 87 74 c 0
 86 92 84 116 83 127 c 0
 82 137 81 163 81 189 c 0
 81 189 81 203 81 209 c 0
 81 329 78 357 78 358 c 0
EndSplineSet
EndChar

StartChar: o
Encoding: 111 111 5
AltUni2: 01d490.ffffffff.0 01d45c.ffffffff.0 01d428.ffffffff.0
Width: 514
VWidth: 109
Flags: HW
AnchorPoint: "above" 247 431 basechar 0
LayerCount: 2
Fore
SplineSet
213 409 m 0
 222 409 224 411 233 411 c 0
 270 411 269 399 288 399 c 0
 289 399 294 399 294 399 c 0
 310 399 330 390 345 378 c 0
 352 372 361 366 365 363 c 0
 375 356 393 341 396 334 c 0
 397 332 432 282 435 267 c 0
 437 259 440 255 439 255 c 0
 438 255 449 231 449 184 c 0
 449 145 423 100 423 99 c 0
 423 94 382 49 371 42 c 0
 326 10 284 -19 200 -19 c 0
 136 -19 116 15 105 15 c 0
 103 15 80 40 80 42 c 0
 80 43 46 96 46 138 c 0
 46 145 49 148 46 154 c 0
 45 156 45 159 45 163 c 0
 45 203 70 270 72 273 c 0
 81 284 80 306 132 358 c 0
 155 381 176 398 187 401 c 0
 196 403 204 409 213 409 c 0
289 312 m 0
 282 312 273 325 273 322 c 0
 273 322 264 326 258 326 c 0
 246 326 239 346 238 345 c 0
 182 328 145 259 145 258 c 0
 145 254 119 223 119 145 c 0
 119 87 168 55 201 55 c 0
 226 55 259 60 278 70 c 0
 289 75 375 121 375 192 c 0
 375 226 354 264 354 265 c 0
 354 266 328 300 301 319 c 1
 293 313 292 312 289 312 c 0
EndSplineSet
EndChar

StartChar: p
Encoding: 112 112 6
AltUni2: 01d491.ffffffff.0 01d45d.ffffffff.0 01d429.ffffffff.0
Width: 514
VWidth: 639
Flags: HW
AnchorPoint: "above" 245.5 463 basechar 0
LayerCount: 2
Fore
SplineSet
236 441 m 0
 281 441 244 443 258 443 c 0
 259 443 311 436 340 415 c 0
 343 413 349 409 352 409 c 0
 353 409 405 364 422 295 c 0
 425 282 426 286 429 274 c 0
 434 251 438 228 438 207 c 0
 438 207 438 187 435 167 c 0
 435 166 428 128 419 115 c 0
 419 115 412 104 412 102 c 0
 412 101 385 69 363 58 c 0
 356 55 351 51 350 50 c 0
 350 49 309 34 263 34 c 0
 250 34 201 38 154 61 c 2
 140 68 l 1
 140 49 l 2
 140 48 136 25 135 -50 c 0
 134 -107 130 -170 130 -171 c 0
 130 -174 130 -177 130 -177 c 0
 130 -192 119 -211 111 -211 c 0
 109 -211 105 -212 103 -213 c 0
 96 -216 67 -205 66 -204 c 0
 57 -199 53 -189 53 -172 c 0
 53 -170 58 -125 61 -8 c 0
 64 113 73 234 73 236 c 0
 73 264 67 258 67 277 c 0
 67 335 79 338 79 346 c 0
 79 354 113 392 117 398 c 0
 125 410 190 434 191 435 c 0
 193 438 222 441 236 441 c 0
268 109 m 0
 311 109 362 124 362 197 c 0
 362 202 361 295 314 339 c 0
 296 357 281 368 236 368 c 0
 208 368 165 354 147 331 c 2
 140 322 l 1
 141 308 l 2
 142 301 142 261 143 220 c 2
 144 145 l 1
 151 145 l 2
 155 145 163 141 175 134 c 0
 187 127 218 109 268 109 c 0
EndSplineSet
EndChar

StartChar: q
Encoding: 113 113 7
AltUni2: 01d492.ffffffff.0 01d45e.ffffffff.0 01d42a.ffffffff.0
Width: 514
VWidth: 568
Flags: HW
AnchorPoint: "above" 264 406 basechar 0
LayerCount: 2
Fore
SplineSet
348 277 m 1
 306 291 294 316 261 316 c 0
 229 316 190 278 189 277 c 0
 176 263 158 238 151 225 c 0
 141 206 134 189 134 157 c 0
 134 90 199 88 207 88 c 0
 219 88 253 88 294 113 c 0
 313 125 317 129 318 135 c 0
 320 145 348 276 348 277 c 1
272 384 m 0
 304 384 358 343 366 332 c 1
 370 339 374 344 386 344 c 0
 426 344 426 333 426 321 c 0
 426 292 417 252 414 249 c 0
 414 248 395 152 395 138 c 0
 395 136 397 132 397 125 c 0
 397 119 395 113 391 108 c 0
 382 94 377 27 377 -1 c 0
 377 -103 411 -142 412 -143 c 1
 415 -141 419 -139 423 -139 c 0
 434 -139 445 -151 451 -153 c 0
 462 -157 465 -173 465 -176 c 0
 465 -185 453 -208 433 -214 c 1
 433 -208 433 -208 433 -214 c 1
 416 -218 416 -218 413 -218 c 0
 391 -218 357 -199 337 -156 c 0
 328 -138 318 -107 314 -91 c 0
 312 -84 310 -75 309 -73 c 0
 306 -65 304 -51 304 -44 c 0
 304 -42 304 -41 305 -39 c 0
 305 -39 l 0
 303 -24 302 -12 302 0 c 0
 302 12 303 24 305 40 c 1
 304 40 258 19 210 19 c 0
 193 19 192 20 161 26 c 0
 139 31 91 64 90 75 c 0
 90 76 89 76 87 78 c 0
 69 101 64 139 64 142 c 0
 64 146 63 153 63 160 c 0
 63 201 83 242 92 259 c 0
 107 290 162 355 177 356 c 1
 199 370 228 385 257 386 c 0
 262 386 265 384 272 384 c 0
EndSplineSet
EndChar

StartChar: r
Encoding: 114 114 8
AltUni2: 01d493.ffffffff.0 01d45f.ffffffff.0 01d42b.ffffffff.0
Width: 514
VWidth: 554
Flags: HW
AnchorPoint: "above" 257 445 basechar 0
LayerCount: 2
Fore
SplineSet
168 14 m 0
 168 -10 130 -10 119 -10 c 0
 98 -10 91 -10 84 48 c 0
 75 98 67 144 67 217 c 0
 67 225 67 233 67 239 c 0
 67 275 67 279 71 293 c 0
 77 314 93 347 101 355 c 0
 109 362 111 374 113 374 c 0
 114 374 159 420 249 423 c 0
 277 424 279 425 279 425 c 0
 287 425 360 410 412 381 c 0
 415 379 447 353 447 339 c 0
 447 317 435 309 427 307 c 0
 417 305 414 300 405 300 c 0
 383 300 377 318 344 332 c 0
 320 342 279 349 248 349 c 0
 177 349 149 299 149 291 c 0
 149 290 150 289 152 289 c 0
 154 289 155 286 155 276 c 0
 155 274 155 272 155 270 c 0
 155 175 160 146 162 88 c 0
 163 28 168 24 168 14 c 0
EndSplineSet
EndChar

StartChar: s
Encoding: 115 115 9
AltUni2: 01d494.ffffffff.0 01d460.ffffffff.0 01d42c.ffffffff.0
Width: 514
VWidth: 112
Flags: HW
AnchorPoint: "above" 250 473 basechar 0
LayerCount: 2
Fore
SplineSet
149 432 m 0
 150 432 175 453 227 453 c 0
 253 453 287 450 287 447 c 0
 287 446 288 446 289 446 c 0
 293 446 329 429 332 425 c 0
 337 419 344 407 344 402 c 0
 344 396 322 359 305 359 c 0
 299 359 293 361 283 367 c 2
 269 376 l 1
 235 376 l 2
 204 376 201 376 194 372 c 0
 184 367 161 342 160 336 c 0
 157 321 153 295 153 285 c 0
 153 276 155 274 160 274 c 0
 170 274 205 283 218 289 c 0
 219 290 305 329 329 329 c 0
 357 329 396 309 403 273 c 0
 409 240 424 229 424 169 c 0
 424 145 421 114 418 110 c 0
 417 109 399 49 386 34 c 0
 383 30 378 25 376 21 c 0
 367 8 344 -13 334 -16 c 0
 334 -16 357 -9 299 -29 c 0
 296 -31 286 -32 269 -32 c 0
 230 -32 223 -30 209 -24 c 0
 205 -22 206 -22 201 -22 c 0
 192 -22 138 8 124 28 c 0
 109 50 110 50 107 57 c 0
 101 73 94 106 94 117 c 0
 94 148 138 148 139 148 c 0
 155 148 154 113 163 106 c 0
 165 104 166 102 166 100 c 0
 166 98 167 97 168 97 c 0
 169 97 171 94 172 90 c 0
 174 82 181 74 199 61 c 0
 221 45 262 42 263 42 c 0
 321 42 348 109 348 175 c 0
 348 186 347 195 345 196 c 0
 343 198 333 231 333 238 c 0
 333 246 328 253 326 253 c 0
 301 253 245 200 150 200 c 0
 117 200 95 219 93 224 c 0
 91 227 88 231 87 233 c 0
 81 239 76 268 76 298 c 0
 76 328 82 329 82 340 c 0
 82 364 115 404 115 405 c 0
 115 409 144 432 149 432 c 0
EndSplineSet
EndChar

StartChar: t
Encoding: 116 116 10
AltUni2: 01d495.ffffffff.0 01d461.ffffffff.0 01d42d.ffffffff.0
Width: 514
VWidth: 156
Flags: HW
AnchorPoint: "above" 247.5 618.671 basechar 0
LayerCount: 2
Fore
SplineSet
86 341 m 0
 86 341 67 343 67 382 c 0
 67 396 75 404 89 404 c 0
 103 404 84 407 140 408 c 0
 171 408 177 409 177 411 c 0
 177 431 206 582 230 597 c 0
 241 604 279 587 280 583 c 0
 281 581 281 578 281 575 c 0
 281 563 264 495 264 483 c 0
 264 466 257 428 253 411 c 1
 262 412 l 2
 267 413 290 413 313 414 c 2
 355 416 l 1
 373 397 362 399 372 384 c 0
 381 371 370 358 370 358 c 0
 362 358 380 354 348 343 c 0
 324 335 246 340 244 331 c 0
 243 326 241 288 241 244 c 0
 241 132 271 96 291 74 c 0
 319 44 334 34 347 53 c 0
 359 70 352 76 370 94 c 2
 380 105 l 1
 395 103 l 2
 409 102 428 100 428 73 c 0
 428 16 403 4 403 3 c 0
 403 -1 381 -18 371 -24 c 0
 357 -32 358 -32 334 -33 c 2
 314 -33 l 1
 295 -24 l 2
 266 -9 232 20 223 37 c 0
 221 41 216 50 212 55 c 0
 166 122 165 211 165 259 c 0
 165 277 165 295 166 309 c 2
 168 333 l 1
 145 333 l 2
 92 333 87 341 86 341 c 0
EndSplineSet
EndChar

StartChar: b
Encoding: 98 98 11
AltUni2: 01d483.ffffffff.0 01d44f.ffffffff.0 01d41b.ffffffff.0
Width: 514
VWidth: 201
Flags: HW
AnchorPoint: "above" 252.5 603 basechar 0
LayerCount: 2
Fore
SplineSet
163 143 m 1
 168 140 205 114 250 114 c 0
 265 114 301 119 314 133 c 0
 335 155 338 159 344 171 c 0
 354 193 361 222 361 239 c 0
 361 247 359 253 359 263 c 0
 359 264 358 290 333 314 c 0
 316 331 301 335 273 335 c 0
 232 335 202 297 192 280 c 0
 171 244 163 189 163 158 c 2
 163 143 l 1
67 220 m 0
 67 250 72 393 72 395 c 0
 72 408 71 501 71 502 c 0
 71 564 71 583 116 583 c 0
 132 583 136 568 146 510 c 0
 146 506 146 418 146 418 c 2
 146 388 146 360 146 343 c 1
 161 362 200 410 281 410 c 0
 316 410 317 403 325 402 c 0
 333 401 333 401 346 395 c 0
 347 395 l 0
 354 395 356 390 362 387 c 0
 372 382 384 370 399 354 c 0
 407 346 426 312 426 304 c 0
 426 302 428 295 431 288 c 0
 434 279 438 268 438 243 c 0
 438 180 397 88 346 63 c 0
 343 61 338 59 338 59 c 1
 334 56 291 39 247 39 c 0
 208 39 180 52 179 52 c 0
 174 52 175 52 153 62 c 1
 149 56 140 49 133 49 c 0
 132 49 131 50 130 50 c 0
 117 46 117 45 115 45 c 0
 90 45 79 79 78 86 c 0
 78 92 78 86 78 86 c 2
 78 88 76 97 75 104 c 0
 73 114 67 158 67 220 c 0
EndSplineSet
EndChar

StartChar: u
Encoding: 117 117 12
AltUni2: 01d496.ffffffff.0 01d462.ffffffff.0 01d42e.ffffffff.0
Width: 514
VWidth: 546
Flags: HW
AnchorPoint: "above" 245.004 441 basechar 0
LayerCount: 2
Fore
SplineSet
329 387 m 0
 329 407 368 421 373 421 c 0
 382 421 393 421 407 390 c 0
 427 347 426 318 426 234 c 0
 426 226 426 128 391 84 c 0
 379 68 362 51 358 50 c 0
 357 50 324 25 255 10 c 0
 225 3 225 3 208 3 c 0
 167 3 103 12 79 88 c 0
 69 120 64 155 64 189 c 0
 64 229 71 245 72 272 c 0
 74 306 82 309 85 325 c 0
 90 346 92 350 92 356 c 0
 92 363 107 399 111 404 c 0
 116 410 123 414 123 413 c 0
 123 411 125 415 129 415 c 0
 130 415 175 405 175 389 c 0
 175 380 172 381 172 366 c 0
 172 361 153 304 151 281 c 0
 147 236 141 225 141 206 c 0
 141 171 141 117 163 90 c 0
 171 81 173 79 208 79 c 0
 237 79 273 87 294 98 c 0
 328 117 340 134 346 176 c 0
 352 216 351 216 351 239 c 0
 351 305 348 283 347 317 c 0
 345 366 329 373 329 387 c 0
EndSplineSet
EndChar

StartChar: v
Encoding: 118 118 13
AltUni2: 01d497.ffffffff.0 01d463.ffffffff.0 01d42f.ffffffff.0
Width: 514
VWidth: 559
Flags: HW
AnchorPoint: "above" 249.5 444.482 basechar 0
LayerCount: 2
Fore
SplineSet
141 375 m 0
 141 372 148 360 148 352 c 0
 148 344 163 315 183 234 c 0
 200 166 200 166 220 104 c 2
 226 87 l 1
 244 124 l 1
 334 308 326 382 359 415 c 0
 364 420 369 423 369 423 c 1
 369 421 375 426 381 424 c 0
 387 422 417 404 419 401 c 0
 421 398 423 395 423 391 c 0
 423 381 421 390 388 286 c 0
 353 176 351 174 306 83 c 0
 291 53 278 28 278 27 c 0
 277 22 258 -6 252 -11 c 0
 247 -15 218 -22 213 -22 c 0
 195 -22 173 7 172 14 c 0
 170 22 162 39 154 64 c 0
 151 74 146 92 142 103 c 0
 120 171 99 268 83 325 c 0
 79 339 76 371 76 380 c 0
 76 385 79 403 114 403 c 0
 125 403 131 401 131 396 c 0
 131 391 135 391 135 386 c 0
 135 381 141 378 141 375 c 0
EndSplineSet
EndChar

StartChar: w
Encoding: 119 119 14
AltUni2: 01d498.ffffffff.0 01d464.ffffffff.0 01d430.ffffffff.0
Width: 514
VWidth: 608
Flags: HW
AnchorPoint: "above" 247 483.025 basechar 0
LayerCount: 2
Fore
SplineSet
381 381 m 0
 381 413 376 393 376 417 c 0
 376 430 379 446 383 450 c 0
 388 455 401 468 415 461 c 0
 418 459 421 458 422 458 c 0
 427 458 429 458 431 456 c 0
 432 455 435 452 438 450 c 0
 454 440 457 406 457 395 c 0
 457 387 455 391 455 380 c 0
 455 373 456 374 456 362 c 0
 456 325 450 237 450 223 c 0
 450 181 427 105 425 103 c 0
 421 96 406 47 378 18 c 0
 372 12 367 7 367 6 c 0
 367 5 358 -1 348 -8 c 2
 329 -21 l 1
 312 -21 l 2
 296 -21 285 -19 285 -15 c 0
 285 -14 283 -13 282 -13 c 0
 267 -13 233 40 233 43 c 0
 233 46 229 50 221 75 c 0
 215 93 l 0
 211 93 183 10 130 10 c 0
 80 10 62 62 62 63 c 0
 62 73 37 91 37 266 c 0
 37 272 37 278 37 284 c 2
 37 363 l 1
 42 373 l 2
 49 387 52 389 70 389 c 0
 92 389 99 384 99 369 c 0
 99 353 102 389 109 256 c 0
 111 222 121 94 129 94 c 0
 139 94 176 199 176 200 c 0
 176 201 192 239 218 239 c 0
 229 239 246 237 252 225 c 0
 255 218 261 218 261 213 c 0
 261 208 266 204 266 190 c 0
 267 179 272 155 274 152 c 0
 279 145 282 106 301 71 c 0
 306 61 308 57 311 57 c 0
 313 57 316 60 321 65 c 0
 340 85 348 105 363 154 c 0
 381 213 372 244 378 286 c 0
 380 299 381 357 381 381 c 0
EndSplineSet
EndChar

StartChar: x
Encoding: 120 120 15
AltUni2: 01d499.ffffffff.0 01d465.ffffffff.0 01d431.ffffffff.0
Width: 514
VWidth: 542
Flags: HW
AnchorPoint: "above" 252.5 441 basechar 0
LayerCount: 2
Fore
SplineSet
355 421 m 0
 356 421 400 408 400 387 c 0
 400 376 385 350 374 341 c 0
 373 340 302 242 289 232 c 0
 289 232 l 2
 283 225 287 226 276 213 c 1
 287 204 329 177 358 151 c 0
 392 121 394 118 424 77 c 0
 432 66 436 61 436 54 c 0
 436 43 430 39 416 28 c 0
 406 21 400 16 392 16 c 0
 385 16 376 16 350 53 c 0
 336 73 269 127 226 155 c 1
 215 143 199 125 150 74 c 0
 143 66 136 54 127 49 c 0
 119 44 111 37 111 37 c 0
 109 36 108 35 104 35 c 0
 98 35 80 45 75 50 c 0
 71 54 69 62 69 71 c 0
 69 77 71 81 74 88 c 0
 94 127 95 115 99 123 c 0
 106 139 133 161 159 194 c 2
 159 194 162 198 164 201 c 1
 129 235 120 243 120 248 c 0
 117 254 102 267 91 292 c 0
 75 329 70 340 70 372 c 0
 70 393 82 396 95 400 c 0
 105 403 l 1
 105 396 109 397 109 404 c 1
 116 399 127 388 135 363 c 0
 143 338 175 288 212 255 c 1
 218 263 235 286 238 288 c 0
 240 290 283 344 283 345 c 0
 287 354 303 371 317 389 c 0
 332 409 341 421 355 421 c 0
EndSplineSet
EndChar

StartChar: y
Encoding: 121 121 16
AltUni2: 01d49a.ffffffff.0 01d466.ffffffff.0 01d432.ffffffff.0
Width: 514
VWidth: 513
Flags: HW
AnchorPoint: "above" 240.5 378 basechar 0
LayerCount: 2
Fore
SplineSet
392 352 m 0
 397 352 424 346 424 322 c 0
 424 313 422 297 422 287 c 0
 422 273 442 194 442 132 c 0
 442 79 437 47 431 15 c 0
 427 -4 418 -22 415 -36 c 1
 415 -54 378 -111 378 -111 c 0
 335 -162 281 -163 243 -163 c 2
 235 -163 l 2
 170 -163 92 -129 65 -105 c 0
 56 -97 57 -99 54 -95 c 0
 45 -84 39 -66 39 -54 c 0
 39 -33 56 -27 59 -27 c 0
 60 -27 60 -28 61 -28 c 0
 64 -27 66 -26 69 -26 c 0
 84 -26 111 -54 158 -71 c 0
 207 -87 208 -88 263 -88 c 0
 275 -88 277 -88 280 -87 c 0
 287 -84 310 -72 311 -71 c 0
 314 -66 324 -55 333 -40 c 0
 334 -39 362 14 365 91 c 0
 365 91 365 95 365 100 c 1
 339 70 302 43 263 26 c 0
 230 11 236 18 221 13 c 0
 217 10 208 8 195 8 c 0
 124 8 105 56 94 87 c 0
 86 108 85 116 85 133 c 0
 85 153 82 147 82 170 c 0
 82 230 83 231 94 314 c 0
 98 342 98 343 106 350 c 0
 112 356 115 358 125 358 c 0
 126 358 127 358 128 358 c 0
 159 358 167 357 167 295 c 0
 167 268 161 245 161 180 c 0
 161 163 161 113 173 87 c 0
 174 85 183 71 191 71 c 0
 240 71 324 147 336 185 c 1
 336 189 338 195 341 202 c 0
 345 213 345 212 345 256 c 2
 345 256 l 2
 345 291 345 291 350 331 c 0
 350 341 367 350 377 350 c 0
 381 350 388 352 392 352 c 0
EndSplineSet
EndChar

StartChar: z
Encoding: 122 122 17
AltUni2: 01d49b.ffffffff.0 01d467.ffffffff.0 01d433.ffffffff.0
Width: 514
VWidth: 497
Flags: HW
AnchorPoint: "above" 247 404 basechar 0
LayerCount: 2
Fore
SplineSet
386 18 m 0
 395 18 412 20 412 39 c 2
 412 41 l 2
 412 49 413 58 413 58 c 0
 413 63 405 71 401 73 c 0
 400 73 330 89 313 89 c 0
 312 89 312 89 311 89 c 0
 301 89 278 88 278 88 c 0
 278 87 277 83 272 83 c 0
 267 83 265 89 265 89 c 0
 226 87 234 84 221 84 c 2
 220 84 l 2
 219 84 l 0
 219 84 l 0
 212 84 204 83 166 78 c 1
 188 97 188 97 189 97 c 0
 202 108 284 199 295 214 c 0
 301 222 370 296 380 300 c 0
 382 301 388 310 397 317 c 0
 403 318 413 331 415 336 c 1
 415 344 l 1
 417 344 l 2
 417 345 417 345 417 346 c 0
 417 347 417 347 415 349 c 1
 414 359 412 352 409 362 c 0
 408 364 407 362 405 368 c 0
 404 372 402 372 399 373 c 1
 392 383 364 384 265 384 c 0
 264 384 189 384 162 380 c 0
 161 381 159 381 147 381 c 0
 120 381 101 377 101 377 c 0
 96 377 91 378 87 378 c 0
 83 378 83 377 80 374 c 0
 79 374 67 371 67 360 c 0
 67 353 71 342 71 335 c 0
 71 327 77 317 107 317 c 0
 108 317 216 323 237 323 c 0
 237 323 243 322 245 322 c 2
 309 325 l 1
 287 305 287 305 285 304 c 0
 283 303 264 274 259 273 c 0
 240 258 223 229 214 223 c 0
 213 223 178 180 158 162 c 0
 157 161 100 105 97 100 c 0
 97 100 88 87 87 85 c 0
 79 71 76 67 76 47 c 0
 76 33 85 27 85 22 c 0
 91 15 109 9 119 9 c 0
 120 9 l 0
 121 9 121 9 123 11 c 1
 167 15 160 16 160 16 c 0
 160 24 161 24 161 16 c 1
 161 16 l 0
 166 16 178 20 187 20 c 0
 192 20 220 25 241 25 c 0
 242 25 l 2
 242 25 l 1
 242 33 242 33 242 25 c 0
 242 25 l 0
 247 25 265 29 303 29 c 0
 329 29 326 26 334 26 c 0
 343 26 371 18 386 18 c 0
409 355 m 1
 409 355 l 1
418 329 m 1
 427 328 l 1
 422 333 l 1
 418 329 l 1
76 374 m 1
 76 367 76 366 76 374 c 1
EndSplineSet
EndChar

StartChar: c
Encoding: 99 99 18
AltUni2: 01d484.ffffffff.0 01d450.ffffffff.0 01d41c.ffffffff.0
Width: 514
VWidth: 121
Flags: HW
AnchorPoint: "above" 252 475 basechar 0
LayerCount: 2
Fore
SplineSet
107 39 m 0
 107 49 69 73 69 167 c 0
 69 169 69 231 92 275 c 0
 94 278 97 286 100 293 c 0
 106 308 129 344 146 365 c 0
 154 375 201 431 256 451 c 0
 264 454 268 455 276 455 c 0
 292 455 312 455 334 442 c 0
 339 439 348 434 352 432 c 0
 363 427 362 420 373 413 c 0
 375 412 408 387 408 369 c 0
 408 362 412 350 412 343 c 0
 412 343 411 310 376 310 c 0
 366 310 362 325 358 327 c 0
 356 328 346 338 345 341 c 0
 344 344 301 381 287 381 c 0
 266 381 240 356 225 341 c 0
 188 304 166 267 155 228 c 0
 145 191 145 191 145 164 c 0
 145 118 152 104 167 85 c 0
 184 63 211 52 243 52 c 0
 256 52 307 56 365 103 c 0
 381 116 390 122 398 122 c 0
 405 122 412 118 421 109 c 2
 435 95 l 1
 434 84 l 2
 434 78 433 72 432 69 c 0
 430 64 403 38 387 27 c 0
 369 15 322 -8 308 -11 c 0
 271 -19 261 -22 249 -22 c 0
 234 -22 200 -19 187 -13 c 0
 184 -12 180 -10 177 -9 c 0
 173 -8 155 1 133 12 c 0
 128 15 107 36 107 39 c 0
EndSplineSet
EndChar

StartChar: d
Encoding: 100 100 19
AltUni2: 01d485.ffffffff.0 01d451.ffffffff.0 01d41d.ffffffff.0
Width: 514
VWidth: 842
Flags: HW
AnchorPoint: "above" 244.5 671.241 basechar 0
LayerCount: 2
Fore
SplineSet
295 394 m 0
 325 394 347 382 347 382 c 0
 347 382 347 398 348 417 c 0
 353 507 368 620 376 626 c 0
 377 627 378 630 378 633 c 0
 378 636 379 639 380 639 c 0
 385 642 386 653 396 651 c 0
 399 650 406 650 412 649 c 0
 422 648 423 647 435 635 c 1
 433 613 l 2
 433 609 415 260 415 245 c 0
 415 244 416 220 416 169 c 0
 416 96 416 42 399 35 c 0
 395 34 378 33 364 33 c 0
 339 33 351 42 334 34 c 0
 311 24 239 11 200 11 c 0
 152 11 115 23 84 51 c 0
 83 52 54 83 54 132 c 0
 54 194 68 231 69 232 c 0
 70 233 91 304 148 351 c 0
 155 357 183 374 186 374 c 0
 189 374 211 385 224 386 c 0
 238 387 258 394 295 394 c 0
334 120 m 2
 334 134 337 201 337 233 c 0
 337 238 337 304 309 319 c 0
 306 321 299 322 290 322 c 0
 283 322 227 321 190 292 c 0
 170 276 128 213 128 149 c 0
 128 92 148 84 214 84 c 0
 241 84 299 96 321 106 c 2
 334 111 l 1
 334 120 l 2
EndSplineSet
EndChar

StartChar: e
Encoding: 101 101 20
AltUni2: 01d486.ffffffff.0 01d452.ffffffff.0 01d41e.ffffffff.0
Width: 514
VWidth: 574
Flags: HW
AnchorPoint: "above" 249.5 463 basechar 0
LayerCount: 2
Fore
SplineSet
244 435 m 0
 245 435 275 443 296 443 c 0
 297 443 356 443 403 396 c 0
 427 372 437 350 437 316 c 0
 437 278 429 262 420 248 c 0
 412 236 389 211 386 211 c 0
 375 209 371 201 329 197 c 0
 270 192 243 189 199 189 c 0
 148 189 171 197 152 197 c 0
 144 197 144 198 137 209 c 1
 137 207 132 185 132 159 c 0
 132 136 158 79 211 79 c 0
 267 79 322 92 331 92 c 0
 334 92 338 91 345 90 c 0
 365 88 369 56 369 56 c 0
 369 47 364 51 360 42 c 0
 358 37 349 28 346 28 c 0
 345 28 307 7 228 7 c 0
 201 7 176 10 161 16 c 0
 82 50 69 112 69 113 c 0
 68 125 62 136 62 165 c 0
 62 167 64 284 121 344 c 0
 125 348 130 355 131 358 c 0
 137 370 181 408 205 420 c 0
 217 426 241 435 244 435 c 0
355 341 m 0
 355 342 332 373 295 373 c 0
 280 373 263 368 242 358 c 0
 181 329 154 262 154 261 c 0
 154 260 154 260 158 260 c 0
 189 260 271 270 305 272 c 0
 341 274 342 275 350 285 c 0
 355 291 360 296 360 317 c 0
 360 327 358 336 355 341 c 0
EndSplineSet
EndChar

StartChar: f
Encoding: 102 102 21
AltUni2: 01d487.ffffffff.0 01d453.ffffffff.0 01d41f.ffffffff.0
Width: 514
VWidth: 769
Flags: HW
AnchorPoint: "above" 293.5 612 basechar 0
LayerCount: 2
Fore
SplineSet
311 589 m 0
 311 592 334 592 335 592 c 0
 350 592 369 591 375 590 c 0
 376 590 451 574 480 539 c 0
 484 534 488 530 488 529 c 0
 488 526 493 516 493 510 c 0
 493 501 480 485 469 483 c 0
 457 481 457 475 444 477 c 0
 424 479 437 489 396 505 c 0
 383 510 371 515 333 515 c 0
 289 515 273 474 268 402 c 2
 267 382 l 1
 286 383 l 2
 316 385 331 386 339 386 c 0
 355 386 362 375 364 348 c 2
 365 330 l 1
 357 323 l 2
 348 315 344 314 279 309 c 2
 267 308 l 1
 268 299 l 2
 268 297 281 132 283 122 c 0
 288 92 288 35 288 34 c 0
 288 14 278 7 278 7 c 0
 275 5 244 1 237 1 c 0
 209 1 208 56 208 62 c 0
 208 103 191 305 190 306 c 0
 189 307 177 308 162 308 c 0
 107 308 99 323 98 323 c 0
 98 323 94 341 94 347 c 0
 94 355 94 377 176 382 c 2
 192 383 l 1
 192 408 l 2
 193 434 196 463 199 466 c 0
 201 468 208 496 207 496 c 0
 207 496 209 505 220 523 c 0
 237 552 248 563 274 576 c 0
 301 590 311 586 311 589 c 0
EndSplineSet
EndChar

StartChar: g
Encoding: 103 103 22
AltUni2: 01d488.ffffffff.0 01d454.ffffffff.0 01d420.ffffffff.0
Width: 514
VWidth: -33
Flags: HW
AnchorPoint: "above" 250 449.432 basechar 0
LayerCount: 2
Fore
SplineSet
110 3 m 0
 108 3 47 40 47 143 c 0
 47 177 53 215 66 259 c 0
 72 280 106 345 115 353 c 0
 115 353 153 399 157 399 c 0
 164 399 178 419 213 426 c 0
 269 440 327 408 351 387 c 0
 354 385 358 381 361 380 c 0
 366 378 399 341 402 317 c 0
 402 316 403 315 404 315 c 0
 406 315 413 308 413 306 c 0
 413 302 420 296 417 288 c 0
 416 286 416 282 416 277 c 0
 416 187 453 138 453 14 c 0
 453 -63 437 -95 436 -110 c 0
 434 -122 402 -169 403 -171 c 0
 404 -176 362 -210 344 -214 c 0
 331 -217 333 -222 320 -224 c 0
 304 -227 306 -231 277 -231 c 0
 194 -231 130 -182 128 -182 c 0
 120 -182 60 -124 60 -111 c 0
 60 -106 54 -101 54 -88 c 0
 54 -65 69 -46 76 -45 c 0
 77 -45 81 -44 85 -44 c 0
 101 -42 115 -62 115 -62 c 0
 116 -62 130 -101 184 -131 c 0
 189 -134 232 -157 273 -157 c 0
 284 -157 294 -156 302 -153 c 0
 332 -142 378 -121 378 9 c 0
 378 66 369 116 365 116 c 0
 362 116 351 95 345 88 c 0
 343 86 338 79 333 73 c 0
 265 -14 184 -18 182 -18 c 0
 141 -17 111 3 110 3 c 0
338 267 m 0
 338 275 342 289 342 291 c 0
 342 292 330 305 312 324 c 0
 295 341 260 357 243 357 c 0
 202 357 150 289 132 224 c 0
 127 204 120 158 120 140 c 0
 120 139 120 58 177 58 c 0
 214 58 249 95 256 97 c 0
 265 100 288 131 305 164 c 0
 321 195 338 247 338 267 c 0
EndSplineSet
EndChar

StartChar: h
Encoding: 104 104 23
AltUni2: 01d489.ffffffff.0 01d421.ffffffff.0 00210f.ffffffff.0 00210e.ffffffff.0
Width: 514
VWidth: 184
Flags: HW
AnchorPoint: "above" 247 606.28 basechar 0
LayerCount: 2
Fore
SplineSet
354 192 m 0
 354 310 330 348 282 348 c 0
 235 348 220 325 209 308 c 0
 171 251 155 200 155 93 c 0
 155 75 156 61 157 54 c 0
 159 44 155 24 105 24 c 0
 91 24 83 33 76 73 c 0
 70 110 64 204 64 252 c 0
 64 254 66 343 80 443 c 0
 99 583 100 588 124 586 c 0
 155 583 156 579 156 556 c 0
 156 509 144 360 144 358 c 2
 143 347 l 1
 150 356 153 359 155 363 c 0
 165 379 193 402 213 409 c 0
 234 417 253 425 273 425 c 0
 274 425 274 425 275 425 c 0
 301 425 325 416 325 416 c 0
 325 417 358 405 378 385 c 0
 423 340 430 265 430 171 c 0
 430 129 419 49 410 28 c 0
 405 18 393 14 389 14 c 0
 387 14 385 14 381 15 c 0
 350 21 340 26 340 42 c 0
 340 44 354 127 354 192 c 0
EndSplineSet
EndChar

StartChar: i
Encoding: 105 105 24
AltUni2: 01d48a.ffffffff.0 01d456.ffffffff.0 01d422.ffffffff.0
Width: 514
VWidth: 170
Flags: HW
AnchorPoint: "above" 254.5 531 basechar 0
LayerCount: 2
Fore
SplineSet
173 313 m 0
 173 365 192 365 204 365 c 0
 206 365 209 365 211 365 c 0
 212 365 212 365 213 365 c 0
 230 365 238 363 245 354 c 0
 249 349 250 348 250 245 c 0
 250 176 251 136 256 102 c 1
 277 105 296 116 307 116 c 0
 328 116 332 104 343 72 c 1
 333 54 333 54 329 51 c 0
 327 49 279 25 251 25 c 0
 201 25 183 75 183 87 c 0
 183 88 182 92 181 96 c 0
 177 114 175 158 175 199 c 0
 175 199 175 224 175 228 c 0
 175 260 173 312 173 313 c 0
166 449 m 0
 166 483 206 511 222 511 c 0
 229 511 237 508 243 503 c 0
 246 500 267 493 267 484 c 1
 273 477 275 466 275 456 c 0
 275 444 272 429 250 408 c 0
 245 403 235 393 208 393 c 0
 199 393 192 398 182 407 c 0
 174 414 166 423 166 449 c 0
EndSplineSet
EndChar

StartChar: j
Encoding: 106 106 25
AltUni2: 01d48b.ffffffff.0 01d457.ffffffff.0 01d423.ffffffff.0
Width: 514
VWidth: 731
Flags: HW
AnchorPoint: "above" 268 537 basechar 0
LayerCount: 2
Fore
SplineSet
259 93 m 0
 259 174 251 209 251 210 c 0
 251 211 251 213 251 215 c 0
 251 218 251 218 251 218 c 1
 245 224 246 243 243 258 c 0
 242 259 238 266 238 304 c 0
 238 321 238 345 288 345 c 0
 291 345 298 345 306 334 c 0
 309 330 316 274 319 265 c 0
 321 263 322 260 322 258 c 0
 322 256 321 255 321 254 c 0
 321 249 327 220 327 214 c 0
 327 205 330 210 330 191 c 0
 330 155 335 172 335 136 c 0
 335 130 334 111 334 96 c 0
 334 89 335 56 335 56 c 0
 335 43 334 38 334 38 c 0
 335 36 336 34 336 32 c 0
 336 31 328 -63 308 -91 c 0
 306 -94 306 -97 306 -97 c 0
 306 -98 306 -98 306 -99 c 0
 306 -103 306 -103 294 -119 c 0
 292 -128 257 -159 254 -163 c 0
 252 -171 218 -182 203 -190 c 0
 200 -194 158 -203 151 -203 c 0
 137 -203 112 -201 104 -198 c 0
 103 -199 102 -199 100 -199 c 0
 100 -199 73 -187 58 -177 c 0
 40 -165 39 -163 39 -163 c 0
 37 -163 34 -163 22 -151 c 0
 15 -145 12 -136 12 -117 c 0
 12 -100 17 -95 32 -88 c 0
 39 -85 43 -83 49 -83 c 0
 52 -83 73 -86 79 -96 c 0
 86 -108 102 -118 118 -121 c 0
 134 -123 130 -125 135 -125 c 0
 136 -125 179 -118 207 -97 c 1
 210 -87 221 -86 238 -56 c 0
 258 -19 259 13 259 93 c 0
260 382 m 0
 240 382 208 400 208 438 c 0
 208 450 221 484 223 487 c 0
 224 499 263 517 274 517 c 0
 278 517 294 514 299 504 c 0
 306 493 328 484 328 461 c 0
 328 455 328 436 320 425 c 0
 320 424 316 419 314 415 c 0
 310 408 288 386 280 386 c 0
 280 386 276 382 260 382 c 0
EndSplineSet
EndChar

StartChar: quotedblright
Encoding: 8221 8221 27
Width: 514
VWidth: 818
Flags: HW
LayerCount: 2
Fore
SplineSet
253 668 m 0
 253 678 247 681 247 694 c 0
 247 708 256 711 258 717 c 0
 260 725 273 727 275 727 c 0
 281 727 315 708 315 706 c 0
 314 703 329 699 331 693 c 0
 331 692 364 647 364 646 c 0
 364 646 376 613 378 613 c 0
 379 613 384 583 384 577 c 0
 384 577 383 532 381 532 c 0
 375 532 371 513 351 513 c 0
 341 513 333 518 329 519 c 0
 315 522 311 529 308 556 c 0
 307 565 306 573 306 577 c 0
 306 581 307 579 307 581 c 0
 307 590 287 633 286 633 c 0
 284 633 278 647 276 647 c 0
 273 647 264 659 261 659 c 0
 258 659 253 666 253 668 c 0
110 636 m 0
 110 677 121 678 130 678 c 0
 130 678 176 677 178 671 c 0
 179 669 178 669 181 669 c 0
 192 669 212 633 216 633 c 0
 219 633 218 633 218 627 c 0
 218 621 244 587 244 576 c 0
 245 566 252 563 252 560 c 0
 252 557 258 547 259 540 c 0
 260 534 269 494 269 489 c 0
 269 489 267 468 267 462 c 0
 266 443 265 442 260 442 c 0
 255 442 253 437 244 436 c 0
 241 436 238 435 238 434 c 0
 238 432 234 435 234 433 c 0
 234 431 225 429 220 429 c 0
 217 429 204 435 204 439 c 0
 204 441 203 442 201 442 c 0
 186 442 184 497 184 498 c 0
 182 504 184 508 179 513 c 0
 173 519 172 544 168 549 c 0
 166 552 153 579 153 581 c 0
 153 583 119 616 114 619 c 0
 111 621 110 624 110 636 c 0
EndSplineSet
EndChar

StartChar: Aring
Encoding: 197 197 29
Width: 514
VWidth: 1100
Flags: HW
AnchorPoint: "above" 244.5 859 basechar 0
LayerCount: 2
Fore
SplineSet
248 473 m 0
 286 473 342 350 342 320 c 0
 342 310 333 309 321 308 c 0
 219 297 172 289 170 289 c 0
 168 289 160 291 160 300 c 0
 160 302 184 413 230 462 c 0
 235 467 241 473 248 473 c 0
383 55 m 0
 383 12 379 1 379 0 c 0
 379 -3 384 -19 388 -20 c 0
 400 -23 402 -29 407 -31 c 0
 415 -31 425 -32 429 -33 c 0
 432 -32 443 -26 447 -23 c 0
 451 -16 449 -14 453 -9 c 0
 462 2 454 12 461 23 c 0
 461 25 462 30 462 35 c 0
 462 128 448 192 425 305 c 0
 413 360 389 424 362 467 c 0
 352 484 327 518 320 524 c 0
 313 526 309 535 291 546 c 0
 283 551 269 559 240 559 c 0
 216 559 215 558 211 554 c 0
 202 543 192 538 182 527 c 1
 180 515 163 516 130 438 c 0
 99 370 85 314 84 313 c 0
 80 305 58 220 55 201 c 0
 51 177 46 148 42 126 c 0
 42 125 27 41 27 1 c 0
 27 -37 27 -38 58 -38 c 0
 70 -38 83 -37 87 -36 c 0
 92 -30 94 -22 94 -21 c 0
 94 -10 101 -5 110 52 c 0
 118 103 132 180 132 181 c 2
 132 181 l 2
 132 182 132 186 132 190 c 2
 132 206 l 1
 159 206 l 2
 183 206 188 210 242 213 c 0
 279 215 296 219 358 230 c 1
 372 194 369 162 380 103 c 0
 382 93 383 74 383 55 c 0
269 769 m 2
 270 769 l 2
 282 769 290 749 290 735 c 0
 290 716 275 687 264 676 c 0
 254 666 248 664 210 647 c 1
 210 657 201 667 201 657 c 1
 195 663 194 672 194 685 c 0
 194 707 195 731 213 753 c 0
 218 759 224 766 232 766 c 0
 237 766 239 763 243 763 c 0
 247 765 263 768 269 769 c 2
343 692 m 1
 343 702 349 709 349 736 c 0
 349 744 347 765 346 771 c 0
 345 777 329 808 322 818 c 0
 319 821 307 829 293 837 c 1
 293 837 284 839 273 839 c 0
 247 839 209 821 209 820 c 0
 209 820 174 798 164 783 c 0
 163 782 142 752 138 698 c 0
 137 688 138 682 137 678 c 0
 138 673 143 645 145 638 c 0
 149 627 171 602 178 598 c 0
 190 592 210 588 215 588 c 0
 233 588 270 604 271 604 c 0
 280 609 298 626 306 630 c 0
 312 634 338 672 343 692 c 1
EndSplineSet
EndChar

StartChar: Udieresis
Encoding: 220 220 30
Width: 514
VWidth: 1007
Flags: HW
AnchorPoint: "above" 247.5 785 basechar 0
LayerCount: 2
Fore
SplineSet
343 143 m 0
 343 142 338 55 247 55 c 0
 144 55 141 218 139 387 c 0
 137 549 137 549 131 552 c 0
 124 556 97 559 93 559 c 0
 92 559 l 0
 88 559 81 543 80 537 c 0
 80 525 74 526 72 502 c 0
 70 466 61 421 61 347 c 0
 61 345 63 198 82 120 c 1
 91 106 96 68 115 40 c 0
 115 39 123 28 124 22 c 0
 127 18 146 -4 156 -11 c 0
 164 -15 183 -25 186 -29 c 0
 189 -31 222 -43 252 -43 c 0
 267 -43 267 -43 313 -32 c 0
 319 -30 334 -19 342 -19 c 1
 361 -10 395 39 396 40 c 0
 429 103 432 192 434 412 c 0
 434 415 434 418 434 421 c 0
 434 461 431 515 429 531 c 0
 427 540 416 562 413 564 c 0
 408 567 403 568 401 568 c 0
 399 568 396 565 387 564 c 0
 373 562 379 559 367 554 c 0
 353 548 353 548 349 537 c 0
 349 519 356 531 356 461 c 0
 356 458 354 213 349 196 c 0
 349 195 343 166 343 143 c 0
96 703 m 0
 96 695 126 660 134 660 c 0
 146 660 188 701 193 708 c 0
 194 710 196 717 196 720 c 0
 196 721 196 722 196 722 c 0
 196 726 195 728 184 743 c 0
 169 764 166 764 157 764 c 0
 156 764 157 764 156 764 c 0
 148 764 96 729 96 705 c 0
 96 704 96 704 96 703 c 0
274 697 m 0
 274 696 276 648 320 648 c 0
 323 648 333 647 349 655 c 0
 352 658 355 660 359 663 c 0
 368 669 382 686 384 695 c 0
 390 722 390 722 390 724 c 0
 390 731 382 746 376 750 c 0
 370 754 355 757 328 765 c 1
 301 749 289 743 277 709 c 0
 275 705 274 701 274 697 c 0
EndSplineSet
EndChar

StartChar: uni226A
Encoding: 8810 8810 31
Width: 514
VWidth: 797
Flags: HW
LayerCount: 2
Fore
SplineSet
522 112 m 0
 522 120 527 125 527 127 c 0
 527 141 461 187 442 206 c 0
 425 222 337 281 332 300 c 1
 325 309 325 309 295 339 c 1
 303 346 l 2
 313 355 354 392 355 392 c 0
 375 410 407 437 416 446 c 0
 425 455 489 506 490 506 c 0
 491 507 497 521 497 522 c 0
 497 525 497 527 485 540 c 0
 468 558 464 560 454 560 c 0
 452 560 452 561 444 560 c 0
 435 559 439 563 389 518 c 0
 345 479 326 462 313 453 c 0
 300 444 249 399 243 396 c 0
 240 393 226 377 222 372 c 0
 217 364 219 345 216 320 c 0
 217 313 231 290 235 284 c 0
 247 276 274 249 280 238 c 0
 290 219 353 179 382 152 c 0
 392 143 465 78 486 78 c 0
 490 78 494 79 501 83 c 0
 504 85 518 93 518 93 c 0
 520 94 525 101 525 104 c 0
 525 105 522 107 522 112 c 0
278 114 m 0
 278 120 264 139 256 139 c 0
 253 139 246 139 230 160 c 0
 198 200 139 259 102 287 c 0
 59 320 55 324 55 332 c 0
 55 340 55 340 187 458 c 0
 212 481 264 534 274 546 c 0
 276 554 297 571 297 575 c 0
 297 580 266 612 260 612 c 0
 256 612 257 610 241 602 c 0
 227 594 205 567 196 565 c 0
 192 562 187 556 170 543 c 0
 136 517 80 459 72 457 c 0
 71 456 -11 388 -24 364 c 0
 -28 357 -32 347 -32 345 c 0
 -32 340 -16 297 -8 286 c 0
 -5 282 -3 277 -1 273 c 0
 19 246 65 225 136 146 c 0
 185 91 217 62 237 62 c 0
 251 62 247 72 262 72 c 0
 267 75 270 82 270 84 c 0
 270 97 278 107 278 114 c 0
EndSplineSet
EndChar

StartChar: uni226B
Encoding: 8811 8811 32
Width: 514
VWidth: 797
Flags: HW
LayerCount: 2
Fore
SplineSet
-28 112 m 0
 -28 107 -30 105 -30 104 c 0
 -30 101 -26 95 -23 93 c 0
 -19 91 -12 86 -7 83 c 0
 0 79 5 78 9 78 c 0
 30 78 102 142 112 152 c 0
 141 180 205 220 215 239 c 0
 221 250 249 277 260 284 c 0
 260 284 278 311 279 320 c 0
 276 345 278 364 273 372 c 0
 273 372 260 390 249 399 c 0
 236 409 193 446 182 454 c 0
 173 460 168 463 104 520 c 0
 56 563 60 559 51 560 c 0
 42 561 42 560 40 560 c 0
 35 560 33 559 30 558 c 0
 30 558 -2 532 -2 523 c 0
 -2 522 l 0
 -2 521 3 507 5 506 c 0
 16 499 39 478 58 464 c 0
 68 456 172 364 173 363 c 2
 200 339 l 1
 192 331 l 2
 173 312 168 306 163 300 c 0
 160 288 116 254 96 240 c 0
 53 209 49 201 15 175 c 0
 3 166 -33 137 -33 127 c 0
 -33 125 -28 120 -28 112 c 0
239 139 m 0
 231 139 217 120 217 114 c 0
 217 107 224 97 224 84 c 0
 224 82 228 75 233 72 c 0
 235 72 245 72 248 65 c 0
 250 64 256 62 260 62 c 0
 266 62 289 73 313 97 c 0
 349 132 384 180 448 229 c 0
 468 245 490 266 495 272 c 0
 497 274 523 321 527 345 c 1
 519 372 511 379 468 418 c 0
 448 436 429 453 423 457 c 0
 415 459 359 517 325 543 c 0
 308 556 303 562 299 565 c 0
 290 567 268 594 254 602 c 0
 237 610 240 612 235 612 c 0
 227 612 198 579 198 575 c 0
 198 570 217 556 220 547 c 0
 270 487 425 357 437 340 c 0
 438 339 440 337 440 332 c 0
 440 324 437 320 393 287 c 0
 356 259 297 200 265 160 c 0
 260 154 249 139 239 139 c 0
EndSplineSet
EndChar

StartChar: uni203D
Encoding: 8253 8253 33
Width: 514
VWidth: 1123
Flags: HW
LayerCount: 2
Fore
SplineSet
234 -14 m 0
 235 -14 295 1 295 62 c 0
 295 66 292 64 289 72 c 1
 287 73 279 77 278 86 c 1
 271 93 254 98 244 98 c 0
 232 98 200 73 195 67 c 1
 195 61 186 53 186 36 c 0
 186 32 189 28 190 20 c 0
 195 -5 233 -14 234 -14 c 0
373 587 m 0
 373 547 343 501 308 487 c 0
 301 484 293 481 286 478 c 1
 286 682 l 1
 315 687 316 687 322 687 c 0
 348 687 356 665 363 643 c 0
 369 625 373 604 373 587 c 0
278 341 m 1
 312 405 314 408 326 409 c 2
 326 409 l 1
 326 409 l 1
 326 409 330 410 359 425 c 0
 369 431 411 473 420 486 c 0
 420 486 422 493 427 497 c 0
 436 511 450 550 451 559 c 0
 452 569 453 579 453 588 c 0
 453 669 406 732 405 733 c 0
 403 734 398 736 395 742 c 1
 385 743 377 755 360 760 c 0
 360 760 337 765 323 765 c 0
 320 765 319 765 292 763 c 1
 284 821 284 825 282 835 c 0
 277 840 280 842 275 846 c 0
 273 848 273 848 267 848 c 0
 257 848 228 845 216 842 c 1
 209 832 209 829 209 807 c 0
 209 805 209 787 209 787 c 0
 209 754 206 755 206 755 c 0
 206 754 206 752 206 749 c 2
 206 732 l 1
 163 707 137 692 114 666 c 0
 106 657 98 649 93 645 c 0
 92 645 87 638 85 633 c 0
 78 614 41 576 41 556 c 0
 41 542 84 521 89 521 c 0
 93 521 99 523 110 534 c 0
 116 541 129 554 138 563 c 0
 154 580 158 591 159 593 c 1
 159 603 171 615 175 619 c 2
 204 648 l 1
 207 584 207 584 207 570 c 0
 207 476 194 385 194 383 c 0
 194 365 199 351 199 322 c 0
 199 282 190 270 190 248 c 0
 190 248 190 239 191 221 c 1
 202 208 212 207 235 205 c 0
 252 205 265 216 273 217 c 0
 278 220 282 223 282 282 c 0
 282 302 282 304 278 341 c 1
EndSplineSet
EndChar

StartChar: Emacron
Encoding: 274 274 34
Width: 514
VWidth: 1039
Flags: HW
AnchorPoint: "above" 257.5 804 basechar 0
LayerCount: 2
Fore
SplineSet
124 331 m 1
 124 333 114 420 114 489 c 0
 114 491 114 492 114 493 c 0
 114 496 115 507 127 508 c 0
 129 508 331 522 346 522 c 0
 364 522 364 518 369 518 c 0
 372 518 382 522 393 522 c 0
 395 522 408 525 417 531 c 0
 417 531 419 553 419 575 c 0
 419 593 418 594 412 595 c 0
 399 598 401 603 392 603 c 0
 390 603 386 603 384 602 c 0
 373 599 223 595 167 590 c 0
 156 589 145 588 141 588 c 0
 115 587 99 573 64 570 c 0
 42 568 42 568 42 543 c 0
 42 497 43 382 44 357 c 1
 44 360 43 360 43 357 c 1
 44 354 45 347 45 295 c 0
 45 182 42 20 42 17 c 0
 42 -7 43 -23 44 -33 c 0
 45 -43 47 -52 47 -57 c 0
 55 -64 59 -64 80 -64 c 0
 149 -64 232 -35 402 -21 c 1
 423 -32 426 -33 434 -33 c 0
 446 -33 444 -25 460 -21 c 0
 466 -19 473 -12 473 12 c 0
 473 14 473 22 472 27 c 0
 448 45 457 44 449 46 c 0
 440 48 437 50 435 52 c 0
 423 54 403 55 394 55 c 0
 308 55 209 26 119 18 c 1
 121 199 123 265 123 269 c 1
 123 269 l 0
 123 271 126 278 133 278 c 2
 133 278 l 2
 139 277 145 276 147 276 c 0
 164 273 211 272 225 270 c 0
 239 268 236 262 244 262 c 0
 252 262 265 270 270 274 c 1
 271 283 280 298 280 307 c 0
 280 314 276 318 272 331 c 0
 270 337 264 335 256 343 c 0
 247 348 218 348 207 348 c 0
 206 348 152 348 145 343 c 0
 138 339 131 335 124 331 c 1
370 784 m 0
 369 784 328 771 300 771 c 0
 299 771 225 774 214 774 c 0
 171 774 147 766 125 766 c 0
 113 766 114 760 85 756 c 0
 62 753 61 751 61 732 c 0
 61 719 61 713 70 703 c 0
 72 703 76 701 80 697 c 0
 83 696 99 694 116 694 c 0
 159 694 149 701 210 701 c 0
 243 701 282 699 304 699 c 0
 304 699 328 699 335 700 c 0
 340 702 366 711 375 711 c 1
 382 712 388 717 390 719 c 0
 393 728 404 740 404 745 c 0
 404 751 383 775 375 783 c 0
 373 783 372 784 370 784 c 0
EndSplineSet
EndChar

StartChar: Ohungarumlaut
Encoding: 336 336 35
Width: 514
VWidth: 1118
Flags: HW
AnchorPoint: "above" 247.5 873 basechar 0
LayerCount: 2
Fore
SplineSet
260 492 m 0
 265 492 272 505 284 518 c 1
 288 518 l 2
 294 518 303 510 325 501 c 0
 338 496 356 476 362 461 c 0
 377 424 396 323 396 240 c 0
 396 201 392 184 377 152 c 0
 372 140 365 127 356 120 c 0
 352 117 342 108 335 102 c 0
 301 71 238 51 210 51 c 0
 203 51 198 53 190 56 c 0
 152 71 135 87 119 122 c 0
 109 143 97 168 97 238 c 0
 97 259 100 249 100 262 c 0
 100 292 116 361 129 393 c 0
 149 444 193 507 214 507 c 0
 222 507 225 503 234 500 c 0
 236 501 l 0
 236 501 l 2
 238 501 238 500 260 492 c 0
466 165 m 1
 466 171 476 187 476 259 c 0
 476 311 450 437 450 439 c 0
 447 459 426 512 413 530 c 0
 364 597 268 610 266 610 c 0
 264 609 259 605 246 605 c 0
 221 605 232 589 201 589 c 0
 191 589 190 588 181 583 c 0
 176 580 170 577 166 575 c 0
 158 570 117 526 97 497 c 0
 79 471 65 432 58 424 c 1
 40 385 20 292 19 240 c 0
 22 216 17 176 28 141 c 0
 37 113 41 100 56 69 c 0
 58 65 59 62 60 58 c 0
 71 44 108 -1 151 -19 c 0
 160 -23 169 -27 173 -29 c 0
 177 -30 194 -31 212 -31 c 0
 212 -31 248 -31 257 -28 c 0
 263 -26 270 -25 274 -24 c 0
 294 -21 349 9 382 35 c 0
 392 42 420 71 426 79 c 0
 427 86 456 119 466 165 c 1
106 715 m 0
 106 704 134 687 137 687 c 0
 143 687 156 705 165 711 c 0
 171 717 184 738 211 767 c 0
 237 796 241 808 241 820 c 0
 241 822 240 824 240 824 c 0
 237 827 220 841 213 846 c 0
 208 845 203 844 199 840 c 0
 191 832 141 778 136 772 c 0
 136 772 106 734 106 715 c 0
283 712 m 0
 283 697 315 681 316 681 c 0
 332 681 347 711 358 713 c 1
 370 722 379 742 395 750 c 0
 402 754 421 772 426 779 c 0
 429 795 446 794 446 825 c 0
 446 827 446 828 442 832 c 0
 425 849 414 851 412 853 c 0
 399 853 352 800 344 798 c 0
 339 793 334 784 326 779 c 1
 314 767 296 742 295 740 c 0
 292 729 283 726 283 712 c 0
EndSplineSet
EndChar

StartChar: quotedblleft
Encoding: 8220 8220 36
Width: 514
VWidth: 798
Flags: HW
LayerCount: 2
Fore
SplineSet
158 666 m 0
 158 669 166 672 166 675 c 0
 166 679 183 693 184 696 c 0
 185 698 214 710 228 710 c 0
 236 710 231 707 237 707 c 0
 240 707 254 677 254 665 c 0
 254 664 254 664 253 664 c 0
 252 664 251 663 251 661 c 0
 251 659 250 658 248 658 c 0
 246 658 245 657 245 656 c 0
 245 655 235 638 230 638 c 0
 223 638 213 624 205 600 c 0
 202 590 196 579 196 576 c 0
 196 572 191 570 191 567 c 0
 184 534 183 534 183 524 c 0
 183 500 145 497 145 497 c 0
 136 497 113 500 113 532 c 0
 113 572 129 601 129 607 c 0
 130 611 135 616 133 616 c 0
 131 616 139 626 137 626 c 0
 135 626 143 634 141 634 c 0
 138 634 158 664 158 666 c 0
300 666 m 0
 306 666 322 695 341 695 c 0
 350 695 351 694 364 680 c 0
 372 672 378 664 378 663 c 0
 378 659 382 665 382 655 c 0
 382 647 368 621 362 618 c 0
 360 617 358 615 358 614 c 0
 358 610 354 613 346 597 c 0
 336 578 332 575 333 573 c 0
 335 571 326 566 326 561 c 0
 326 556 319 549 319 545 c 0
 319 541 312 533 314 533 c 0
 315 533 310 525 309 523 c 0
 309 516 296 504 296 463 c 0
 296 441 296 441 289 433 c 0
 285 428 281 424 280 424 c 0
 277 424 273 418 271 419 c 0
 270 420 269 420 269 419 c 0
 269 416 261 413 254 413 c 0
 235 413 235 424 230 424 c 0
 229 424 227 426 227 427 c 0
 227 428 224 432 221 435 c 0
 219 437 213 444 213 476 c 0
 210 486 251 591 251 592 c 0
 251 596 277 639 277 639 c 0
 281 643 296 666 300 666 c 0
EndSplineSet
EndChar

StartChar: c_o
Encoding: 1114112 -1 37
Width: 514
VWidth: 655
Flags: HW
LayerCount: 2
Fore
SplineSet
577 332 m 0
 577 327 597 298 597 246 c 0
 597 180 574 149 573 149 c 0
 573 149 568 135 539 104 c 0
 513 76 502 66 486 55 c 0
 462 39 429 18 428 19 c 0
 427 20 407 10 401 9 c 0
 381 6 379 -1 352 -1 c 0
 329 -1 295 3 272 23 c 0
 237 53 233 85 229 78 c 0
 204 40 132 12 66 12 c 0
 50 12 34 13 30 15 c 0
 24 18 -25 29 -55 60 c 0
 -76 82 -96 122 -98 144 c 0
 -99 156 -102 171 -102 185 c 0
 -102 367 57 452 117 445 c 0
 138 442 163 438 188 421 c 0
 194 417 200 414 201 414 c 0
 206 414 242 372 242 357 c 0
 242 333 212 308 201 319 c 0
 195 324 188 326 186 331 c 0
 185 333 183 335 182 335 c 0
 179 335 171 342 161 352 c 0
 146 367 141 369 117 369 c 0
 93 369 87 367 65 354 c 0
 30 333 30 319 12 303 c 0
 -1 290 -27 240 -27 191 c 0
 -27 173 -20 142 -15 133 c 0
 -10 123 11 102 21 97 c 0
 32 91 48 88 67 88 c 0
 140 88 174 127 189 128 c 0
 204 128 219 108 221 110 c 0
 222 111 216 119 216 172 c 0
 216 173 216 214 221 225 c 0
 223 231 232 272 235 279 c 0
 236 282 239 288 240 292 c 0
 243 303 264 343 272 355 c 0
 304 401 322 410 345 423 c 0
 355 428 383 429 424 429 c 0
 442 429 454 428 459 427 c 0
 494 418 524 401 545 378 c 0
 555 367 577 335 577 332 c 0
407 333 m 0
 402 333 390 352 382 352 c 0
 379 352 378 357 377 357 c 0
 375 357 292 293 292 168 c 0
 292 127 303 92 322 79 c 0
 328 75 331 74 347 74 c 0
 393 74 449 116 475 146 c 0
 512 188 521 199 521 245 c 0
 521 291 483 347 444 353 c 0
 436 354 435 355 435 352 c 0
 435 348 413 333 407 333 c 0
EndSplineSet
EndChar

StartChar: o_o
Encoding: 1114113 -1 38
Width: 514
VWidth: 652
Flags: HW
LayerCount: 2
Fore
SplineSet
369 392 m 0
 372 392 407 419 439 419 c 0
 482 419 502 378 502 377 c 0
 506 367 640 294 640 193 c 0
 640 155 612 102 612 101 c 0
 581 49 492 8 485 8 c 0
 484 8 451 -10 387 -10 c 0
 354 -10 362 -4 354 -4 c 0
 341 -4 286 24 279 42 c 0
 277 46 258 73 255 86 c 0
 245 124 245 124 245 144 c 0
 245 151 245 160 246 169 c 2
 247 186 l 1
 242 175 l 1
 216 120 200 104 200 103 c 0
 200 102 193 94 184 86 c 0
 155 58 97 23 75 20 c 0
 71 19 20 2 5 8 c 0
 1 10 -39 10 -50 20 c 0
 -53 22 -55 25 -56 25 c 0
 -57 25 -91 41 -113 86 c 0
 -123 105 -135 131 -135 186 c 0
 -135 237 -116 279 -116 280 c 0
 -116 294 -73 375 -55 386 c 0
 -53 387 -45 392 -36 398 c 0
 -27 404 -9 416 20 416 c 0
 30 416 41 415 43 413 c 0
 45 411 67 408 71 402 c 0
 72 401 77 400 83 400 c 0
 95 400 146 390 179 360 c 0
 185 355 190 350 191 350 c 0
 192 350 192 351 222 316 c 0
 228 309 244 275 245 267 c 0
 246 254 249 250 249 235 c 0
 249 229 250 224 250 223 c 0
 252 221 243 166 252 204 c 0
 265 258 306 327 312 331 c 0
 313 332 363 392 369 392 c 0
36 338 m 0
 36 341 25 346 24 346 c 0
 -2 339 -20 320 -40 275 c 0
 -52 247 -51 248 -56 210 c 0
 -58 196 -59 187 -59 179 c 0
 -59 144 -53 131 -47 120 c 0
 -40 106 -36 101 -29 96 c 0
 -13 84 -10 84 12 84 c 0
 68 84 106 119 130 142 c 0
 153 165 157 169 164 184 c 2
 172 201 l 1
 172 226 l 2
 172 249 172 251 167 261 c 0
 149 295 110 318 106 318 c 0
 102 318 93 303 79 317 c 0
 77 319 74 321 74 321 c 1
 74 319 71 323 57 325 c 0
 48 326 36 334 36 338 c 0
439 314 m 0
 432 314 429 313 424 313 c 0
 417 313 410 315 403 318 c 0
 397 321 397 320 386 308 c 0
 385 307 319 227 319 155 c 0
 319 137 323 88 362 71 c 0
 373 66 376 66 396 66 c 0
 411 66 450 66 498 97 c 0
 513 107 564 138 564 190 c 0
 564 226 528 259 527 260 c 0
 523 263 516 270 511 275 c 0
 493 293 456 314 439 314 c 0
EndSplineSet
EndChar

StartChar: A
Encoding: 65 65 39
AltUni2: 01d468.ffffffff.0 01d434.ffffffff.0 01d400.ffffffff.0
Width: 514
VWidth: 153
Flags: HW
AnchorPoint: "above" 245 583 basechar 0
LayerCount: 2
Fore
SplineSet
254 560 m 0
 269 560 269 563 274 563 c 0
 292 563 333 539 334 539 c 0
 335 539 366 519 393 442 c 0
 394 440 431 316 437 247 c 0
 437 245 469 58 469 30 c 0
 469 13 465 19 465 10 c 0
 465 -11 440 -16 428 -18 c 0
 419 -20 422 -20 419 -20 c 0
 414 -20 404 -14 402 -9 c 0
 401 -6 396 0 392 5 c 2
 384 13 l 1
 385 26 l 2
 386 44 388 41 388 52 c 0
 388 64 385 86 381 109 c 0
 374 149 361 231 361 236 c 2
 361 241 l 1
 344 241 l 2
 304 239 226 232 185 232 c 0
 168 232 136 234 136 234 c 0
 128 234 111 135 107 127 c 0
 103 121 103 106 98 96 c 0
 96 92 93 86 92 81 c 0
 90 75 84 56 73 56 c 0
 69 56 63 56 56 57 c 0
 28 60 21 62 21 79 c 0
 21 109 41 201 47 212 c 0
 49 216 79 334 103 385 c 0
 105 390 107 396 108 399 c 0
 112 411 140 467 144 471 c 0
 147 474 149 477 149 478 c 0
 149 481 171 508 179 515 c 0
 183 518 190 525 195 530 c 0
 209 543 230 550 238 556 c 0
 241 558 246 560 254 560 c 0
290 472 m 0
 281 480 277 483 272 483 c 0
 214 483 178 359 170 349 c 0
 169 348 165 338 162 327 c 2
 156 307 l 1
 174 307 l 2
 176 307 308 315 335 316 c 2
 345 317 l 1
 339 347 l 2
 335 370 319 445 290 472 c 0
EndSplineSet
EndChar

StartChar: K
Encoding: 75 75 40
AltUni2: 01d472.ffffffff.0 01d43e.ffffffff.0 01d40a.ffffffff.0
Width: 514
VWidth: 771
Flags: HW
AnchorPoint: "above" 250 611 basechar 0
LayerCount: 2
Fore
SplineSet
308 570 m 0
 308 571 332 591 348 591 c 0
 355 591 362 590 364 588 c 0
 380 569 386 559 386 551 c 0
 386 544 378 528 373 522 c 0
 367 515 337 491 331 488 c 0
 326 485 313 472 273 431 c 0
 255 412 212 363 201 349 c 0
 192 337 191 336 194 334 c 0
 217 318 183 332 232 293 c 0
 265 267 285 252 286 252 c 0
 292 252 388 158 388 155 c 0
 388 147 455 86 455 28 c 0
 455 5 442 1 442 1 c 0
 439 1 439 -6 416 -6 c 0
 398 -6 404 -1 396 -1 c 0
 377 -1 378 36 374 44 c 0
 361 69 318 121 284 152 c 0
 271 164 243 196 237 196 c 0
 232 196 159 258 147 264 c 1
 147 217 l 2
 147 206 148 192 148 177 c 0
 148 114 148 60 144 52 c 0
 139 43 136 36 98 36 c 0
 73 36 71 51 71 80 c 0
 71 98 71 111 71 155 c 0
 71 318 54 394 54 419 c 0
 54 452 45 468 45 493 c 0
 45 537 52 566 68 566 c 0
 68 566 105 565 111 557 c 0
 112 555 113 549 113 543 c 0
 113 519 122 510 122 492 c 0
 122 474 123 474 123 473 c 0
 123 472 135 396 133 392 c 0
 132 391 132 388 133 388 c 0
 136 388 148 400 153 409 c 0
 180 453 308 568 308 570 c 0
EndSplineSet
EndChar

StartChar: L
Encoding: 76 76 41
AltUni2: 01d473.ffffffff.0 01d43f.ffffffff.0 01d40b.ffffffff.0
Width: 514
VWidth: 723
Flags: HW
AnchorPoint: "above" 257 575 basechar 0
LayerCount: 2
Fore
SplineSet
171 -5 m 0
 171 -5 165 -5 154 -5 c 0
 153 -5 l 0
 144 -5 117 6 112 12 c 0
 106 19 107 19 100 25 c 0
 88 36 74 64 68 91 c 0
 64 107 62 141 62 181 c 0
 62 256 76 413 78 475 c 0
 81 555 81 555 119 555 c 0
 121 555 124 555 126 555 c 0
 151 555 151 554 154 495 c 0
 155 482 155 472 155 461 c 0
 155 421 143 287 143 285 c 0
 142 254 139 200 139 180 c 0
 139 136 144 98 152 82 c 0
 154 77 157 73 168 73 c 0
 190 73 248 87 274 99 c 0
 304 113 383 124 389 124 c 0
 401 124 437 118 439 112 c 0
 440 110 441 109 442 109 c 0
 445 109 452 92 452 85 c 0
 452 81 450 76 444 65 c 0
 435 48 433 43 420 43 c 0
 411 43 405 45 394 45 c 0
 323 45 230 -5 171 -5 c 0
EndSplineSet
EndChar

StartChar: M
Encoding: 77 77 42
AltUni2: 01d474.ffffffff.0 01d440.ffffffff.0 01d40c.ffffffff.0
Width: 514
VWidth: 167
Flags: HW
AnchorPoint: "above" 245 629 basechar 0
LayerCount: 2
Fore
SplineSet
58 230 m 0
 58 317 52 369 52 475 c 0
 52 509 53 513 55 516 c 0
 57 518 58 521 58 523 c 0
 58 532 77 544 90 544 c 0
 90 544 114 543 119 538 c 0
 123 533 128 534 149 514 c 0
 149 514 172 494 187 478 c 2
 207 458 l 1
 211 466 l 2
 214 470 219 479 223 486 c 0
 238 514 260 554 299 589 c 0
 308 598 326 609 358 609 c 0
 381 609 390 595 396 595 c 0
 400 595 414 579 420 567 c 0
 434 539 442 512 442 419 c 0
 442 264 428 159 428 88 c 0
 428 72 428 69 433 68 c 0
 438 67 441 63 441 56 c 0
 441 49 438 42 440 34 c 0
 441 31 441 27 441 22 c 0
 441 14 440 6 438 4 c 0
 434 -2 407 -19 403 -19 c 0
 350 -19 351 37 351 56 c 0
 351 62 351 70 351 80 c 0
 351 89 350 115 350 120 c 0
 350 147 366 347 366 384 c 0
 366 426 363 478 359 497 c 0
 355 518 352 528 350 528 c 0
 331 528 272 413 262 400 c 0
 259 396 257 392 257 391 c 0
 257 388 242 375 239 375 c 0
 232 375 225 363 209 366 c 0
 192 369 176 379 149 406 c 2
 128 427 l 1
 130 413 l 2
 135 350 137 280 137 226 c 0
 137 186 136 155 133 140 c 0
 130 125 130 112 126 94 c 0
 124 84 118 66 101 66 c 0
 93 66 73 69 60 73 c 0
 52 75 48 81 48 95 c 0
 48 96 58 200 58 230 c 0
EndSplineSet
EndChar

StartChar: N
Encoding: 78 78 43
AltUni2: 01d475.ffffffff.0 01d441.ffffffff.0 01d40d.ffffffff.0
Width: 514
VWidth: 799
Flags: HW
AnchorPoint: "above" 252.5 641 basechar 0
LayerCount: 2
Fore
SplineSet
349 433 m 0
 349 490 349 621 405 621 c 0
 418 621 448 604 449 593 c 0
 449 589 450 585 450 583 c 0
 450 569 430 563 430 405 c 0
 430 403 435 286 435 230 c 0
 435 119 429 102 420 88 c 0
 415 80 409 74 409 76 c 0
 409 78 391 70 385 70 c 0
 378 70 364 75 359 79 c 0
 352 85 346 87 345 92 c 0
 342 100 301 160 288 174 c 0
 286 176 206 272 150 365 c 2
 134 391 l 1
 136 360 l 1
 144 186 143 186 144 179 c 0
 145 165 146 151 146 147 c 0
 146 134 150 109 150 76 c 0
 150 56 149 39 146 35 c 0
 139 25 97 23 96 23 c 0
 81 23 77 42 77 43 c 0
 77 44 64 80 64 174 c 0
 64 236 55 240 55 387 c 0
 55 525 55 547 64 555 c 0
 77 568 89 574 99 574 c 0
 101 574 109 574 112 574 c 0
 118 573 129 561 135 559 c 0
 139 558 148 534 148 534 c 0
 148 528 190 447 240 371 c 0
 263 336 307 276 327 253 c 0
 335 244 345 232 348 228 c 2
 354 221 l 1
 353 267 l 2
 353 269 349 412 349 433 c 0
EndSplineSet
EndChar

StartChar: O
Encoding: 79 79 44
AltUni2: 01d476.ffffffff.0 01d442.ffffffff.0 01d40e.ffffffff.0
Width: 514
VWidth: 759
Flags: HW
AnchorPoint: "above" 247.5 602 basechar 0
LayerCount: 2
Fore
SplineSet
182 570 m 0
 195 573 206 582 224 582 c 0
 246 582 244 573 285 566 c 0
 322 560 363 530 364 530 c 0
 366 530 392 507 396 502 c 0
 398 500 401 497 403 495 c 0
 433 466 462 394 462 365 c 0
 462 364 462 364 462 357 c 0
 462 349 462 345 462 341 c 0
 462 307 462 251 422 173 c 0
 405 140 386 106 382 102 c 0
 381 101 375 94 369 87 c 0
 340 51 280 -11 204 -11 c 0
 176 -11 175 -11 145 4 c 0
 116 19 92 44 76 76 c 0
 66 96 50 136 45 157 c 0
 40 177 40 178 37 209 c 0
 33 245 33 244 33 250 c 0
 33 287 35 327 43 360 c 0
 45 367 47 375 47 378 c 0
 48 386 56 412 59 415 c 0
 65 422 100 508 154 552 c 0
 169 565 175 569 182 570 c 0
385 346 m 0
 385 381 373 386 373 400 c 0
 373 414 313 491 263 491 c 0
 251 491 251 483 240 486 c 0
 229 488 213 505 212 505 c 0
 205 505 109 406 109 281 c 0
 109 200 134 66 203 66 c 0
 210 66 218 67 226 70 c 0
 234 73 242 75 244 76 c 0
 257 80 309 131 326 157 c 0
 337 173 355 205 366 231 c 0
 383 269 385 308 385 346 c 0
EndSplineSet
EndChar

StartChar: P
Encoding: 80 80 45
AltUni2: 01d477.ffffffff.0 01d443.ffffffff.0 01d40f.ffffffff.0
Width: 514
VWidth: 786
Flags: HW
AnchorPoint: "above" 252.5 626 basechar 0
LayerCount: 2
Fore
SplineSet
151 245 m 0
 148 245 146 245 146 224 c 0
 146 223 150 91 156 79 c 0
 158 75 160 56 160 44 c 0
 160 22 151 18 133 12 c 0
 123 9 118 7 115 7 c 0
 109 7 99 14 93 19 c 0
 71 40 71 152 71 208 c 0
 71 212 71 217 71 221 c 0
 71 273 78 448 78 450 c 2
 79 468 l 1
 70 471 l 2
 58 475 53 481 53 495 c 0
 53 496 54 528 74 541 c 0
 79 544 83 548 85 550 c 0
 92 557 129 577 142 581 c 0
 144 582 151 585 157 588 c 0
 166 592 214 606 236 606 c 0
 341 606 402 536 404 536 c 0
 408 536 408 530 424 513 c 0
 431 505 433 495 437 492 c 0
 439 490 452 455 452 430 c 0
 452 388 448 389 448 384 c 0
 448 378 437 361 439 361 c 0
 442 361 424 336 424 332 c 0
 424 331 401 300 366 279 c 0
 362 276 357 273 355 271 c 0
 352 268 311 252 295 248 c 0
 280 244 242 241 209 241 c 0
 173 241 166 245 151 245 c 0
376 416 m 0
 376 421 373 420 373 431 c 0
 373 480 311 518 271 526 c 0
 260 528 239 529 223 529 c 0
 194 529 162 517 157 515 c 0
 153 513 152 512 152 506 c 0
 152 492 155 509 155 478 c 0
 155 445 152 370 152 336 c 0
 152 332 152 331 153 323 c 1
 165 321 l 2
 173 319 196 318 218 318 c 0
 235 318 252 319 262 320 c 0
 294 324 341 347 355 367 c 0
 367 383 376 406 376 416 c 0
EndSplineSet
EndChar

StartChar: Q
Encoding: 81 81 46
AltUni2: 01d478.ffffffff.0 01d444.ffffffff.0 01d410.ffffffff.0
Width: 514
VWidth: 795
Flags: HW
AnchorPoint: "above" 254.5 633 basechar 0
LayerCount: 2
Fore
SplineSet
199 9 m 0
 194 9 191 11 181 11 c 0
 163 11 111 38 86 60 c 0
 75 70 44 99 15 177 c 0
 7 198 1 216 0 233 c 0
 -1 251 -5 263 -5 294 c 0
 -5 482 148 588 168 594 c 0
 169 594 203 613 226 613 c 0
 244 613 269 599 276 599 c 0
 277 599 331 591 379 527 c 0
 406 491 445 398 445 373 c 0
 445 372 453 309 453 289 c 0
 453 271 448 288 448 262 c 0
 448 251 443 229 438 216 c 0
 432 201 425 178 419 168 c 0
 414 159 408 149 408 148 c 0
 408 145 422 142 452 123 c 0
 462 117 471 112 472 112 c 0
 473 112 483 103 494 92 c 2
 514 73 l 1
 513 63 l 2
 512 53 510 51 503 45 c 0
 498 41 490 33 484 28 c 0
 471 16 465 14 440 37 c 0
 424 52 404 65 370 82 c 2
 360 87 l 1
 351 78 l 2
 339 66 318 49 309 45 c 0
 308 45 265 21 247 16 c 0
 231 12 209 9 199 9 c 0
311 491 m 1
 303 485 301 484 295 484 c 0
 290 484 285 486 281 490 c 0
 281 490 248 526 237 526 c 0
 227 526 214 509 193 509 c 0
 186 509 184 512 181 512 c 0
 173 512 129 461 116 443 c 0
 115 442 73 373 73 307 c 0
 73 224 80 209 105 161 c 0
 114 144 120 136 134 121 c 0
 154 100 165 93 189 89 c 0
 189 89 207 85 208 85 c 0
 232 85 286 118 286 123 c 0
 286 127 243 153 222 175 c 0
 215 182 208 190 205 192 c 0
 200 195 193 202 193 216 c 0
 193 221 195 224 203 234 c 0
 213 246 217 251 234 251 c 0
 237 252 281 219 314 198 c 2
 339 182 l 1
 348 198 l 2
 357 214 361 223 369 252 c 0
 373 265 373 270 373 302 c 0
 373 350 369 368 355 406 c 0
 350 419 332 466 311 491 c 1
EndSplineSet
EndChar

StartChar: R
Encoding: 82 82 47
AltUni2: 01d479.ffffffff.0 01d445.ffffffff.0 01d411.ffffffff.0
Width: 514
VWidth: 182
Flags: HW
AnchorPoint: "above" 252.069 641 basechar 0
LayerCount: 2
Fore
SplineSet
133 273 m 0
 127 273 127 108 127 106 c 0
 127 86 127 72 128 69 c 0
 129 61 127 53 124 53 c 0
 124 53 126 38 99 38 c 0
 85 38 65 40 62 42 c 0
 60 44 50 52 50 70 c 0
 50 73 51 62 54 339 c 2
 56 456 l 1
 46 460 l 2
 42 462 31 466 35 484 c 0
 36 488 36 494 36 497 c 0
 36 505 55 537 57 547 c 0
 60 556 68 565 76 565 c 0
 82 565 110 599 170 612 c 0
 180 614 188 617 188 618 c 0
 188 620 214 617 214 620 c 0
 214 621 215 621 218 621 c 0
 246 621 294 605 295 605 c 0
 301 605 345 580 352 573 c 0
 353 572 356 571 358 571 c 0
 363 570 374 552 378 552 c 0
 379 552 381 552 381 551 c 0
 381 549 388 542 393 532 c 0
 395 528 397 525 398 524 c 0
 398 524 408 511 408 473 c 0
 408 462 408 449 407 442 c 0
 404 415 381 384 381 383 c 0
 381 381 352 343 327 327 c 0
 323 324 316 320 312 317 c 0
 308 314 298 309 290 306 c 2
 276 301 l 1
 297 290 l 2
 338 270 367 241 398 192 c 0
 399 190 470 67 470 24 c 0
 470 4 442 0 442 0 c 0
 433 0 423 -8 415 -3 c 0
 406 2 401 7 397 17 c 0
 381 60 355 118 337 148 c 0
 328 164 321 172 303 190 c 0
 274 219 262 227 217 242 c 0
 216 242 141 273 133 273 c 0
250 540 m 0
 245 543 229 544 212 544 c 0
 192 544 178 544 145 529 c 2
 131 522 l 1
 131 443 l 2
 131 399 132 363 132 363 c 0
 132 363 133 363 134 363 c 0
 209 363 247 364 278 385 c 0
 294 396 332 427 332 474 c 0
 332 506 292 522 279 527 c 0
 266 532 253 538 250 540 c 0
EndSplineSet
EndChar

StartChar: S
Encoding: 83 83 48
AltUni2: 01d47a.ffffffff.0 01d446.ffffffff.0 01d412.ffffffff.0
Width: 514
VWidth: 768
Flags: HW
AnchorPoint: "above" 249.5 609 basechar 0
LayerCount: 2
Fore
SplineSet
54 341 m 0
 51 341 46 372 46 390 c 0
 46 409 52 435 68 464 c 0
 90 503 90 504 131 540 c 0
 136 544 180 574 212 581 c 0
 219 583 228 585 232 587 c 0
 237 589 254 589 267 589 c 0
 293 589 282 586 291 586 c 0
 312 586 382 549 382 542 c 0
 382 540 389 535 389 530 c 0
 391 516 401 519 401 511 c 0
 401 505 390 478 377 478 c 0
 370 478 364 483 356 483 c 0
 349 483 349 486 347 486 c 0
 333 486 301 512 259 512 c 0
 189 512 125 429 125 400 c 0
 125 400 126 374 128 367 c 0
 129 362 134 361 137 364 c 0
 140 367 140 367 216 386 c 0
 259 397 273 399 301 399 c 0
 304 399 307 399 311 399 c 2
 341 399 l 1
 366 386 l 2
 421 355 453 312 453 222 c 0
 453 120 397 65 368 36 c 0
 366 34 324 -7 267 -7 c 0
 258 -7 248 -7 244 -7 c 0
 243 -7 l 0
 191 -7 105 68 93 92 c 0
 88 102 70 124 70 127 c 0
 70 130 64 133 64 136 c 0
 64 141 51 155 51 172 c 0
 51 187 75 204 82 204 c 0
 95 204 120 175 151 140 c 0
 196 89 221 71 263 71 c 0
 292 71 301 76 329 107 c 0
 359 141 375 159 375 234 c 0
 375 269 369 286 349 304 c 0
 331 321 326 323 305 323 c 0
 247 323 157 285 121 285 c 0
 90 285 62 314 58 332 c 0
 56 337 55 341 54 341 c 0
EndSplineSet
EndChar

StartChar: T
Encoding: 84 84 49
AltUni2: 01d47b.ffffffff.0 01d447.ffffffff.0 01d413.ffffffff.0
Width: 514
VWidth: 197
Flags: HW
AnchorPoint: "above" 247 631 basechar 0
LayerCount: 2
Fore
SplineSet
166 513 m 0
 144 512 114 498 63 498 c 0
 35 498 34 502 26 526 c 0
 23 534 22 539 22 542 c 0
 22 553 28 555 45 562 c 0
 88 581 128 580 144 586 c 0
 159 592 228 598 293 599 c 0
 362 600 402 600 414 607 c 0
 419 610 423 611 428 611 c 0
 440 611 448 601 453 601 c 0
 461 601 472 582 472 570 c 0
 472 564 470 569 464 555 c 0
 458 542 453 539 433 532 c 2
 415 526 l 1
 335 524 l 2
 247 522 252 521 251 521 c 0
 250 522 l 0
 247 522 247 509 247 277 c 0
 247 116 247 86 251 59 c 0
 252 55 252 52 252 49 c 0
 252 23 220 22 203 22 c 0
 190 22 185 25 181 34 c 0
 172 53 172 48 171 284 c 0
 171 407 171 508 170 510 c 0
 169 512 168 513 166 513 c 0
EndSplineSet
EndChar

StartChar: B
Encoding: 66 66 50
AltUni2: 01d469.ffffffff.0 01d435.ffffffff.0 01d401.ffffffff.0
Width: 514
VWidth: 162
Flags: HW
AnchorPoint: "above" 249.5 614 basechar 0
LayerCount: 2
Fore
SplineSet
108 564 m 0
 123 564 178 594 254 594 c 0
 314 594 334 575 342 575 c 0
 344 575 379 548 382 537 c 0
 384 528 391 525 391 521 c 0
 391 521 399 511 399 474 c 0
 399 416 331 351 331 350 c 0
 331 349 360 336 368 330 c 0
 371 328 375 326 376 326 c 0
 383 326 415 282 415 282 c 0
 418 280 449 215 449 157 c 0
 449 141 451 139 451 139 c 0
 451 137 442 40 356 2 c 0
 352 0 347 -3 346 -4 c 0
 335 -13 274 -21 258 -21 c 0
 242 -21 220 -20 219 -18 c 0
 217 -15 184 -11 165 -1 c 0
 157 3 156 3 152 4 c 0
 146 4 135 26 124 21 c 0
 116 18 116 23 114 20 c 0
 112 17 103 14 98 14 c 0
 93 15 87 17 76 26 c 0
 65 35 63 41 63 57 c 0
 63 60 63 68 63 98 c 0
 63 183 61 339 60 340 c 0
 59 341 53 435 53 455 c 0
 52 485 48 474 48 492 c 0
 48 502 51 511 52 536 c 0
 53 562 54 568 92 568 c 0
 104 568 102 564 108 564 c 0
156 288 m 0
 156 293 141 285 141 322 c 0
 141 338 142 344 149 349 c 0
 181 376 191 340 269 398 c 0
 276 404 284 411 285 413 c 0
 286 415 292 423 298 430 c 0
 312 447 320 465 320 480 c 0
 320 502 306 507 292 512 c 0
 279 517 265 519 249 519 c 0
 217 519 158 507 138 500 c 2
 123 495 l 1
 124 484 l 2
 125 466 127 482 130 437 c 0
 131 420 133 405 133 404 c 0
 135 401 139 262 140 181 c 2
 141 94 l 1
 149 96 151 97 158 97 c 0
 184 97 169 56 261 56 c 0
 292 56 297 57 319 67 c 0
 361 87 374 128 374 142 c 0
 374 157 372 221 334 260 c 0
 309 286 245 287 233 287 c 0
 217 287 195 282 177 282 c 0
 161 282 156 288 156 288 c 0
EndSplineSet
EndChar

StartChar: U
Encoding: 85 85 51
AltUni2: 01d47c.ffffffff.0 01d448.ffffffff.0 01d414.ffffffff.0
Width: 514
VWidth: 776
Flags: HW
AnchorPoint: "above" 247.5 609 basechar 0
LayerCount: 2
Fore
SplineSet
337 586 m 0
 345 586 342 589 353 589 c 0
 357 589 364 589 373 588 c 0
 377 588 402 567 405 552 c 0
 407 543 435 458 441 374 c 0
 442 358 445 368 445 318 c 0
 445 317 443 229 434 207 c 0
 433 205 431 198 429 192 c 0
 417 154 373 81 340 47 c 0
 336 43 328 35 323 29 c 0
 313 18 288 -3 285 -3 c 0
 281 -3 238 -31 214 -31 c 0
 132 -31 97 33 97 34 c 0
 97 36 64 97 58 143 c 0
 58 147 56 155 55 162 c 0
 51 186 50 212 50 249 c 0
 50 251 52 415 65 448 c 0
 66 450 67 458 67 464 c 0
 67 487 82 547 102 557 c 2
 109 560 l 1
 129 550 l 2
 146 542 153 537 153 532 c 0
 153 530 151 530 150 516 c 0
 146 450 140 482 140 456 c 0
 140 450 127 349 127 261 c 0
 127 260 128 192 141 127 c 0
 141 126 160 60 190 50 c 0
 196 48 200 47 205 47 c 0
 248 47 349 155 364 255 c 0
 366 267 367 291 367 311 c 0
 367 371 340 511 335 511 c 0
 331 511 318 525 318 552 c 0
 318 571 325 586 337 586 c 0
EndSplineSet
EndChar

StartChar: V
Encoding: 86 86 52
AltUni2: 01d47d.ffffffff.0 01d449.ffffffff.0 01d415.ffffffff.0
Width: 514
VWidth: 179
Flags: HW
AnchorPoint: "above" 247.5 628.335 basechar 0
LayerCount: 2
Fore
SplineSet
22 566 m 0
 22 578 57 597 63 597 c 0
 64 597 66 597 68 597 c 2
 77 596 l 1
 90 578 l 2
 105 555 113 538 115 522 c 0
 116 513 123 488 126 471 c 0
 135 428 146 389 158 327 c 0
 174 246 190 182 201 155 c 0
 205 146 208 139 209 138 c 0
 209 137 232 204 242 226 c 0
 246 234 248 242 248 244 c 0
 248 245 281 311 308 381 c 0
 348 487 365 525 392 569 c 0
 395 574 398 580 398 583 c 0
 398 589 402 600 404 600 c 0
 411 600 399 606 429 607 c 0
 439 608 448 607 448 608 c 0
 448 608 473 615 473 565 c 0
 473 548 430 493 408 429 c 0
 400 407 394 396 383 364 c 0
 364 309 333 253 327 231 c 0
 322 211 315 206 299 159 c 0
 294 143 289 129 288 128 c 0
 287 127 268 40 259 22 c 0
 250 3 238 8 234 2 c 0
 233 1 229 -2 220 -2 c 0
 208 -2 181 18 181 26 c 0
 181 28 180 31 178 32 c 0
 169 39 119 149 119 162 c 0
 119 163 100 215 100 227 c 0
 100 229 89 264 86 289 c 0
 86 291 48 489 33 520 c 0
 33 520 22 543 22 566 c 0
EndSplineSet
EndChar

StartChar: W
Encoding: 87 87 53
AltUni2: 01d47e.ffffffff.0 01d44a.ffffffff.0 01d416.ffffffff.0
Width: 514
VWidth: 203
Flags: HW
AnchorPoint: "above" 247 622 basechar 0
LayerCount: 2
Fore
SplineSet
144 35 m 0
 97 35 67 97 67 98 c 0
 67 102 56 123 50 141 c 0
 21 226 6 427 -17 506 c 0
 -28 546 -28 546 -28 553 c 0
 -28 559 -27 564 -25 567 c 0
 -18 575 4 592 9 592 c 0
 15 592 16 591 34 570 c 0
 56 544 60 537 60 527 c 0
 60 512 77 462 80 415 c 0
 81 399 86 363 86 358 c 0
 85 339 114 180 132 140 c 2
 140 123 l 1
 150 142 l 2
 165 170 175 185 186 193 c 0
 191 197 197 201 198 203 c 0
 200 206 205 206 223 206 c 2
 244 206 l 1
 253 198 l 2
 258 194 263 191 264 190 c 0
 268 189 322 125 327 125 c 0
 329 125 368 168 397 334 c 0
 425 486 425 486 433 510 c 0
 441 533 444 545 444 554 c 0
 444 557 444 560 443 562 c 0
 439 578 452 587 453 587 c 0
 462 589 462 602 484 602 c 0
 502 602 522 585 522 561 c 0
 522 533 500 476 493 429 c 0
 493 426 467 259 436 174 c 0
 418 121 397 92 397 91 c 0
 395 86 371 61 366 59 c 0
 363 58 359 55 356 53 c 0
 351 49 337 48 321 48 c 0
 299 48 312 52 305 52 c 0
 301 52 270 72 270 74 c 0
 270 75 268 77 267 77 c 0
 264 77 226 120 224 120 c 0
 223 120 217 107 209 92 c 0
 201 75 181 35 144 35 c 0
EndSplineSet
EndChar

StartChar: X
Encoding: 88 88 54
AltUni2: 01d47f.ffffffff.0 01d44b.ffffffff.0 01d417.ffffffff.0
Width: 514
VWidth: 777
Flags: HW
AnchorPoint: "above" 246.931 618 basechar 0
LayerCount: 2
Fore
SplineSet
99 21 m 2
 97 21 88 16 84 16 c 0
 79 16 44 39 43 43 c 0
 42 45 42 47 42 50 c 0
 42 60 47 72 55 86 c 0
 62 97 75 122 89 146 c 0
 94 155 152 256 153 257 c 2
 188 316 l 1
 177 337 l 2
 171 348 165 359 165 360 c 0
 165 361 140 401 108 464 c 0
 95 490 102 471 63 550 c 0
 61 554 61 554 63 570 c 0
 66 588 101 598 101 598 c 0
 105 598 114 593 118 587 c 0
 121 583 127 576 131 572 c 0
 149 554 192 465 199 454 c 0
 200 453 208 439 217 422 c 2
 234 391 l 1
 257 430 l 2
 258 431 336 555 337 559 c 0
 341 596 380 597 381 597 c 0
 407 597 403 582 412 578 c 0
 418 575 420 571 420 561 c 0
 420 546 418 543 392 503 c 0
 321 396 287 332 278 319 c 0
 278 318 277 318 277 317 c 0
 277 315 311 247 381 155 c 0
 429 93 428 82 440 66 c 0
 445 59 446 49 450 38 c 0
 457 20 442 12 442 12 c 0
 436 12 416 -2 406 -2 c 0
 406 -2 386 -2 379 14 c 0
 347 87 306 117 247 216 c 0
 239 229 233 240 232 240 c 0
 228 240 108 21 101 21 c 2
 99 21 l 2
EndSplineSet
EndChar

StartChar: Y
Encoding: 89 89 55
AltUni2: 01d480.ffffffff.0 01d44c.ffffffff.0 01d418.ffffffff.0
Width: 514
VWidth: 734
Flags: HW
AnchorPoint: "above" 247.5 586 basechar 0
LayerCount: 2
Fore
SplineSet
428 564 m 0
 443 564 452 566 452 566 c 0
 472 566 478 533 478 533 c 0
 478 532 477 500 446 459 c 0
 411 412 327 302 294 246 c 0
 274 213 281 167 275 148 c 0
 273 142 268 74 268 43 c 0
 268 22 265 13 258 10 c 0
 254 9 219 3 212 3 c 0
 205 3 197 11 196 19 c 0
 192 47 190 58 190 70 c 0
 190 72 203 213 206 224 c 0
 208 231 207 231 200 238 c 0
 191 246 176 268 167 283 c 0
 146 320 68 434 62 438 c 0
 58 440 17 505 17 525 c 0
 17 548 33 552 47 557 c 2
 62 562 l 1
 70 558 l 2
 79 553 85 547 95 527 c 0
 125 470 140 472 231 322 c 0
 238 311 243 305 243 305 c 1
 243 307 281 365 285 368 c 0
 286 369 352 459 353 460 c 0
 395 517 401 526 401 536 c 0
 402 548 402 549 406 554 c 0
 411 559 422 564 428 564 c 0
EndSplineSet
EndChar

StartChar: Z
Encoding: 90 90 56
AltUni2: 01d481.ffffffff.0 01d44d.ffffffff.0 01d419.ffffffff.0
Width: 514
VWidth: 750
Flags: HW
AnchorPoint: "above" 247.5 603 basechar 0
LayerCount: 2
Fore
SplineSet
335 579 m 0
 343 579 345 583 388 583 c 0
 410 583 455 567 455 564 c 0
 455 561 468 558 468 547 c 0
 468 539 472 534 472 525 c 0
 472 506 461 500 461 495 c 0
 461 494 456 485 450 476 c 0
 424 438 294 318 222 232 c 0
 212 220 198 204 193 198 c 0
 173 176 124 109 124 105 c 0
 124 104 127 104 133 104 c 0
 183 104 195 111 298 111 c 0
 301 111 450 111 458 105 c 0
 463 101 469 75 469 62 c 0
 469 36 426 32 401 32 c 0
 368 32 331 37 303 37 c 0
 291 37 121 27 73 27 c 0
 53 27 44 29 40 34 c 0
 28 48 23 55 23 64 c 0
 23 75 38 122 83 180 c 0
 141 255 176 301 264 390 c 0
 283 410 372 502 372 505 c 0
 372 506 371 506 366 506 c 0
 323 506 196 483 161 480 c 0
 137 478 82 468 75 468 c 0
 59 468 58 469 47 491 c 0
 42 500 40 507 40 513 c 0
 40 521 41 525 69 539 c 0
 85 547 93 549 100 550 c 0
 168 555 298 578 335 579 c 0
EndSplineSet
EndChar

StartChar: C
Encoding: 67 67 57
AltUni2: 01d46a.ffffffff.0 01d436.ffffffff.0 01d402.ffffffff.0
Width: 514
VWidth: 802
Flags: HW
AnchorPoint: "above" 255 639 basechar 0
LayerCount: 2
Fore
SplineSet
52 252 m 0
 52 302 76 371 76 372 c 0
 76 391 158 566 228 601 c 0
 240 607 264 619 286 619 c 0
 302 619 320 615 326 611 c 0
 329 609 354 601 375 585 c 0
 384 578 401 560 404 554 c 0
 422 522 422 523 422 512 c 0
 422 496 393 484 393 484 c 0
 389 483 379 486 379 488 c 0
 379 489 378 490 376 490 c 0
 367 490 326 542 284 542 c 0
 257 542 188 468 155 366 c 0
 149 349 144 332 143 330 c 0
 136 314 128 263 128 234 c 0
 128 199 128 119 190 88 c 0
 199 83 204 81 228 81 c 0
 249 81 273 86 289 92 c 0
 351 117 398 166 406 167 c 0
 412 168 416 173 423 173 c 0
 429 173 459 157 459 138 c 0
 459 110 406 70 405 70 c 0
 402 70 379 56 374 51 c 0
 365 44 301 14 293 14 c 0
 285 14 274 5 236 5 c 0
 213 5 188 8 171 14 c 0
 124 31 86 71 68 125 c 0
 66 131 63 137 62 138 c 0
 62 139 51 160 51 203 c 0
 51 213 51 223 51 229 c 0
 51 231 52 242 52 252 c 0
EndSplineSet
EndChar

StartChar: D
Encoding: 68 68 58
AltUni2: 01d46b.ffffffff.0 01d437.ffffffff.0 01d403.ffffffff.0
Width: 514
VWidth: 767
Flags: HW
AnchorPoint: "above" 249.273 616 basechar 0
LayerCount: 2
Fore
SplineSet
29 95 m 0
 29 99 45 363 45 499 c 0
 45 500 45 501 45 503 c 0
 45 512 44 518 44 522 c 0
 44 534 48 541 65 565 c 0
 75 579 76 580 82 581 c 0
 91 581 100 587 117 591 c 0
 137 595 137 596 151 596 c 0
 206 596 249 588 281 572 c 0
 293 566 302 566 329 549 c 0
 340 542 350 537 351 537 c 0
 353 537 372 520 374 520 c 0
 377 520 392 503 395 503 c 0
 396 503 398 500 400 498 c 0
 413 477 419 484 442 438 c 0
 458 406 458 407 460 399 c 0
 462 387 463 392 465 372 c 0
 467 349 471 357 469 350 c 0
 464 326 471 317 456 273 c 0
 451 259 447 245 446 242 c 0
 442 228 419 196 419 195 c 0
 419 192 412 186 412 182 c 0
 412 180 359 114 279 75 c 0
 268 69 258 63 257 62 c 0
 250 53 162 27 139 27 c 0
 127 27 122 23 99 23 c 0
 88 23 79 24 74 26 c 0
 70 28 64 29 61 30 c 0
 38 35 41 48 37 48 c 0
 36 48 34 50 32 54 c 0
 30 59 29 67 29 95 c 0
273 495 m 0
 272 495 211 527 152 527 c 0
 130 527 112 521 112 516 c 0
 112 515 120 500 120 409 c 0
 120 406 114 139 107 115 c 0
 106 111 105 108 105 106 c 0
 105 103 108 101 112 101 c 0
 123 101 161 109 176 115 c 0
 250 142 271 150 327 205 c 0
 342 220 364 251 371 266 c 0
 375 276 389 322 389 348 c 0
 389 362 387 377 383 383 c 0
 382 385 378 392 376 398 c 0
 371 410 351 435 337 446 c 0
 332 450 322 460 315 466 c 0
 304 475 276 495 273 495 c 0
EndSplineSet
EndChar

StartChar: E
Encoding: 69 69 59
AltUni2: 01d46c.ffffffff.0 01d438.ffffffff.0 01d404.ffffffff.0
Width: 514
VWidth: 169
Flags: HW
AnchorPoint: "above" 250 615 basechar 0
LayerCount: 2
Fore
SplineSet
55 125 m 0
 55 183 59 427 59 430 c 0
 59 457 59 458 49 462 c 0
 37 466 30 480 30 497 c 0
 30 502 31 533 54 547 c 0
 59 550 65 553 68 555 c 0
 80 564 130 578 173 583 c 0
 225 590 270 595 355 595 c 0
 395 595 404 593 411 586 c 0
 413 583 416 581 417 581 c 0
 417 581 430 580 430 550 c 0
 430 541 425 538 425 538 c 0
 424 538 423 535 423 533 c 0
 423 513 369 512 363 509 c 0
 361 508 358 507 356 507 c 0
 349 507 346 511 341 518 c 1
 307 517 l 2
 236 515 135 500 133 500 c 0
 130 500 135 485 136 465 c 0
 136 449 140 438 140 425 c 0
 140 418 137 423 137 395 c 2
 137 373 l 1
 138 373 210 384 225 384 c 0
 277 384 288 378 305 368 c 0
 313 364 311 359 318 352 c 0
 327 341 323 314 322 313 c 0
 315 299 300 293 294 282 c 0
 291 277 289 274 284 274 c 0
 284 274 259 278 255 292 c 0
 254 294 254 294 254 304 c 0
 254 307 250 309 242 309 c 0
 241 309 137 297 136 296 c 0
 134 294 132 212 132 150 c 0
 132 114 133 85 134 83 c 0
 135 81 136 77 136 75 c 2
 136 71 l 1
 148 73 l 2
 150 73 295 106 334 114 c 0
 346 116 365 118 383 119 c 2
 413 120 l 1
 426 114 l 2
 451 103 458 111 466 100 c 0
 469 96 470 94 470 89 c 0
 470 78 470 46 440 50 c 0
 432 51 429 51 424 48 c 0
 411 40 368 46 336 36 c 0
 330 34 199 4 190 4 c 0
 185 4 127 -13 83 -13 c 0
 74 -13 49 -13 49 35 c 0
 49 59 61 41 56 64 c 0
 55 69 55 90 55 125 c 0
EndSplineSet
EndChar

StartChar: F
Encoding: 70 70 60
AltUni2: 01d46d.ffffffff.0 01d439.ffffffff.0 01d405.ffffffff.0
Width: 514
VWidth: 746
Flags: HW
AnchorPoint: "above" 249.5 600 basechar 0
LayerCount: 2
Fore
SplineSet
466 526 m 0
 466 522 461 483 439 483 c 0
 439 483 317 487 313 489 c 0
 312 490 213 503 197 503 c 0
 182 503 181 499 175 489 c 0
 163 468 144 361 141 317 c 2
 140 297 l 1
 149 298 l 2
 150 298 270 309 273 309 c 0
 273 309 313 306 317 304 c 0
 322 301 332 281 332 272 c 0
 332 266 324 257 321 257 c 0
 315 257 311 238 269 233 c 0
 221 227 222 227 175 223 c 2
 132 220 l 1
 129 188 l 2
 129 187 114 61 103 49 c 0
 98 43 103 39 91 33 c 0
 87 31 85 30 81 30 c 0
 78 30 74 31 68 32 c 0
 52 35 33 38 33 60 c 0
 33 94 46 145 51 201 c 0
 64 357 66 373 77 429 c 0
 89 491 100 511 115 542 c 0
 115 543 139 580 187 580 c 0
 217 580 273 575 290 570 c 0
 304 565 440 560 449 554 c 0
 451 553 453 551 455 551 c 0
 459 551 466 535 466 526 c 0
EndSplineSet
EndChar

StartChar: G
Encoding: 71 71 61
AltUni2: 01d46e.ffffffff.0 01d43a.ffffffff.0 01d406.ffffffff.0
Width: 514
VWidth: 750
Flags: HW
AnchorPoint: "above" 250 601 basechar 0
LayerCount: 2
Fore
SplineSet
196 575 m 0
 204 575 192 581 233 581 c 0
 253 581 275 580 289 576 c 0
 361 557 408 535 409 534 c 0
 410 533 416 530 421 528 c 0
 427 526 440 520 440 502 c 0
 440 492 424 463 421 461 c 0
 418 460 412 459 408 459 c 0
 390 459 275 507 246 507 c 0
 243 507 215 505 202 497 c 0
 193 492 169 470 169 467 c 0
 169 465 145 429 144 423 c 0
 144 419 125 384 122 359 c 0
 121 347 115 328 115 311 c 0
 115 310 117 267 123 237 c 0
 132 190 132 190 141 171 c 0
 152 149 154 147 171 132 c 0
 187 118 218 96 260 96 c 0
 302 96 358 162 374 208 c 0
 377 216 385 254 385 260 c 0
 385 263 364 267 345 267 c 0
 320 267 297 262 271 262 c 0
 261 262 239 262 239 311 c 0
 239 323 249 329 251 329 c 0
 253 329 254 330 254 331 c 0
 254 335 318 343 350 343 c 0
 371 343 395 340 399 337 c 0
 402 335 412 333 423 327 c 0
 427 325 434 321 438 320 c 0
 444 318 450 309 450 303 c 0
 450 303 461 296 461 258 c 0
 461 223 443 166 439 163 c 0
 437 162 428 142 418 128 c 0
 414 123 411 118 411 117 c 0
 411 109 346 44 338 44 c 0
 328 44 314 20 258 20 c 0
 215 20 177 38 176 39 c 0
 174 41 162 43 154 49 c 0
 151 51 145 55 141 57 c 0
 130 63 93 100 88 110 c 0
 87 112 86 114 85 114 c 0
 83 114 75 135 70 141 c 0
 53 160 39 261 39 289 c 0
 39 299 46 387 52 387 c 0
 53 387 53 389 53 390 c 0
 53 394 60 412 62 420 c 0
 65 438 111 517 128 533 c 0
 144 548 188 575 196 575 c 0
EndSplineSet
EndChar

StartChar: H
Encoding: 72 72 62
AltUni2: 01d46f.ffffffff.0 01d43b.ffffffff.0 01d407.ffffffff.0
Width: 514
VWidth: 196
Flags: HW
AnchorPoint: "above" 250 640 basechar 0
LayerCount: 2
Fore
SplineSet
359 592 m 0
 359 620 410 620 411 620 c 0
 445 620 447 519 447 494 c 0
 447 445 430 305 430 169 c 0
 430 82 450 77 450 61 c 0
 450 56 437 25 407 25 c 0
 385 25 371 51 371 51 c 0
 371 55 360 72 357 101 c 0
 357 106 355 115 354 123 c 0
 353 132 352 159 352 189 c 0
 352 245 352 251 357 323 c 0
 356 324 182 299 169 299 c 0
 165 299 161 300 157 300 c 2
 138 301 l 1
 139 262 l 2
 143 136 161 38 159 38 c 0
 157 38 158 31 149 28 c 0
 138 24 124 15 113 15 c 0
 99 15 84 32 83 34 c 0
 80 38 75 59 75 70 c 0
 75 83 71 82 70 119 c 0
 70 121 64 195 60 289 c 0
 60 291 50 480 50 511 c 0
 50 549 52 549 80 558 c 0
 89 561 95 562 100 562 c 0
 110 562 113 555 120 534 c 0
 130 503 135 460 135 405 c 2
 135 377 l 1
 150 377 l 2
 164 377 276 389 278 390 c 0
 281 391 357 404 363 404 c 0
 364 404 365 403 365 424 c 0
 365 436 366 521 366 522 c 0
 366 557 359 575 359 592 c 0
EndSplineSet
EndChar

StartChar: I
Encoding: 73 73 63
AltUni2: 01d470.ffffffff.0 01d43c.ffffffff.0 01d408.ffffffff.0
Width: 514
VWidth: 793
Flags: HW
AnchorPoint: "above" 247 631.405 basechar 0
LayerCount: 2
Fore
SplineSet
172 507 m 2
 101 507 86 513 86 554 c 0
 86 565 89 568 102 577 c 2
 110 583 l 1
 152 583 l 2
 208 583 304 589 306 592 c 0
 307 593 315 593 325 593 c 0
 368 593 377 605 388 606 c 0
 396 607 407 613 411 611 c 0
 412 610 414 609 415 609 c 0
 422 609 442 576 442 571 c 0
 442 564 436 548 432 546 c 0
 418 539 434 536 396 526 c 0
 363 518 335 515 301 514 c 2
 290 513 l 1
 290 475 l 2
 290 451 276 211 274 155 c 0
 273 127 272 117 270 115 c 0
 267 113 266 101 269 99 c 0
 269 99 295 104 317 104 c 0
 318 104 383 103 391 97 c 0
 393 95 398 92 401 91 c 0
 410 88 415 72 417 72 c 0
 420 72 427 48 420 37 c 0
 416 30 414 20 413 22 c 0
 412 23 400 9 379 9 c 0
 371 9 364 21 354 25 c 0
 351 26 338 27 327 27 c 0
 292 27 326 25 264 21 c 0
 263 21 170 13 170 13 c 0
 165 10 175 18 157 14 c 0
 151 13 145 12 144 12 c 0
 77 12 66 25 62 25 c 0
 62 25 52 28 52 45 c 0
 52 70 52 85 70 86 c 0
 86 88 86 91 99 91 c 0
 111 91 126 89 145 89 c 0
 151 89 157 89 164 89 c 0
 189 91 190 92 191 103 c 0
 198 173 205 323 205 325 c 0
 210 387 213 424 213 454 c 0
 213 467 213 478 212 490 c 2
 210 507 l 1
 172 507 l 2
EndSplineSet
EndChar

StartChar: J
Encoding: 74 74 64
AltUni2: 01d471.ffffffff.0 01d43d.ffffffff.0 01d409.ffffffff.0
Width: 514
VWidth: 759
Flags: HW
AnchorPoint: "above" 247 609 basechar 0
LayerCount: 2
Fore
SplineSet
231 485 m 0
 221 485 179 473 158 473 c 0
 139 473 116 477 106 484 c 0
 99 489 96 492 96 501 c 0
 96 542 106 546 153 550 c 0
 277 561 330 589 416 589 c 0
 483 589 493 588 493 566 c 0
 493 561 492 553 491 541 c 0
 489 523 488 514 464 514 c 0
 464 514 443 515 442 515 c 0
 381 515 309 501 309 497 c 0
 309 496 330 414 330 376 c 0
 330 348 333 366 333 328 c 0
 333 249 315 199 315 198 c 0
 315 176 274 113 275 113 c 0
 280 113 240 70 229 62 c 0
 225 60 222 57 221 56 c 0
 214 46 158 22 118 22 c 0
 93 22 45 51 44 51 c 0
 44 51 1 87 1 122 c 0
 1 148 9 150 28 155 c 0
 37 157 43 158 47 158 c 0
 56 158 68 143 70 139 c 0
 78 125 90 113 105 105 c 2
 120 97 l 1
 138 102 l 2
 165 108 171 110 193 133 c 0
 229 169 239 198 251 262 c 0
 256 287 256 303 256 320 c 0
 256 350 252 399 249 411 c 0
 241 445 236 485 231 485 c 0
EndSplineSet
EndChar

StartChar: E_A
Encoding: 1114115 -1 65
Width: 514
VWidth: 873
Flags: HW
LayerCount: 2
Fore
SplineSet
-125 568 m 0
 -123 568 -94 581 -91 581 c 0
 -88 581 -50 596 -47 594 c 0
 -46 593 9 615 64 615 c 0
 71 615 154 615 159 607 c 0
 161 604 168 604 169 599 c 0
 170 597 171 595 172 595 c 0
 173 595 174 591 174 587 c 0
 174 575 181 573 178 568 c 0
 176 565 176 564 176 561 c 0
 176 558 167 556 167 552 c 0
 167 550 158 537 132 537 c 0
 124 537 119 541 92 541 c 0
 -11 541 -103 493 -104 492 c 0
 -105 491 -98 472 -99 470 c 0
 -100 466 -92 451 -89 401 c 0
 -86 361 -87 362 -80 362 c 0
 -69 362 -34 371 4 371 c 0
 40 371 52 362 66 350 c 0
 84 334 70 317 71 311 c 0
 72 307 66 298 62 298 c 0
 58 298 55 287 44 287 c 0
 28 286 24 286 20 290 c 0
 15 295 10 296 7 296 c 0
 -29 296 -65 287 -81 290 c 1
 -81 266 l 2
 -77 115 -77 114 -73 104 c 1
 -63 108 l 2
 -58 110 -52 112 -50 113 c 0
 -39 119 78 149 139 149 c 0
 177 149 205 136 206 136 c 0
 210 136 215 202 219 224 c 0
 220 230 222 244 224 256 c 0
 232 303 250 372 250 373 c 0
 250 376 261 411 263 414 c 0
 268 422 289 490 326 545 c 0
 338 562 362 588 366 588 c 0
 369 588 381 599 385 599 c 0
 389 599 395 607 404 607 c 0
 412 607 412 609 417 609 c 0
 424 609 439 606 442 604 c 0
 442 604 469 597 494 578 c 0
 498 575 502 572 502 573 c 0
 502 574 532 545 542 534 c 0
 609 462 654 328 654 301 c 0
 655 281 667 290 667 164 c 0
 667 163 667 80 666 75 c 0
 665 70 648 55 642 54 c 0
 639 53 635 51 633 50 c 0
 622 43 608 57 604 57 c 0
 597 57 588 75 588 89 c 0
 588 102 591 91 591 155 c 0
 591 226 588 240 581 274 c 0
 578 288 573 326 572 326 c 0
 571 326 563 318 557 313 c 0
 553 309 409 305 388 299 c 0
 381 296 355 292 343 286 c 0
 338 284 332 282 331 282 c 0
 329 282 322 280 316 278 c 0
 303 274 304 275 301 252 c 0
 301 251 290 186 285 134 c 0
 282 99 279 71 258 71 c 0
 249 71 225 75 216 75 c 0
 205 75 207 70 189 70 c 0
 173 70 166 73 140 73 c 0
 100 73 29 58 28 57 c 0
 27 56 -83 23 -108 23 c 0
 -134 23 -136 52 -136 52 c 0
 -136 55 -147 65 -148 73 c 0
 -154 98 -157 394 -173 450 c 0
 -175 457 -176 465 -176 469 c 0
 -175 484 -195 487 -193 506 c 0
 -191 531 -177 530 -177 536 c 0
 -177 537 -135 568 -125 568 c 0
531 420 m 0
 488 497 436 531 424 531 c 0
 392 531 353 437 352 432 c 0
 351 420 336 395 336 395 c 0
 337 395 335 388 332 379 c 2
 326 363 l 1
 357 367 344 368 369 371 c 0
 387 373 403 378 435 379 c 0
 470 380 444 384 506 384 c 0
 530 384 549 384 549 385 c 0
 549 387 540 404 531 420 c 0
EndSplineSet
EndChar

StartChar: C_O
Encoding: 1114116 -1 66
Width: 514
VWidth: 810
Flags: HW
LayerCount: 2
Fore
SplineSet
25 581 m 0
 26 581 54 595 75 595 c 0
 113 595 123 586 158 559 c 0
 163 555 169 548 172 544 c 0
 177 536 191 497 191 491 c 0
 191 481 159 454 146 463 c 0
 144 465 141 466 141 467 c 0
 141 469 117 493 114 499 c 0
 112 504 83 521 78 521 c 0
 71 521 53 511 43 500 c 0
 23 479 -4 431 -14 398 c 0
 -21 374 -33 334 -33 273 c 0
 -33 190 -18 197 -14 168 c 0
 -12 159 1 141 19 124 c 0
 36 107 37 106 53 100 c 2
 70 94 l 1
 104 94 l 2
 185 94 204 121 214 121 c 0
 222 121 227 136 245 123 c 0
 252 118 257 118 250 123 c 0
 248 125 211 184 211 262 c 0
 211 368 236 402 236 418 c 0
 236 423 247 449 250 452 c 0
 255 457 262 476 280 503 c 0
 290 519 315 547 318 547 c 0
 321 547 354 580 394 580 c 0
 436 580 449 544 471 537 c 0
 484 533 483 529 486 529 c 0
 488 529 506 516 508 516 c 0
 514 516 567 457 585 413 c 0
 594 390 608 354 608 288 c 0
 608 263 602 260 600 250 c 0
 594 215 571 186 571 185 c 0
 571 184 571 182 570 182 c 0
 569 182 522 120 484 99 c 0
 456 83 429 67 410 64 c 0
 410 64 434 67 370 58 c 0
 356 56 359 60 347 60 c 0
 339 60 322 64 320 67 c 0
 318 69 287 83 286 85 c 0
 284 88 264 104 263 104 c 0
 262 104 262 103 262 102 c 0
 262 99 255 91 254 85 c 0
 252 71 250 67 242 59 c 0
 228 45 177 18 120 18 c 0
 86 18 35 24 27 30 c 0
 26 31 -11 45 -43 78 c 0
 -52 87 -59 95 -59 96 c 0
 -59 97 -96 154 -96 173 c 0
 -96 189 -109 186 -109 268 c 0
 -109 324 -109 324 -92 398 c 0
 -85 431 -62 482 -29 532 c 0
 -19 548 17 581 25 581 c 0
406 463 m 0
 392 463 375 492 371 492 c 0
 369 492 347 467 341 458 c 0
 332 445 312 409 311 403 c 0
 308 386 286 337 286 276 c 0
 286 263 288 133 366 133 c 0
 418 133 494 186 519 250 c 0
 525 265 528 264 529 269 c 0
 529 275 531 280 531 294 c 0
 531 385 482 439 477 439 c 0
 477 439 459 430 449 430 c 0
 438 430 440 442 434 445 c 0
 429 448 420 467 418 467 c 0
 415 466 411 463 406 463 c 0
EndSplineSet
EndChar

StartChar: C_R
Encoding: 1114117 -1 67
Width: 514
VWidth: 833
Flags: HW
LayerCount: 2
Fore
SplineSet
367 611 m 0
 367 611 374 617 402 617 c 0
 441 617 475 606 479 600 c 0
 481 597 516 585 542 564 c 0
 550 558 557 553 558 553 c 0
 560 553 566 544 568 545 c 0
 570 546 575 535 577 535 c 0
 578 535 605 497 607 477 c 0
 608 471 610 464 611 462 c 0
 612 461 615 449 603 410 c 0
 598 392 573 359 573 358 c 0
 573 354 540 325 525 317 c 0
 516 312 506 306 502 303 c 0
 494 298 449 282 431 279 c 1
 438 273 l 2
 447 265 485 237 486 237 c 0
 490 237 539 191 543 183 c 0
 546 176 546 180 561 157 c 0
 566 149 571 143 572 142 c 0
 574 141 589 103 589 100 c 0
 589 96 602 44 599 44 c 0
 598 44 598 41 599 38 c 0
 600 33 599 30 593 24 c 0
 586 16 585 15 556 13 c 2
 542 12 l 1
 534 20 l 2
 529 24 527 28 527 31 c 0
 527 33 525 47 521 61 c 0
 509 107 494 129 453 165 c 0
 427 188 363 237 343 249 c 0
 322 262 310 276 310 276 c 0
 309 276 305 185 305 128 c 0
 305 110 305 100 306 100 c 0
 307 100 307 99 311 76 c 0
 312 69 302 46 285 46 c 0
 276 45 274 41 266 41 c 0
 255 41 242 49 234 63 c 0
 225 78 231 133 227 133 c 0
 224 133 214 106 214 101 c 0
 214 95 180 39 76 39 c 0
 33 39 -6 56 -6 59 c 0
 -6 61 -82 94 -102 207 c 0
 -105 226 -107 245 -107 258 c 0
 -107 271 -104 278 -104 293 c 0
 -104 308 -98 342 -92 361 c 0
 -75 416 -64 439 -28 488 c 0
 -18 502 14 536 18 536 c 0
 26 536 56 572 107 572 c 0
 115 572 140 569 146 563 c 0
 149 560 175 545 175 537 c 0
 175 535 185 524 186 522 c 0
 186 522 191 502 191 477 c 0
 191 462 179 442 179 434 c 0
 179 429 173 430 173 427 c 0
 173 427 166 412 154 412 c 0
 138 412 124 421 128 427 c 0
 130 431 126 425 125 456 c 0
 125 473 124 476 119 486 c 0
 113 496 112 496 106 496 c 0
 87 495 63 479 41 453 c 0
 20 428 -30 368 -30 260 c 0
 -30 229 -30 210 -15 177 c 0
 -5 153 20 115 75 115 c 0
 118 115 161 136 161 135 c 0
 161 134 168 142 178 142 c 0
 191 142 198 159 205 159 c 0
 207 159 214 155 219 150 c 2
 228 142 l 1
 230 173 l 2
 231 190 231 218 231 236 c 0
 231 251 233 290 233 291 c 0
 233 373 227 428 227 429 c 0
 227 431 227 442 227 446 c 0
 227 448 226 478 226 478 c 0
 226 517 234 519 254 523 c 0
 269 526 271 527 275 533 c 0
 312 588 364 611 367 611 c 0
533 456 m 0
 533 488 452 544 400 544 c 0
 379 544 338 516 314 467 c 0
 311 461 307 455 306 454 c 0
 305 453 305 447 305 439 c 0
 305 408 311 395 309 389 c 0
 308 387 308 380 308 370 c 0
 308 366 308 362 308 358 c 2
 309 331 l 1
 321 343 322 344 358 346 c 0
 359 346 398 348 416 353 c 0
 451 364 471 371 481 377 c 0
 494 385 516 406 524 419 c 0
 529 426 533 446 533 456 c 0
EndSplineSet
EndChar

StartChar: O_C_H
Encoding: 1114118 -1 68
Width: 514
VWidth: 943
Flags: HW
LayerCount: 2
Fore
SplineSet
116 314 m 1
 129 417 204 524 204 526 c 0
 204 531 250 580 255 580 c 0
 260 580 271 592 296 594 c 0
 326 596 339 592 362 569 c 0
 377 554 387 537 387 530 c 0
 387 519 400 522 400 482 c 0
 400 467 398 465 383 458 c 0
 369 452 367 452 355 464 c 0
 342 475 342 483 336 485 c 0
 329 487 318 528 300 518 c 0
 270 501 220 417 202 352 c 0
 196 330 187 300 187 241 c 0
 187 201 190 188 201 156 c 0
 210 130 212 128 231 109 c 0
 257 82 267 81 298 81 c 0
 373 81 401 113 430 115 c 0
 440 116 453 134 463 134 c 2
 468 134 l 1
 469 177 l 2
 470 219 472 275 472 282 c 0
 472 305 466 297 466 325 c 0
 466 334 467 343 469 346 c 0
 472 350 473 355 473 381 c 0
 473 421 470 431 470 476 c 0
 470 557 470 558 507 558 c 0
 525 558 527 558 532 553 c 0
 535 550 537 545 537 543 c 0
 537 542 545 530 548 414 c 2
 549 362 l 1
 556 361 560 360 676 360 c 0
 709 360 736 360 736 360 c 0
 737 361 754 502 756 525 c 0
 759 568 766 574 777 586 c 1
 797 585 l 2
 826 583 817 580 822 580 c 0
 822 580 835 577 835 559 c 0
 835 478 792 278 792 147 c 0
 792 146 795 90 804 72 c 0
 807 65 810 60 811 60 c 0
 811 60 824 58 824 31 c 0
 824 11 812 16 807 6 c 0
 799 -9 763 -6 744 25 c 0
 743 27 740 31 738 34 c 0
 728 49 718 79 718 145 c 0
 718 146 718 251 724 277 c 0
 725 283 725 284 722 285 c 0
 720 285 698 286 668 286 c 0
 667 286 628 286 628 286 c 0
 597 286 569 285 563 286 c 2
 549 288 l 1
 548 244 l 2
 548 243 545 142 545 131 c 0
 545 87 556 90 548 78 c 0
 546 75 544 73 543 73 c 0
 537 73 526 51 511 51 c 0
 510 51 482 52 470 88 c 1
 465 78 l 2
 459 65 450 56 450 54 c 0
 450 53 438 46 434 41 c 0
 431 37 398 23 393 23 c 0
 389 23 348 6 291 6 c 0
 224 6 175 56 174 57 c 0
 174 58 134 103 124 144 c 0
 110 201 111 202 111 247 c 2
 111 281 l 1
 106 267 l 2
 100 249 97 248 97 246 c 0
 97 244 82 214 80 211 c 0
 77 208 62 184 49 166 c 0
 33 145 -32 84 -38 84 c 0
 -40 84 -108 29 -185 29 c 0
 -190 29 -230 37 -242 44 c 0
 -265 57 -266 57 -271 63 c 0
 -274 66 -278 69 -279 69 c 0
 -282 70 -302 95 -302 98 c 0
 -302 108 -330 133 -330 220 c 0
 -330 313 -308 368 -307 369 c 0
 -305 373 -303 384 -295 402 c 0
 -271 453 -264 466 -259 472 c 0
 -256 476 -254 480 -254 481 c 0
 -254 484 -227 521 -226 524 c 0
 -225 528 -197 556 -195 556 c 0
 -191 556 -152 599 -103 589 c 0
 -82 585 -75 545 -62 548 c 0
 -59 549 -55 549 -50 549 c 0
 47 549 117 442 117 361 c 0
 117 361 116 317 116 314 c 1
-116 495 m 0
 -116 497 -126 514 -128 514 c 0
 -129 514 -213 450 -243 314 c 0
 -251 279 -254 249 -254 222 c 0
 -254 189 -254 188 -236 138 c 0
 -233 130 -217 114 -208 110 c 0
 -202 107 -197 106 -182 106 c 0
 -90 106 -6 219 -5 221 c 0
 1 230 8 238 10 240 c 0
 11 241 41 284 41 351 c 0
 41 369 31 403 31 404 c 0
 19 441 -22 476 -48 476 c 0
 -62 476 -80 464 -84 465 c 0
 -103 465 -116 494 -116 495 c 0
111 287 m 1
 115 296 115 296 114 307 c 1
 113 301 l 2
 113 297 112 293 111 287 c 1
EndSplineSet
EndChar

StartChar: T_H
Encoding: 1114119 -1 69
Width: 514
VWidth: 817
Flags: HW
LayerCount: 2
Fore
SplineSet
42 13 m 0
 33 13 17 9 17 12 c 0
 17 13 16 14 15 14 c 0
 15 14 0 17 -3 41 c 0
 -4 49 -4 62 -4 81 c 0
 -4 170 3 226 5 265 c 0
 12 415 12 416 13 457 c 2
 14 507 l 1
 -4 505 l 2
 -15 504 -71 493 -72 493 c 0
 -87 487 -92 503 -101 529 c 2
 -105 540 l 1
 -101 548 l 2
 -99 553 -95 557 -91 559 c 0
 -90 559 -40 580 -12 581 c 0
 -9 581 267 609 287 609 c 0
 290 609 293 610 295 610 c 0
 309 610 318 609 321 570 c 0
 321 565 322 562 322 559 c 0
 322 553 321 551 318 548 c 0
 309 537 311 537 272 534 c 0
 270 534 131 522 89 515 c 1
 89 503 l 1
 88 354 72 126 72 119 c 0
 72 91 79 58 79 57 c 0
 79 42 67 6 67 15 c 0
 67 16 66 15 64 13 c 0
 62 11 60 11 53 12 c 0
 48 13 45 13 42 13 c 0
505 381 m 0
 505 419 512 439 512 474 c 0
 512 497 509 530 506 554 c 2
 504 573 l 1
 514 588 513 588 549 593 c 0
 565 595 568 595 568 593 c 0
 568 590 576 591 576 586 c 0
 576 585 589 552 589 491 c 0
 589 445 560 199 560 125 c 0
 560 74 574 31 574 30 c 0
 574 25 570 18 566 16 c 0
 564 15 557 10 551 6 c 0
 544 0 538 -3 532 -3 c 0
 510 -3 487 34 487 74 c 0
 487 100 485 76 485 108 c 0
 485 212 496 290 496 292 c 0
 496 295 495 297 491 297 c 0
 489 297 382 277 308 277 c 0
 278 277 278 277 278 276 c 0
 278 269 270 216 263 154 c 2
 259 119 l 1
 269 105 273 101 273 76 c 0
 273 49 270 45 260 35 c 0
 255 29 244 19 232 19 c 0
 225 19 209 20 195 34 c 0
 188 41 182 67 182 90 c 0
 182 127 201 268 201 270 c 0
 201 271 208 350 208 392 c 0
 208 410 206 447 206 448 c 0
 206 470 211 473 234 481 c 0
 242 484 248 485 253 485 c 0
 263 485 266 485 278 452 c 0
 286 431 288 424 288 414 c 0
 288 397 283 403 283 373 c 2
 283 353 l 1
 303 352 l 2
 306 352 310 352 313 352 c 0
 380 352 505 372 505 381 c 0
EndSplineSet
EndChar

StartChar: T_R
Encoding: 1114120 -1 70
Width: 514
VWidth: 828
Flags: HW
LayerCount: 2
Fore
SplineSet
-6 121 m 0
 -6 228 -2 354 -2 477 c 0
 -2 497 -2 509 -2 509 c 0
 -9 509 -49 492 -49 489 c 0
 -49 486 -61 483 -70 467 c 0
 -75 459 -78 455 -84 455 c 0
 -85 455 -132 465 -132 493 c 0
 -132 500 -119 545 -88 556 c 0
 -81 559 -47 577 -25 581 c 0
 -16 582 8 595 87 600 c 0
 97 601 106 601 106 601 c 0
 106 601 144 602 188 602 c 0
 266 602 269 602 273 598 c 0
 279 592 286 560 286 556 c 0
 286 543 274 527 217 527 c 0
 199 527 206 529 179 529 c 0
 141 529 71 526 71 523 c 0
 71 515 74 541 74 476 c 0
 74 385 69 156 69 153 c 0
 69 122 69 97 73 89 c 0
 76 82 76 81 74 67 c 0
 70 44 69 43 57 36 c 0
 47 30 47 30 30 32 c 0
 -4 36 -6 61 -6 121 c 0
355 554 m 0
 356 554 392 567 415 567 c 0
 452 567 496 566 540 547 c 0
 567 535 560 540 569 534 c 0
 572 532 576 530 577 530 c 0
 586 530 600 509 603 509 c 0
 604 509 605 509 605 508 c 0
 605 505 615 497 617 487 c 0
 619 476 622 480 622 471 c 0
 622 467 623 465 624 465 c 0
 627 465 622 462 625 455 c 0
 625 454 626 453 626 452 c 0
 626 443 613 409 608 403 c 0
 600 393 599 392 599 391 c 0
 599 388 565 358 556 353 c 0
 531 338 513 328 480 318 c 0
 474 316 466 313 462 312 c 0
 444 305 381 295 381 292 c 0
 381 289 397 288 447 264 c 0
 492 243 531 224 548 177 c 0
 550 172 552 167 553 166 c 0
 555 163 571 108 571 89 c 0
 571 74 563 70 540 65 c 2
 519 61 l 1
 511 65 l 2
 486 78 501 119 471 162 c 0
 464 172 438 187 395 205 c 0
 266 259 286 264 285 264 c 0
 283 264 280 202 280 130 c 0
 280 37 284 46 284 45 c 0
 284 38 266 24 254 23 c 0
 251 23 246 22 242 21 c 0
 203 12 203 62 203 114 c 0
 203 152 209 371 209 374 c 0
 209 400 205 391 205 441 c 0
 205 468 206 471 215 476 c 0
 221 480 247 487 253 487 c 0
 260 487 275 511 299 526 c 0
 316 536 346 554 355 554 c 0
546 457 m 0
 546 464 492 494 426 494 c 0
 417 494 417 494 386 490 c 0
 359 488 313 458 301 434 c 0
 298 427 293 421 292 420 c 0
 288 417 286 411 286 403 c 0
 286 395 288 385 286 380 c 0
 285 378 285 365 285 350 c 2
 285 323 l 1
 288 330 l 2
 293 338 319 353 338 357 c 0
 357 362 363 366 383 370 c 0
 429 380 429 380 431 380 c 0
 437 380 430 381 464 391 c 0
 496 401 546 431 546 457 c 0
EndSplineSet
EndChar

StartChar: E_E
Encoding: 1114121 -1 71
Width: 514
VWidth: 841
Flags: HW
LayerCount: 2
Fore
SplineSet
176 576 m 0
 250 576 251 574 251 570 c 0
 251 569 273 557 269 547 c 0
 267 542 276 537 272 530 c 0
 270 526 270 526 274 528 c 0
 280 531 308 536 310 539 c 0
 313 543 336 553 344 554 c 0
 348 555 358 557 366 559 c 0
 387 565 483 588 636 588 c 0
 645 588 650 588 654 582 c 0
 656 580 659 578 660 578 c 0
 664 578 664 570 666 570 c 0
 668 570 667 562 671 553 c 0
 678 539 663 529 663 524 c 0
 663 522 657 517 650 511 c 0
 648 510 648 510 607 510 c 0
 538 510 446 498 444 497 c 0
 426 492 404 497 364 478 c 0
 348 470 347 470 348 464 c 0
 351 449 353 427 353 409 c 0
 353 407 353 406 353 404 c 2
 352 383 l 1
 361 389 362 388 377 385 c 0
 387 383 401 383 423 383 c 0
 435 383 l 0
 482 383 529 378 541 373 c 0
 556 368 556 368 562 363 c 0
 566 359 570 356 571 356 c 0
 571 356 581 348 571 323 c 0
 570 321 570 320 570 319 c 0
 570 319 554 300 551 299 c 0
 549 298 545 298 540 298 c 0
 538 298 376 308 352 329 c 0
 350 331 347 333 347 299 c 0
 347 247 316 84 315 82 c 0
 311 67 356 81 356 81 c 0
 361 84 467 104 507 107 c 0
 585 114 585 114 591 114 c 0
 611 114 639 112 642 109 c 0
 653 100 654 100 657 87 c 0
 659 79 660 74 660 70 c 0
 660 63 657 59 649 51 c 2
 637 39 l 1
 609 38 l 2
 522 34 498 29 476 24 c 0
 460 21 420 16 384 8 c 0
 343 -1 326 -4 304 -4 c 0
 284 -4 283 -4 275 2 c 0
 261 12 250 9 242 19 c 0
 241 21 239 28 237 36 c 2
 234 50 l 1
 217 33 217 33 195 33 c 0
 192 33 190 33 187 33 c 0
 172 33 122 35 121 35 c 0
 120 35 36 28 -13 15 c 0
 -44 7 -79 1 -98 1 c 0
 -112 1 -129 4 -130 4 c 0
 -137 4 -144 14 -146 25 c 0
 -149 50 -167 48 -168 71 c 0
 -168 75 -168 78 -168 81 c 0
 -168 129 -157 163 -155 210 c 0
 -154 222 -142 331 -141 332 c 0
 -139 336 -140 531 -135 540 c 0
 -133 545 -123 551 -117 551 c 0
 -103 551 -91 569 -18 571 c 0
 18 571 88 576 176 576 c 0
273 391 m 0
 273 462 268 455 268 494 c 0
 268 507 268 519 267 519 c 0
 260 519 255 497 232 497 c 0
 231 497 194 501 174 501 c 0
 156 501 119 498 113 498 c 0
 -9 497 -56 488 -58 488 c 0
 -60 488 -61 476 -61 435 c 2
 -61 383 l 1
 -56 382 -52 381 -43 381 c 2
 -12 381 l 2
 -11 381 -9 381 -8 381 c 0
 24 381 25 384 57 384 c 0
 79 384 102 383 104 380 c 0
 105 377 115 376 118 373 c 0
 127 366 130 364 133 363 c 0
 136 362 137 361 137 344 c 0
 137 327 135 334 135 323 c 0
 135 317 133 314 129 309 c 0
 123 302 122 302 108 302 c 0
 77 302 118 307 36 307 c 0
 -8 307 -17 308 -37 312 c 0
 -50 314 -62 315 -63 315 c 0
 -64 315 -66 311 -66 306 c 0
 -66 304 -78 195 -85 138 c 2
 -88 113 l 1
 -83 102 l 2
 -75 84 -81 79 -76 80 c 0
 -65 83 48 105 65 108 c 0
 76 110 115 110 151 110 c 0
 184 110 214 110 215 108 c 0
 217 105 236 103 236 94 c 0
 236 92 236 92 236 92 c 0
 238 92 265 250 267 282 c 0
 273 358 273 359 273 391 c 0
EndSplineSet
EndChar

StartChar: T_T
Encoding: 1114122 -1 72
Width: 514
VWidth: 876
Flags: HW
LayerCount: 2
Fore
SplineSet
620 620 m 0
 633 620 626 622 641 622 c 0
 655 622 662 615 664 604 c 0
 665 600 667 594 669 589 c 0
 677 570 656 554 656 554 c 0
 653 554 652 548 640 547 c 0
 577 537 541 533 523 533 c 0
 510 533 420 517 382 517 c 0
 381 517 381 494 381 465 c 0
 380 370 372 349 371 329 c 0
 371 308 349 158 349 156 c 0
 348 137 339 74 339 74 c 0
 339 74 345 55 341 45 c 0
 335 29 345 29 335 20 c 0
 332 17 329 14 329 13 c 0
 329 10 322 4 317 2 c 0
 311 0 279 6 277 6 c 0
 272 6 259 25 259 44 c 0
 259 117 304 358 304 488 c 2
 304 513 l 1
 278 513 l 2
 276 513 275 513 273 513 c 0
 251 513 216 516 215 516 c 0
 174 516 61 501 33 496 c 1
 34 446 l 2
 34 441 34 436 34 430 c 0
 34 324 22 186 22 183 c 0
 22 127 12 98 9 53 c 0
 9 53 6 23 -18 23 c 0
 -34 23 -61 28 -66 34 c 0
 -70 40 -73 44 -73 50 c 0
 -73 51 -64 98 -60 152 c 0
 -58 187 -53 241 -51 254 c 0
 -47 280 -44 367 -44 422 c 0
 -44 431 -44 468 -44 468 c 0
 -44 474 -43 479 -41 485 c 1
 -53 484 l 2
 -69 482 -91 481 -107 481 c 0
 -134 481 -158 490 -158 491 c 0
 -158 492 -159 493 -161 493 c 0
 -162 493 -166 496 -170 500 c 0
 -177 508 -177 508 -177 526 c 0
 -177 555 -176 554 -107 557 c 0
 -7 561 107 592 202 592 c 0
 235 592 220 586 243 588 c 0
 245 588 429 596 457 601 c 0
 492 607 611 620 620 620 c 0
EndSplineSet
EndChar

StartChar: L_B
Encoding: 1114123 -1 73
Width: 514
VWidth: 831
Flags: HW
LayerCount: 2
Fore
SplineSet
10 107 m 0
 66 107 138 144 191 144 c 0
 222 144 226 135 226 135 c 0
 227 135 227 170 227 210 c 0
 227 369 220 330 217 414 c 0
 217 420 209 513 209 514 c 0
 207 530 207 532 211 536 c 0
 215 541 226 545 232 545 c 0
 241 545 238 565 267 579 c 0
 302 596 322 605 384 605 c 0
 447 605 466 600 498 589 c 0
 507 586 515 583 517 583 c 0
 521 583 537 574 542 574 c 0
 546 574 565 553 568 553 c 0
 569 553 582 533 582 528 c 0
 582 518 590 515 588 499 c 0
 582 461 583 461 582 460 c 0
 582 460 568 432 552 413 c 0
 530 387 498 360 498 360 c 0
 499 359 528 350 541 344 c 0
 568 330 582 318 582 318 c 0
 586 318 616 283 617 277 c 0
 618 274 621 268 623 263 c 0
 630 247 630 209 630 208 c 0
 630 143 546 5 483 -28 c 0
 460 -40 444 -48 440 -51 c 0
 436 -54 418 -55 418 -58 c 0
 418 -59 412 -59 403 -59 c 0
 357 -59 347 -54 346 -54 c 0
 342 -54 324 -44 319 -43 c 0
 311 -40 294 -17 285 -17 c 0
 284 -17 282 -18 280 -18 c 0
 279 -18 236 -25 230 54 c 0
 229 73 227 81 226 81 c 0
 220 81 235 72 186 66 c 0
 163 63 142 59 138 56 c 0
 136 55 85 43 75 39 c 0
 65 34 32 29 11 29 c 0
 -11 29 -33 33 -39 38 c 0
 -43 41 -49 44 -62 51 c 0
 -70 55 -93 79 -93 83 c 0
 -93 84 -115 135 -118 171 c 0
 -119 181 -120 227 -120 271 c 0
 -120 316 -120 366 -116 401 c 0
 -114 416 -112 512 -111 512 c 0
 -106 512 -114 545 -101 557 c 0
 -95 563 -94 562 -57 567 c 0
 -52 568 -44 562 -42 557 c 0
 -40 552 -32 490 -32 476 c 0
 -32 468 -34 475 -34 459 c 0
 -34 447 -33 436 -33 426 c 0
 -33 419 -34 415 -35 414 c 0
 -39 409 -42 336 -42 269 c 0
 -42 150 -37 107 10 107 c 0
509 496 m 0
 509 508 459 535 361 535 c 0
 311 535 301 521 301 520 c 0
 301 517 291 515 286 505 c 0
 276 487 295 452 297 396 c 0
 300 304 304 370 306 176 c 2
 307 83 l 1
 340 49 343 33 358 24 c 0
 364 20 367 20 386 20 c 0
 398 20 410 20 414 22 c 0
 428 27 451 43 468 60 c 0
 497 89 508 104 534 154 c 0
 544 174 551 201 551 220 c 0
 551 235 543 262 494 278 c 0
 484 281 473 286 468 288 c 0
 457 293 436 294 405 294 c 0
 358 294 356 291 351 291 c 0
 332 291 323 319 323 346 c 0
 323 350 323 353 324 353 c 0
 328 353 319 361 364 375 c 0
 398 386 432 405 468 435 c 0
 489 452 509 484 509 496 c 0
EndSplineSet
EndChar

StartChar: E_R
Encoding: 1114124 -1 74
Width: 514
VWidth: 876
Flags: HW
LayerCount: 2
Fore
SplineSet
-154 32 m 0
 -154 45 -163 48 -163 59 c 0
 -163 83 -148 174 -146 231 c 0
 -145 243 -144 262 -143 274 c 0
 -142 293 -135 492 -135 494 c 0
 -131 519 -129 527 -124 532 c 0
 -113 543 -74 570 -59 576 c 0
 -57 577 76 626 190 626 c 0
 211 626 230 625 235 622 c 0
 241 619 255 618 257 612 c 0
 258 607 266 603 266 595 c 0
 266 592 267 586 269 582 c 0
 276 565 262 560 262 557 c 0
 262 552 245 543 245 542 c 0
 245 542 241 536 220 536 c 0
 210 536 200 537 199 539 c 0
 199 539 190 549 180 549 c 0
 122 549 -22 515 -43 500 c 0
 -46 498 -51 496 -54 495 c 0
 -58 494 -62 492 -62 470 c 0
 -62 448 -59 424 -59 397 c 0
 -59 375 -59 375 -55 374 c 0
 -54 374 -52 374 -48 374 c 0
 -47 374 11 377 26 377 c 0
 62 377 87 372 94 366 c 0
 97 364 99 362 100 362 c 0
 107 362 124 333 115 327 c 0
 114 326 114 307 107 307 c 0
 106 307 90 293 71 293 c 0
 61 293 68 300 29 300 c 0
 9 300 -2 298 -19 298 c 0
 -38 298 -50 301 -56 301 c 0
 -63 301 -62 296 -63 276 c 0
 -66 218 -72 159 -76 138 c 0
 -77 135 -77 135 -77 121 c 0
 -77 115 -78 110 -82 78 c 1
 -75 78 l 2
 -39 78 141 108 162 108 c 0
 168 108 195 109 203 109 c 0
 228 109 231 106 235 91 c 0
 237 85 238 81 239 81 c 0
 241 82 241 119 249 173 c 0
 261 246 268 398 268 428 c 0
 268 436 268 440 267 444 c 0
 264 463 271 473 271 494 c 0
 271 542 298 520 308 533 c 0
 313 539 353 569 384 579 c 0
 415 589 419 589 425 589 c 0
 429 589 432 590 432 591 c 0
 432 592 437 593 444 593 c 0
 546 593 585 549 596 549 c 0
 606 549 644 512 653 493 c 0
 657 486 661 479 662 478 c 0
 665 476 667 455 667 440 c 0
 667 403 638 379 638 375 c 0
 638 369 595 338 595 338 c 0
 590 332 511 297 462 297 c 2
 454 297 l 1
 482 276 l 2
 557 222 622 172 643 104 c 0
 645 96 648 90 649 89 c 0
 651 87 656 55 656 41 c 0
 656 25 649 25 649 21 c 0
 649 20 646 17 643 14 c 0
 637 9 637 9 622 10 c 0
 593 12 590 13 583 20 c 0
 577 26 577 28 577 39 c 0
 577 58 565 97 554 113 c 0
 527 152 379 258 375 261 c 0
 368 265 346 285 343 290 c 0
 339 297 339 263 336 246 c 0
 336 245 321 103 321 102 c 0
 315 47 316 49 309 42 c 0
 303 36 302 36 282 35 c 0
 259 33 244 33 241 60 c 2
 240 70 l 1
 225 43 225 59 213 47 c 0
 211 45 209 43 208 43 c 0
 207 43 201 34 134 27 c 0
 118 25 82 19 79 20 c 0
 73 22 23 7 -36 4 c 0
 -52 3 -85 -4 -112 -4 c 0
 -128 -4 -144 6 -146 8 c 0
 -151 13 -154 22 -154 32 c 0
588 441 m 0
 588 475 514 524 454 524 c 0
 404 524 359 486 355 486 c 0
 354 486 350 483 346 480 c 2
 338 475 l 1
 340 460 l 2
 341 452 341 444 342 442 c 0
 343 440 344 419 344 395 c 0
 344 361 344 354 346 354 c 0
 346 354 362 368 384 369 c 0
 485 376 502 380 529 392 c 0
 555 403 556 404 574 422 c 0
 586 434 588 437 588 441 c 0
EndSplineSet
EndChar

StartChar: R_R
Encoding: 1114125 -1 75
Width: 514
VWidth: 829
Flags: HW
LayerCount: 2
Fore
SplineSet
-63 587 m 0
 -49 587 -50 590 -14 590 c 0
 7 590 55 586 75 582 c 0
 96 578 142 568 166 553 c 0
 182 543 177 551 189 540 c 0
 195 535 199 532 200 533 c 0
 201 534 207 520 209 520 c 0
 211 520 215 504 220 501 c 0
 223 499 223 495 223 470 c 0
 223 439 223 438 210 416 c 0
 183 370 133 333 65 307 c 0
 40 298 45 298 21 290 c 2
 4 285 l 1
 19 278 l 2
 20 277 113 233 139 215 c 0
 142 213 145 210 146 210 c 0
 149 210 167 194 170 194 c 0
 173 194 204 160 212 148 c 0
 227 126 235 100 236 100 c 0
 237 100 238 208 238 320 c 0
 238 368 238 417 238 458 c 2
 237 514 l 1
 259 543 261 521 278 541 c 0
 290 556 316 588 430 588 c 0
 490 588 547 571 548 571 c 0
 555 571 589 554 589 554 c 0
 597 554 632 521 632 514 c 0
 632 510 639 511 639 478 c 0
 639 447 622 423 622 423 c 0
 621 422 601 382 540 349 c 0
 531 344 523 339 522 338 c 0
 515 330 431 308 415 300 c 0
 411 298 411 297 426 286 c 0
 449 269 472 246 480 243 c 0
 501 234 653 63 653 40 c 0
 653 27 653 27 629 11 c 0
 614 1 610 -2 605 -2 c 0
 584 -2 580 22 567 34 c 0
 563 38 536 73 534 74 c 0
 531 75 498 115 498 117 c 0
 498 121 419 196 415 196 c 0
 411 196 394 215 360 240 c 0
 346 250 334 260 332 262 c 0
 326 268 318 273 317 271 c 0
 316 270 315 252 315 232 c 0
 315 154 321 175 321 113 c 0
 321 105 327 102 327 80 c 0
 327 65 326 62 314 53 c 0
 302 44 304 44 301 44 c 0
 300 44 290 33 277 40 c 0
 272 42 265 43 261 45 c 0
 258 47 245 66 245 69 c 0
 245 72 242 69 243 53 c 0
 243 45 242 40 241 40 c 0
 240 40 239 38 239 37 c 0
 239 33 235 24 199 22 c 2
 183 21 l 1
 177 27 l 2
 155 48 170 70 151 99 c 0
 144 111 121 134 106 144 c 0
 78 164 -54 231 -55 230 c 0
 -56 229 -54 113 -46 88 c 0
 -44 82 -43 73 -43 66 c 0
 -43 54 -50 31 -65 23 c 0
 -68 21 -74 21 -82 21 c 0
 -108 21 -133 25 -133 114 c 0
 -133 134 -131 135 -131 150 c 0
 -131 162 -134 166 -135 286 c 0
 -136 383 -138 443 -140 447 c 0
 -142 450 -142 473 -144 476 c 0
 -146 479 -148 497 -148 511 c 0
 -148 519 -147 526 -146 528 c 0
 -135 549 -126 563 -122 567 c 0
 -119 570 -117 571 -117 570 c 0
 -117 569 -114 571 -111 574 c 0
 -101 584 -88 577 -77 583 c 0
 -74 585 -68 587 -63 587 c 0
126 495 m 0
 124 495 66 523 -26 523 c 0
 -54 523 -72 519 -72 513 c 0
 -72 513 -62 478 -60 455 c 0
 -58 438 -56 433 -57 424 c 0
 -58 414 -59 389 -59 371 c 0
 -59 358 -59 348 -58 348 c 0
 -57 348 12 369 23 374 c 0
 28 376 42 382 53 386 c 0
 87 399 110 413 128 432 c 0
 147 452 152 459 152 469 c 0
 152 483 126 495 126 495 c 0
319 354 m 0
 322 354 342 364 349 364 c 0
 362 364 433 388 438 389 c 0
 452 391 493 408 511 420 c 0
 538 437 563 465 563 478 c 0
 563 495 495 512 476 515 c 0
 463 517 427 519 396 519 c 0
 346 519 325 499 325 498 c 0
 325 494 317 498 317 465 c 0
 317 454 320 433 320 390 c 0
 320 374 316 354 319 354 c 0
EndSplineSet
EndChar

StartChar: T_I
Encoding: 1114126 -1 76
Width: 514
VWidth: 798
Flags: HW
LayerCount: 2
Fore
SplineSet
168 425 m 0
 168 457 164 429 164 460 c 0
 164 466 163 474 160 495 c 1
 150 494 l 2
 127 491 99 485 98 485 c 0
 92 485 84 483 77 480 c 2
 65 475 l 1
 56 479 l 2
 48 483 47 484 40 500 c 0
 36 510 33 519 33 526 c 0
 33 534 36 541 42 545 c 0
 43 546 89 573 154 573 c 0
 160 573 241 585 263 589 c 0
 265 589 407 617 420 617 c 0
 424 617 425 616 425 615 c 0
 425 609 440 620 456 596 c 2
 462 587 l 1
 459 576 l 2
 455 560 449 548 444 546 c 0
 438 543 436 544 401 537 c 0
 325 523 325 522 318 521 c 0
 274 515 293 515 256 509 c 2
 235 506 l 1
 246 468 248 464 248 454 c 0
 248 452 243 318 235 280 c 0
 232 264 225 218 215 181 c 0
 209 158 194 74 194 62 c 0
 194 57 194 53 194 49 c 0
 194 39 185 34 185 29 c 0
 185 26 170 11 168 11 c 0
 160 11 165 10 160 10 c 0
 156 10 151 10 142 13 c 0
 119 20 112 25 112 45 c 0
 112 111 168 271 168 425 c 0
351 413 m 0
 351 428 345 450 345 457 c 0
 345 475 361 478 375 481 c 0
 375 481 393 485 395 485 c 0
 401 485 412 475 412 470 c 0
 412 469 421 456 429 416 c 0
 434 388 437 369 437 362 c 0
 437 357 435 360 436 357 c 0
 437 356 437 343 437 326 c 0
 437 258 434 245 432 145 c 2
 431 74 l 1
 437 69 439 66 439 62 c 0
 439 57 435 42 433 40 c 0
 432 39 430 36 428 33 c 0
 423 24 402 19 390 19 c 0
 380 19 369 24 367 30 c 0
 366 32 363 37 361 40 c 0
 355 47 354 59 354 98 c 0
 354 155 359 301 359 314 c 0
 359 341 353 359 355 370 c 0
 355 371 355 373 355 375 c 0
 355 385 351 398 351 413 c 0
EndSplineSet
EndChar

StartChar: L_A
Encoding: 1114127 -1 77
Width: 514
VWidth: 827
Flags: HW
LayerCount: 2
Fore
SplineSet
201 164 m 0
 215 164 217 163 224 159 c 1
 233 213 l 2
 233 215 267 394 279 415 c 0
 280 417 281 420 281 421 c 0
 281 422 317 511 331 533 c 0
 337 542 342 550 342 551 c 0
 342 551 367 580 377 582 c 0
 385 584 386 588 395 589 c 0
 404 590 406 592 415 592 c 0
 464 592 508 547 508 546 c 0
 508 543 555 503 588 419 c 0
 590 413 594 406 595 404 c 0
 598 400 608 368 611 352 c 0
 626 287 626 286 628 270 c 0
 635 219 640 194 640 178 c 0
 640 177 644 151 644 59 c 0
 644 46 644 31 644 16 c 0
 644 8 636 7 636 3 c 0
 636 -4 614 -17 602 -17 c 0
 593 -17 590 -11 586 -11 c 0
 577 -11 562 17 564 21 c 0
 565 23 566 33 566 48 c 0
 566 98 561 203 556 230 c 2
 553 242 l 1
 517 241 l 2
 427 240 387 227 337 227 c 0
 315 227 315 226 315 226 c 0
 315 226 310 185 307 181 c 0
 306 180 291 58 287 51 c 0
 287 51 275 16 260 4 c 0
 256 1 248 -2 244 -2 c 0
 240 -2 236 0 224 8 c 0
 207 19 207 19 204 29 c 0
 200 40 199 49 202 51 c 0
 204 52 210 81 210 88 c 0
 210 89 210 89 209 89 c 0
 177 89 73 31 -4 31 c 0
 -25 31 -54 34 -66 43 c 0
 -74 50 -87 54 -94 62 c 0
 -101 70 -109 77 -110 81 c 0
 -110 82 -138 126 -138 173 c 0
 -138 202 -140 174 -140 216 c 0
 -140 292 -133 390 -126 441 c 0
 -112 541 -111 540 -96 548 c 2
 -88 553 l 1
 -69 550 l 2
 -56 548 -34 544 -38 520 c 0
 -39 515 -40 504 -40 496 c 0
 -40 484 -52 388 -53 384 c 0
 -53 383 -61 261 -61 237 c 0
 -61 211 -58 166 -55 149 c 0
 -54 141 -46 108 -11 108 c 0
 50 108 152 164 201 164 c 0
510 405 m 0
 501 439 444 512 420 512 c 0
 407 512 402 502 383 464 c 0
 341 380 332 310 332 308 c 0
 332 306 333 305 334 305 c 0
 334 305 336 307 364 308 c 0
 365 308 396 311 510 318 c 1
 539 320 l 1
 534 353 516 383 510 405 c 0
EndSplineSet
EndChar

StartChar: L_L
Encoding: 1114128 -1 78
Width: 514
VWidth: 758
Flags: HW
LayerCount: 2
Fore
SplineSet
-89 87 m 0
 -89 101 -99 90 -99 168 c 0
 -99 218 -98 286 -92 351 c 0
 -90 373 -89 396 -89 422 c 0
 -89 482 -90 482 -90 484 c 0
 -92 493 -92 501 -92 507 c 0
 -92 533 -79 536 -63 540 c 0
 -53 543 -46 544 -40 544 c 0
 -26 544 -24 534 -16 504 c 0
 -9 477 -8 464 -8 425 c 0
 -8 391 -8 379 -10 376 c 0
 -16 364 -22 199 -22 197 c 0
 -22 167 -19 131 -15 113 c 0
 -7 76 -1 68 22 68 c 0
 53 68 127 88 142 96 c 0
 156 103 210 117 226 111 c 0
 230 109 231 110 230 112 c 0
 220 137 220 161 220 206 c 0
 220 264 221 350 230 401 c 0
 234 423 239 487 242 491 c 0
 246 498 240 517 251 531 c 0
 256 537 257 539 279 539 c 0
 310 539 310 526 310 463 c 0
 310 377 297 318 297 220 c 0
 297 154 301 118 330 101 c 0
 335 98 341 95 367 95 c 0
 421 95 536 126 584 126 c 0
 590 126 592 125 598 121 c 0
 607 115 607 115 611 97 c 0
 613 89 613 83 613 78 c 0
 613 62 604 57 581 53 c 0
 536 46 412 17 367 17 c 0
 273 17 247 79 247 66 c 0
 247 57 236 43 229 43 c 0
 214 43 151 16 135 14 c 0
 128 14 94 -2 79 -2 c 0
 66 -2 66 -9 25 -9 c 0
 -17 -9 -12 -2 -20 -2 c 0
 -25 -2 -37 7 -40 7 c 0
 -42 7 -69 35 -71 40 c 0
 -90 81 -89 81 -89 87 c 0
EndSplineSet
EndChar

StartChar: O_N
Encoding: 1114129 -1 79
Width: 514
VWidth: 838
Flags: HW
LayerCount: 2
Fore
SplineSet
296 597 m 0
 314 597 319 584 323 584 c 0
 329 584 352 508 415 393 c 0
 427 371 439 350 440 347 c 0
 440 346 491 255 521 216 c 0
 532 201 558 165 567 154 c 1
 566 185 l 2
 565 202 564 247 562 284 c 0
 560 330 558 376 558 416 c 0
 558 441 559 556 573 579 c 0
 577 585 590 601 600 601 c 0
 603 601 640 588 646 576 c 0
 652 564 645 575 641 525 c 0
 637 472 635 441 635 415 c 0
 635 402 648 154 648 111 c 0
 648 59 641 56 642 56 c 0
 644 56 637 45 633 43 c 0
 626 39 624 34 618 32 c 0
 616 31 610 31 605 31 c 0
 589 31 586 33 582 33 c 0
 578 34 552 56 552 56 c 0
 552 57 544 66 534 76 c 0
 493 118 417 232 411 245 c 0
 410 246 379 299 338 376 c 0
 332 388 325 397 325 397 c 0
 323 397 333 251 333 149 c 0
 333 107 332 69 330 67 c 0
 329 66 329 62 329 58 c 0
 329 49 323 45 323 42 c 0
 323 41 321 38 319 36 c 0
 316 33 313 32 293 32 c 0
 281 32 270 32 270 33 c 0
 270 36 264 34 259 42 c 0
 256 47 255 53 255 112 c 0
 255 198 249 350 249 297 c 0
 249 285 243 259 238 247 c 0
 235 240 230 230 228 224 c 0
 197 142 158 120 158 114 c 0
 158 112 117 75 114 74 c 0
 113 74 53 25 -7 25 c 0
 -54 25 -69 39 -69 39 c 0
 -73 44 -82 44 -99 62 c 0
 -119 82 -134 115 -143 153 c 0
 -148 174 -148 229 -148 257 c 0
 -148 307 -139 320 -139 327 c 0
 -139 338 -122 408 -118 413 c 0
 -117 414 -94 471 -76 503 c 0
 -56 538 -26 566 -10 568 c 0
 2 569 6 574 14 571 c 0
 17 570 20 570 21 571 c 0
 22 572 22 571 22 570 c 0
 22 566 40 564 49 549 c 0
 52 544 56 541 58 541 c 0
 62 541 99 526 113 519 c 0
 154 498 209 439 209 436 c 0
 209 433 241 387 244 352 c 0
 245 343 245 339 246 339 c 0
 247 339 248 365 248 425 c 0
 248 569 248 597 296 597 c 0
39 446 m 0
 21 446 27 466 22 468 c 0
 21 469 15 469 7 470 c 2
 -7 471 l 1
 -13 462 -15 459 -31 426 c 0
 -69 344 -59 297 -69 286 c 0
 -70 285 -71 269 -71 244 c 0
 -71 240 -71 237 -71 233 c 2
 -71 182 l 1
 -64 159 l 2
 -49 105 -27 102 -9 102 c 0
 30 102 59 129 100 165 c 0
 110 174 138 202 158 259 c 0
 161 269 165 279 167 282 c 0
 170 287 171 295 171 305 c 0
 171 369 139 400 124 415 c 0
 103 435 96 442 79 451 c 0
 68 457 66 457 65 454 c 0
 64 450 49 446 39 446 c 0
EndSplineSet
EndChar

StartChar: C_A
Encoding: 1114130 -1 80
Width: 514
VWidth: 834
Flags: HW
LayerCount: 2
Fore
SplineSet
-88 85 m 0
 -88 86 -111 126 -111 209 c 0
 -111 251 -111 335 -75 413 c 0
 -47 475 -29 512 20 561 c 0
 43 584 75 616 139 616 c 0
 163 616 158 611 165 610 c 0
 170 610 200 594 202 591 c 0
 206 582 227 580 253 520 c 0
 263 494 227 483 225 483 c 0
 211 483 172 544 134 544 c 0
 98 544 -24 459 -35 229 c 0
 -35 225 -35 222 -35 218 c 0
 -35 106 14 43 61 43 c 0
 106 43 177 91 186 91 c 0
 192 91 201 113 216 111 c 0
 225 110 224 111 224 122 c 0
 224 124 241 273 245 291 c 0
 249 306 252 341 259 367 c 0
 277 441 277 441 290 472 c 0
 290 473 314 523 336 539 c 0
 351 551 356 553 356 553 c 0
 356 557 375 560 392 560 c 0
 414 560 424 555 424 555 c 0
 424 557 448 540 450 540 c 0
 453 540 495 503 513 468 c 0
 516 462 521 453 523 450 c 0
 540 427 554 371 561 359 c 0
 569 344 599 245 607 190 c 0
 608 182 610 170 612 163 c 0
 617 139 620 103 620 75 c 0
 620 21 611 32 611 26 c 0
 611 24 603 18 603 14 c 0
 603 8 578 7 578 7 c 0
 571 7 553 12 551 14 c 0
 548 18 541 33 541 35 c 0
 541 40 536 38 536 49 c 0
 536 55 537 61 540 64 c 0
 545 70 542 110 530 184 c 0
 524 222 525 225 511 225 c 0
 509 225 507 224 505 224 c 0
 480 224 457 228 436 228 c 0
 416 228 390 226 345 222 c 2
 312 218 l 1
 313 205 l 2
 313 186 304 139 304 128 c 0
 301 88 282 5 255 5 c 0
 253 5 217 12 215 17 c 0
 214 21 212 23 210 23 c 0
 207 23 202 20 193 13 c 0
 169 -5 116 -30 102 -30 c 0
 102 -30 101 -30 100 -30 c 0
 90 -30 68 -33 57 -33 c 0
 47 -33 46 -30 36 -30 c 0
 19 -30 -28 -3 -28 -2 c 0
 -28 -1 -54 14 -77 59 c 0
 -83 71 -88 83 -88 85 c 0
501 300 m 1
 488 323 484 345 484 345 c 0
 484 346 461 427 416 468 c 0
 404 479 400 482 395 482 c 0
 354 482 326 302 326 300 c 0
 326 297 327 297 330 298 c 0
 331 298 395 304 428 304 c 0
 451 304 477 303 491 301 c 2
 501 300 l 1
EndSplineSet
EndChar

StartChar: P_S
Encoding: 1114131 -1 81
Width: 514
VWidth: 847
Flags: HW
LayerCount: 2
Fore
SplineSet
-55 42 m 1
 -67 32 -68 30 -99 30 c 2
 -119 30 l 1
 -123 35 -128 41 -132 46 c 1
 -131 119 l 2
 -131 186 -127 261 -127 262 c 0
 -127 304 -134 280 -132 307 c 0
 -130 332 -123 317 -123 391 c 0
 -123 397 -123 402 -123 408 c 2
 -124 446 l 1
 -134 449 l 2
 -147 452 -152 457 -155 470 c 0
 -157 479 -158 484 -158 490 c 0
 -158 538 -93 606 27 606 c 0
 49 606 81 606 135 580 c 0
 147 574 157 570 158 570 c 0
 162 570 195 543 198 543 c 0
 201 543 253 487 253 470 c 0
 253 464 262 488 267 496 c 0
 269 499 270 502 270 503 c 0
 270 506 285 522 285 524 c 0
 285 526 318 553 320 553 c 0
 321 553 373 585 395 588 c 0
 411 591 444 604 484 605 c 0
 489 605 494 605 498 605 c 0
 524 605 556 592 557 591 c 0
 564 587 579 575 579 572 c 0
 579 571 582 559 580 548 c 0
 580 548 568 523 551 521 c 0
 536 519 510 529 492 529 c 0
 472 529 383 512 348 476 c 0
 313 439 320 354 340 354 c 0
 358 354 406 378 410 378 c 0
 416 378 449 400 477 400 c 0
 506 400 508 392 513 392 c 0
 514 392 566 371 592 343 c 0
 595 339 601 334 604 331 c 0
 609 326 624 296 624 291 c 0
 624 290 642 251 642 202 c 0
 642 134 607 95 607 84 c 0
 607 80 576 50 569 47 c 0
 568 47 503 8 469 3 c 0
 459 1 466 -1 439 -3 c 0
 435 -3 431 -3 427 -3 c 0
 413 -3 367 -3 318 47 c 0
 300 65 298 69 286 92 c 2
 274 116 l 1
 273 138 l 2
 273 144 272 149 272 152 c 0
 272 183 297 185 309 186 c 0
 319 187 329 189 329 178 c 0
 329 176 330 174 331 174 c 0
 332 174 333 172 333 168 c 0
 333 159 338 158 338 154 c 0
 338 149 350 127 363 110 c 0
 386 78 407 75 437 75 c 0
 451 75 454 76 475 85 c 0
 521 104 536 115 547 137 c 0
 552 147 565 182 565 195 c 0
 565 217 556 271 541 287 c 0
 532 297 496 321 483 321 c 0
 452 321 394 284 379 284 c 0
 377 284 374 283 374 282 c 0
 374 281 372 280 369 280 c 0
 354 280 357 271 333 277 c 0
 326 279 317 281 313 281 c 0
 312 281 261 288 245 375 c 1
 239 363 l 2
 228 343 215 331 215 328 c 0
 215 326 183 296 175 291 c 0
 130 261 94 241 16 241 c 0
 -17 241 -49 247 -49 247 c 0
 -51 245 -55 141 -55 82 c 0
 -55 77 -55 72 -55 68 c 2
 -55 42 l 1
172 401 m 0
 172 405 181 420 181 434 c 0
 181 457 117 535 18 535 c 0
 -4 535 -26 532 -38 527 c 2
 -49 523 l 1
 -48 513 l 2
 -48 507 -47 462 -47 414 c 2
 -46 326 l 1
 -35 323 l 2
 -24 320 -2 318 32 318 c 0
 121 318 172 397 172 401 c 0
EndSplineSet
EndChar

StartChar: T_O
Encoding: 1114132 -1 82
Width: 514
VWidth: 789
Flags: HW
LayerCount: 2
Fore
SplineSet
-58 441 m 0
 -80 441 -103 477 -103 486 c 0
 -103 504 -47 541 -20 541 c 0
 -1 541 33 556 96 566 c 0
 119 570 187 582 239 582 c 0
 290 582 294 575 300 564 c 0
 303 559 304 557 304 552 c 0
 304 549 305 546 304 541 c 2
 302 526 l 1
 314 526 327 527 339 527 c 1
 343 523 346 518 350 514 c 1
 368 514 l 2
 370 514 370 514 372 514 c 0
 439 514 492 469 493 469 c 0
 495 469 532 432 537 425 c 0
 573 368 587 346 587 285 c 0
 587 226 565 182 564 181 c 0
 563 180 517 84 456 42 c 0
 418 16 399 6 378 1 c 0
 359 -4 335 -9 326 -9 c 0
 326 -9 285 -6 282 -4 c 0
 276 -1 249 11 246 14 c 0
 218 39 172 96 172 204 c 0
 172 428 267 504 267 507 c 0
 267 507 266 508 262 508 c 0
 215 508 108 492 107 491 c 0
 104 489 111 317 99 111 c 0
 94 27 94 23 88 18 c 0
 85 15 83 13 77 13 c 0
 28 13 18 24 18 42 c 0
 18 46 28 173 28 396 c 0
 28 477 28 477 15 470 c 0
 -3 460 -39 458 -51 443 c 0
 -52 441 -55 441 -58 441 c 0
328 429 m 0
 317 428 307 437 307 437 c 0
 303 437 285 403 276 376 c 0
 268 352 250 297 250 220 c 0
 250 192 256 128 273 100 c 0
 281 86 292 68 327 68 c 0
 376 68 429 119 441 131 c 0
 442 132 509 205 509 295 c 0
 509 318 487 389 423 424 c 0
 414 429 390 437 385 437 c 0
 382 437 387 408 383 404 c 0
 379 400 345 388 342 406 c 0
 341 409 339 415 337 420 c 0
 334 428 333 429 328 429 c 0
EndSplineSet
EndChar

StartChar: plus
Encoding: 43 43 83
Width: 514
VWidth: 611
Flags: HW
LayerCount: 2
Fore
SplineSet
221 346 m 0
 221 412 217 438 217 439 c 0
 217 444 218 447 221 454 c 0
 229 473 230 474 245 477 c 0
 255 479 263 479 270 479 c 0
 278 479 283 478 285 476 c 0
 287 474 301 457 302 361 c 2
 302 320 l 1
 329 316 396 313 411 312 c 0
 455 310 454 311 459 306 c 0
 465 299 469 260 469 260 c 0
 469 232 432 232 416 232 c 0
 367 232 303 239 302 239 c 0
 292 239 300 85 290 75 c 0
 289 73 287 72 287 71 c 0
 287 69 273 62 273 60 c 0
 273 59 262 56 262 57 c 0
 262 59 260 53 253 53 c 0
 240 53 231 69 223 71 c 0
 217 73 211 87 211 93 c 0
 211 94 214 89 216 175 c 2
 217 246 l 1
 182 245 l 2
 106 242 109 231 56 231 c 0
 30 231 26 272 26 273 c 0
 26 276 30 290 41 295 c 0
 80 313 111 323 188 324 c 0
 205 324 219 324 220 325 c 0
 221 326 221 334 221 346 c 0
EndSplineSet
EndChar

StartChar: brokenbar
Encoding: 166 166 84
Width: 514
VWidth: 937
Flags: HW
LayerCount: 2
Fore
SplineSet
213 631 m 0
 213 631 213 631 215 662 c 0
 215 664 218 669 222 673 c 0
 228 680 228 679 269 683 c 0
 270 683 286 676 286 661 c 0
 286 657 287 652 289 650 c 0
 294 644 295 545 295 544 c 0
 295 501 286 452 286 404 c 0
 286 403 289 310 289 304 c 0
 289 273 282 260 256 259 c 1
 277 253 287 234 287 234 c 0
 291 226 293 191 293 105 c 0
 293 21 295 -51 295 -53 c 0
 295 -91 289 -141 288 -143 c 0
 287 -145 286 -149 285 -152 c 0
 284 -159 271 -165 265 -165 c 0
 262 -165 257 -165 248 -163 c 0
 219 -158 212 -156 212 -127 c 0
 212 -108 215 -81 215 -51 c 0
 215 -8 211 7 211 57 c 0
 211 229 223 240 223 242 c 0
 223 251 234 259 243 259 c 0
 244 259 244 258 245 258 c 0
 259 256 233 265 233 265 c 0
 229 265 215 271 215 273 c 0
 215 274 213 276 211 279 c 0
 203 288 212 307 207 325 c 0
 205 330 205 361 205 391 c 0
 205 490 213 419 213 551 c 0
 213 572 213 598 213 631 c 0
EndSplineSet
EndChar

StartChar: ampersand
Encoding: 38 38 85
Width: 514
VWidth: 749
Flags: HW
LayerCount: 2
Fore
SplineSet
98 554 m 0
 102 554 114 572 178 572 c 0
 233 572 313 516 318 451 c 0
 318 445 319 439 319 434 c 0
 319 420 317 410 315 406 c 0
 315 405 307 373 287 346 c 0
 271 324 269 321 259 310 c 2
 249 300 l 1
 261 290 l 2
 277 278 277 278 323 238 c 2
 341 223 l 1
 344 231 l 2
 346 235 348 241 349 244 c 0
 350 247 366 273 376 273 c 0
 380 273 386 272 395 269 c 2
 409 265 l 1
 412 255 l 2
 413 250 414 241 414 234 c 0
 414 205 402 171 402 170 c 0
 402 163 450 124 450 124 c 0
 452 124 466 102 473 94 c 0
 476 90 478 85 478 80 c 0
 478 76 477 72 475 69 c 0
 472 63 434 39 427 39 c 0
 405 39 403 60 376 82 c 2
 363 93 l 1
 286 -13 226 -5 215 -14 c 0
 214 -15 201 -16 189 -16 c 0
 177 -16 166 -15 166 -14 c 0
 166 -13 160 -11 153 -9 c 0
 137 -5 137 -5 112 10 c 0
 72 33 52 60 41 104 c 0
 34 130 31 156 31 178 c 0
 31 230 50 248 50 256 c 0
 50 261 77 291 87 296 c 0
 87 296 111 308 111 314 c 0
 111 318 55 376 55 451 c 0
 55 461 55 492 68 516 c 0
 75 529 95 554 98 554 c 0
187 353 m 0
 191 353 238 395 238 432 c 0
 238 451 235 457 221 470 c 0
 209 482 191 494 168 494 c 0
 165 494 157 492 149 491 c 0
 137 489 129 473 129 452 c 0
 129 408 174 353 187 353 c 0
285 163 m 2
 270 178 196 241 195 242 c 2
 175 258 l 1
 165 252 l 2
 124 230 113 213 113 175 c 0
 113 159 119 109 133 93 c 0
 142 83 175 65 191 65 c 0
 229 65 256 93 268 106 c 0
 280 118 294 132 297 137 c 2
 303 146 l 1
 285 163 l 2
EndSplineSet
EndChar

StartChar: asciicircum
Encoding: 94 94 86
Width: 514
VWidth: 721
Flags: HW
LayerCount: 2
Fore
SplineSet
65 371 m 0
 65 385 71 380 71 387 c 0
 71 389 88 414 92 418 c 0
 115 442 140 532 178 582 c 0
 181 586 186 593 187 596 c 0
 193 611 224 611 224 611 c 0
 236 611 246 608 246 604 c 0
 246 603 248 602 249 602 c 0
 252 602 276 577 276 574 c 0
 276 562 395 453 412 423 c 0
 421 408 425 397 425 393 c 0
 425 380 429 380 429 372 c 0
 429 354 377 343 376 343 c 0
 376 343 363 342 350 368 c 0
 337 395 307 418 289 441 c 0
 287 444 284 447 283 447 c 0
 281 447 281 446 239 492 c 2
 225 508 l 1
 221 497 l 2
 217 487 191 434 191 433 c 0
 191 430 173 398 172 388 c 0
 172 384 158 371 158 367 c 0
 158 365 124 326 105 326 c 0
 98 326 94 331 82 343 c 0
 66 359 65 359 65 371 c 0
EndSplineSet
EndChar

StartChar: underscore
Encoding: 95 95 87
Width: 514
VWidth: 168
Flags: HW
LayerCount: 2
Fore
SplineSet
69 24 m 0
 70 24 132 22 169 22 c 0
 172 22 422 27 431 31 c 0
 434 32 436 33 439 33 c 0
 453 33 459 22 465 7 c 2
 473 -13 l 1
 467 -26 l 2
 461 -39 455 -44 448 -44 c 0
 447 -44 442 -47 438 -49 c 0
 423 -57 323 -52 317 -55 c 0
 314 -57 238 -59 170 -59 c 0
 143 -59 118 -59 99 -58 c 0
 46 -57 37 -55 27 -41 c 0
 23 -36 22 -33 22 -26 c 0
 22 -21 23 -15 24 -5 c 0
 27 19 29 24 69 24 c 0
EndSplineSet
EndChar

StartChar: emdash
Encoding: 8212 8212 88
Width: 514
VWidth: 510
Flags: HW
LayerCount: 2
Fore
SplineSet
539 282 m 1
 544 289 548 293 567 293 c 0
 581 293 599 271 603 271 c 0
 604 271 611 263 611 256 c 0
 611 253 609 248 608 241 c 0
 604 218 603 216 592 209 c 2
 583 203 l 1
 505 202 l 2
 384 201 239 194 236 194 c 0
 235 194 140 196 94 196 c 0
 51 196 -51 195 -52 195 c 0
 -77 195 -82 196 -86 198 c 0
 -94 203 -107 204 -113 211 c 0
 -120 220 -116 273 -98 273 c 0
 -96 273 -93 273 -92 274 c 0
 -91 275 -10 276 87 276 c 0
 225 276 460 282 464 282 c 0
 467 282 469 282 472 282 c 2
 539 282 l 1
EndSplineSet
EndChar

StartChar: endash
Encoding: 8211 8211 89
Width: 514
VWidth: 435
Flags: HW
LayerCount: 2
Fore
SplineSet
20 256 m 0
 20 289 104 289 140 289 c 0
 158 289 446 300 449 300 c 0
 464 301 467 284 469 270 c 0
 471 259 473 247 474 244 c 0
 474 244 476 228 450 223 c 0
 426 219 393 215 374 215 c 0
 357 215 363 218 349 218 c 0
 346 218 208 206 92 206 c 0
 29 206 26 219 21 246 c 0
 20 251 20 254 20 256 c 0
EndSplineSet
EndChar

StartChar: hyphen
Encoding: 45 45 90
Width: 514
VWidth: 446
Flags: HW
LayerCount: 2
Fore
SplineSet
36 268 m 0
 36 296 72 299 72 303 c 0
 72 312 220 310 266 316 c 0
 281 318 356 320 409 320 c 0
 442 320 443 319 449 313 c 0
 451 311 458 303 458 269 c 0
 458 242 437 240 413 239 c 0
 402 238 298 235 297 235 c 0
 295 235 108 227 101 226 c 0
 92 225 83 224 77 224 c 0
 51 224 47 234 40 252 c 0
 37 259 36 264 36 268 c 0
EndSplineSet
EndChar

StartChar: parenleft
Encoding: 40 40 91
Width: 514
VWidth: 868
Flags: HW
LayerCount: 2
Fore
SplineSet
353 -79 m 0
 353 -81 340 -102 320 -102 c 0
 301 -102 252 -48 237 -27 c 0
 223 -7 196 42 186 66 c 0
 170 104 168 108 160 137 c 0
 144 194 141 208 141 242 c 0
 141 243 141 321 145 343 c 0
 154 391 166 421 166 422 c 0
 166 432 222 552 247 574 c 0
 249 576 251 580 251 581 c 0
 251 584 269 608 279 618 c 0
 284 624 317 644 332 644 c 0
 343 644 349 636 359 617 c 2
 369 597 l 1
 366 588 l 2
 360 574 354 576 349 567 c 0
 347 564 343 560 339 558 c 0
 327 552 221 433 221 267 c 0
 221 213 224 204 256 108 c 0
 265 81 295 13 356 -36 c 0
 376 -52 353 -74 353 -79 c 0
EndSplineSet
EndChar

StartChar: parenright
Encoding: 41 41 92
Width: 514
VWidth: 861
Flags: HW
LayerCount: 2
Fore
SplineSet
161 -100 m 0
 148 -100 128 -77 128 -68 c 0
 128 -64 132 -54 135 -40 c 0
 141 -17 152 -26 166 -6 c 0
 170 0 180 11 187 20 c 0
 207 44 242 83 257 178 c 0
 259 194 263 215 265 226 c 0
 267 237 268 244 268 254 c 0
 268 255 265 347 258 362 c 0
 257 363 240 437 212 485 c 0
 207 493 204 501 204 502 c 0
 204 507 161 558 145 573 c 0
 127 589 130 597 134 611 c 0
 140 630 142 639 160 640 c 0
 168 640 205 629 209 625 c 0
 211 623 213 623 214 623 c 0
 216 623 218 615 237 591 c 0
 261 562 293 511 301 488 c 0
 312 461 320 438 326 415 c 0
 348 334 347 335 347 286 c 0
 347 202 338 180 338 170 c 0
 338 147 320 95 320 94 c 0
 320 90 301 48 293 33 c 0
 265 -18 215 -68 208 -82 c 0
 201 -96 162 -100 161 -100 c 0
EndSplineSet
EndChar

StartChar: bracketleft
Encoding: 91 91 93
Width: 514
VWidth: 855
Flags: HW
LayerCount: 2
Fore
SplineSet
125 407 m 0
 125 436 127 490 127 530 c 0
 127 548 126 561 125 577 c 2
 124 601 l 1
 130 607 135 613 138 619 c 0
 142 627 166 637 171 636 c 0
 185 633 200 631 209 631 c 0
 214 631 217 632 217 633 c 0
 217 635 239 635 239 630 c 0
 239 627 240 628 251 629 c 0
 257 630 280 630 305 630 c 0
 377 630 388 630 388 608 c 0
 388 592 389 558 377 558 c 0
 375 558 372 558 372 557 c 0
 371 555 279 551 239 551 c 0
 232 551 227 551 224 551 c 2
 210 553 l 1
 208 512 l 2
 207 489 207 461 207 437 c 0
 207 400 208 368 210 366 c 0
 212 364 212 341 212 262 c 0
 212 208 215 96 215 94 c 0
 215 63 212 20 212 19 c 2
 212 -10 l 1
 236 -10 l 2
 249 -10 260 -10 260 -9 c 0
 260 -7 276 -10 277 -7 c 0
 278 -5 287 -5 297 -5 c 0
 332 -5 330 -10 347 -11 c 0
 357 -11 358 -12 365 -19 c 0
 369 -23 375 -29 375 -66 c 0
 375 -85 358 -88 358 -88 c 0
 344 -88 373 -90 322 -90 c 0
 290 -90 249 -89 248 -89 c 0
 228 -89 209 -94 174 -94 c 0
 138 -94 122 -70 122 -51 c 0
 122 -35 127 -25 129 23 c 0
 130 63 135 67 135 127 c 0
 135 161 130 147 130 179 c 0
 130 186 131 215 131 248 c 0
 131 274 131 287 131 308 c 0
 131 321 131 321 131 322 c 0
 131 337 125 361 125 407 c 0
EndSplineSet
EndChar

StartChar: bracketright
Encoding: 93 93 94
Width: 514
VWidth: 837
Flags: HW
LayerCount: 2
Fore
SplineSet
156 619 m 0
 171 619 199 621 199 621 c 0
 229 621 199 616 264 616 c 0
 276 616 292 616 314 616 c 0
 340 616 348 616 354 613 c 0
 358 611 362 609 362 608 c 0
 362 607 364 604 367 600 c 0
 374 592 376 584 377 550 c 0
 382 369 381 369 381 307 c 0
 381 303 374 -68 374 -70 c 0
 372 -86 367 -91 356 -91 c 0
 346 -91 348 -98 336 -98 c 0
 322 -98 329 -93 280 -93 c 0
 233 -93 191 -95 187 -97 c 0
 185 -98 176 -98 165 -98 c 0
 120 -98 127 -87 116 -87 c 0
 115 -87 114 -87 114 -86 c 0
 114 -82 106 -79 106 -70 c 0
 106 -61 114 -24 120 -24 c 0
 124 -24 130 -16 146 -16 c 0
 151 -16 158 -17 166 -17 c 0
 201 -17 274 -12 275 -12 c 0
 276 -12 277 -12 278 -12 c 2
 294 -12 l 1
 296 -1 l 2
 297 5 297 51 297 101 c 0
 297 153 301 310 301 312 c 0
 301 365 298 516 296 530 c 2
 294 538 l 1
 253 539 l 2
 184 540 199 545 187 541 c 0
 184 540 178 539 170 539 c 0
 103 539 101 551 97 566 c 0
 94 576 93 584 93 590 c 0
 93 598 98 614 113 614 c 0
 123 614 110 619 136 619 c 0
 136 619 155 619 156 619 c 0
EndSplineSet
EndChar

StartChar: braceleft
Encoding: 123 123 95
Width: 514
VWidth: 874
Flags: HW
LayerCount: 2
Fore
SplineSet
261 642 m 0
 277 642 280 648 293 648 c 0
 304 648 325 645 334 643 c 0
 342 640 349 631 349 623 c 0
 349 609 345 585 340 580 c 0
 328 568 286 573 267 561 c 0
 248 549 241 542 236 533 c 2
 231 524 l 1
 235 506 l 2
 238 489 249 464 253 462 c 0
 258 460 280 400 285 400 c 0
 286 400 293 384 293 345 c 0
 293 321 290 330 288 319 c 0
 286 308 277 303 277 296 c 0
 277 288 292 279 292 275 c 0
 292 269 307 247 307 211 c 0
 307 153 251 67 251 60 c 0
 251 52 235 45 235 19 c 0
 235 6 239 -3 253 -15 c 0
 261 -22 261 -22 271 -21 c 0
 277 -20 285 -20 289 -20 c 0
 301 -20 305 -15 318 -15 c 0
 325 -15 331 -17 338 -20 c 2
 350 -26 l 1
 357 -44 l 2
 361 -56 363 -64 363 -70 c 0
 363 -86 349 -91 341 -91 c 0
 333 -91 321 -104 297 -104 c 0
 249 -104 241 -91 238 -91 c 0
 231 -91 172 -49 172 -41 c 0
 172 -40 171 -38 169 -36 c 0
 164 -30 155 10 155 28 c 0
 155 88 208 132 223 203 c 2
 226 219 l 1
 221 229 l 2
 216 238 213 241 206 241 c 0
 200 241 196 240 190 240 c 0
 185 240 179 241 167 245 c 0
 145 251 143 253 142 267 c 0
 141 276 137 282 137 293 c 0
 137 304 144 316 150 317 c 0
 156 318 158 323 162 323 c 0
 166 323 178 331 185 331 c 0
 188 331 195 334 201 339 c 0
 211 346 216 350 203 374 c 0
 195 389 193 399 175 432 c 0
 143 489 149 537 150 538 c 0
 151 539 152 543 152 547 c 0
 152 551 153 553 154 553 c 0
 155 553 156 555 156 556 c 0
 156 558 163 572 170 585 c 0
 174 592 195 612 200 614 c 0
 204 615 239 642 261 642 c 0
EndSplineSet
EndChar

StartChar: braceright
Encoding: 125 125 96
Width: 514
VWidth: 893
Flags: HW
LayerCount: 2
Fore
SplineSet
160 631 m 0
 160 650 178 655 178 655 c 0
 184 655 193 664 209 662 c 0
 255 658 282 653 299 633 c 0
 303 629 306 626 308 626 c 0
 310 626 311 625 310 624 c 0
 306 617 341 610 341 535 c 0
 341 469 307 419 306 419 c 0
 305 419 303 418 303 417 c 0
 303 414 276 374 276 362 c 0
 276 345 339 331 341 328 c 0
 343 324 359 323 362 312 c 0
 362 311 364 309 365 308 c 0
 367 306 369 300 369 294 c 0
 369 284 366 286 363 273 c 0
 362 267 361 265 353 261 c 0
 348 259 342 256 339 254 c 0
 329 247 296 249 296 231 c 0
 296 204 317 162 317 159 c 0
 317 158 332 127 332 68 c 0
 332 -6 309 -43 309 -44 c 0
 309 -47 298 -61 296 -61 c 0
 295 -61 293 -63 293 -64 c 0
 293 -74 270 -94 252 -100 c 0
 216 -111 216 -111 215 -110 c 0
 207 -104 125 -118 125 -75 c 0
 125 -60 138 -28 142 -26 c 0
 144 -25 149 -24 155 -24 c 0
 176 -24 185 -30 198 -30 c 0
 228 -30 236 -7 241 9 c 0
 246 23 251 61 251 80 c 0
 251 122 223 169 223 177 c 0
 223 186 213 208 213 232 c 0
 213 265 226 274 226 278 c 0
 226 280 227 283 229 285 c 0
 237 296 211 296 200 329 c 0
 196 340 195 347 195 365 c 0
 195 374 195 401 211 421 c 0
 212 422 261 488 261 535 c 0
 261 554 258 567 228 579 c 0
 220 582 217 582 205 580 c 0
 200 579 197 579 194 579 c 0
 183 579 160 597 160 631 c 0
EndSplineSet
EndChar

StartChar: slash
Encoding: 47 47 97
Width: 514
VWidth: 773
Flags: HW
LayerCount: 2
Fore
SplineSet
76 -35 m 0
 76 -5 129 88 128 88 c 0
 126 88 146 120 145 122 c 0
 145 124 160 154 159 155 c 0
 158 156 198 255 198 256 c 0
 198 259 224 317 225 326 c 0
 226 330 239 353 239 356 c 0
 239 360 287 460 294 469 c 0
 301 478 307 489 307 491 c 0
 307 492 l 0
 306 492 339 539 343 557 c 0
 344 564 349 579 365 579 c 0
 377 579 398 569 404 568 c 0
 406 568 419 559 419 546 c 0
 419 524 390 470 383 464 c 0
 362 427 l 0
 364 427 346 400 344 392 c 0
 343 385 328 361 329 360 c 0
 330 359 312 327 312 325 c 0
 312 324 285 264 285 258 c 0
 285 253 259 199 259 192 c 0
 259 184 218 92 218 91 c 0
 218 88 200 56 201 56 c 0
 202 56 168 -10 168 -10 c 0
 169 -10 156 -32 154 -46 c 0
 153 -51 134 -67 122 -67 c 0
 115 -67 94 -54 89 -54 c 0
 89 -54 76 -51 76 -35 c 0
EndSplineSet
EndChar

StartChar: backslash
Encoding: 92 92 98
Width: 514
VWidth: 773
Flags: HW
LayerCount: 2
Fore
SplineSet
236 192 m 0
 236 199 211 253 211 258 c 0
 211 272 142 411 141 412 c 0
 136 420 132 427 133 427 c 0
 136 427 76 513 76 546 c 0
 76 561 84 564 107 573 c 0
 116 576 126 579 130 579 c 0
 142 579 150 572 153 557 c 0
 157 539 188 492 188 492 c 0
 188 491 l 0
 188 485 209 460 208 458 c 0
 207 456 216 445 222 431 c 0
 227 417 256 359 256 356 c 0
 256 353 270 330 271 326 c 0
 272 317 297 259 297 256 c 0
 297 252 309 232 312 220 c 0
 323 180 351 123 351 122 c 0
 350 120 369 88 367 88 c 0
 365 88 403 21 402 20 c 0
 402 17 419 -15 419 -35 c 0
 419 -51 407 -54 407 -54 c 0
 402 -54 380 -67 373 -67 c 0
 361 -67 343 -51 342 -46 c 0
 340 -32 327 -10 328 -10 c 0
 330 -10 311 18 310 23 c 0
 309 28 293 56 294 56 c 0
 295 56 278 88 278 91 c 0
 278 92 236 184 236 192 c 0
EndSplineSet
EndChar

StartChar: less
Encoding: 60 60 99
Width: 514
VWidth: 729
Flags: HW
LayerCount: 2
Fore
SplineSet
373 556 m 0
 384 556 417 518 417 508 c 0
 417 499 401 484 327 409 c 0
 247 329 217 300 211 300 c 0
 209 300 179 277 179 275 c 0
 179 271 195 261 233 220 c 0
 284 165 301 155 306 143 c 0
 308 138 358 81 371 69 c 0
 398 42 392 43 402 33 c 0
 406 29 408 24 408 20 c 0
 408 14 405 8 397 -3 c 0
 386 -19 381 -26 364 -26 c 0
 336 -26 317 13 311 16 c 0
 299 22 236 106 223 115 c 0
 197 133 191 155 122 217 c 0
 108 230 74 262 78 277 c 0
 78 278 79 282 80 286 c 0
 82 302 87 308 101 314 c 0
 106 316 109 323 143 348 c 0
 200 390 267 463 271 463 c 0
 272 463 275 466 278 469 c 0
 297 493 346 544 356 549 c 0
 370 556 371 556 373 556 c 0
EndSplineSet
EndChar

StartChar: greater
Encoding: 62 62 100
Width: 514
VWidth: 729
Flags: HW
LayerCount: 2
Fore
SplineSet
78 508 m 0
 78 518 111 556 122 556 c 0
 142 556 204 486 217 469 c 0
 220 466 223 463 224 463 c 0
 228 463 295 390 352 348 c 0
 369 336 393 314 394 314 c 0
 408 308 413 302 415 286 c 0
 417 269 419 258 373 217 c 0
 304 155 298 133 272 115 c 0
 268 112 261 103 255 96 c 0
 250 90 193 20 184 16 c 0
 178 13 159 -26 131 -26 c 0
 114 -26 109 -19 98 -3 c 0
 90 8 87 14 87 20 c 0
 87 29 97 34 102 45 c 0
 106 53 142 85 147 93 c 0
 151 100 186 135 189 143 c 0
 194 156 210 164 262 220 c 0
 277 236 296 255 303 261 c 0
 310 267 316 274 316 275 c 0
 316 277 286 300 284 300 c 0
 278 300 247 329 168 409 c 0
 93 484 78 499 78 508 c 0
EndSplineSet
EndChar

StartChar: divide
Encoding: 247 247 101
Width: 514
VWidth: 641
Flags: HW
LayerCount: 2
Fore
SplineSet
191 436 m 0
 191 474 219 486 219 487 c 0
 219 489 225 489 232 496 c 0
 235 499 237 500 237 500 c 1
 237 498 246 504 255 505 c 0
 263 505 276 499 277 495 c 0
 281 485 301 484 301 466 c 0
 301 456 284 422 281 422 c 0
 281 422 280 422 280 423 c 0
 280 423 l 0
 279 423 272 417 269 411 c 0
 266 406 262 399 231 399 c 0
 218 399 212 402 207 409 c 0
 205 411 202 417 198 421 c 0
 193 427 191 429 191 436 c 0
389 329 m 0
 473 329 473 323 473 294 c 0
 473 281 472 273 470 268 c 0
 467 261 457 250 453 250 c 0
 391 247 142 250 78 243 c 0
 72 242 67 242 63 242 c 0
 57 242 60 243 46 245 c 0
 28 247 23 257 22 286 c 2
 21 300 l 1
 29 307 l 2
 33 311 37 314 39 314 c 0
 40 314 42 314 42 315 c 0
 42 317 60 321 83 323 c 0
 86 323 372 329 389 329 c 0
187 104 m 0
 187 108 190 114 190 120 c 0
 190 127 203 153 208 156 c 0
 212 158 234 165 247 165 c 0
 270 165 277 150 288 130 c 0
 294 119 297 112 297 106 c 0
 297 95 284 89 284 85 c 0
 284 82 270 61 268 61 c 0
 266 61 254 49 236 49 c 0
 228 49 213 59 209 59 c 0
 208 59 207 60 207 61 c 0
 207 63 197 65 194 77 c 0
 193 83 187 97 187 104 c 0
EndSplineSet
EndChar

StartChar: plusminus
Encoding: 177 177 102
Width: 514
VWidth: 745
Flags: HW
LayerCount: 2
Fore
SplineSet
199 460 m 0
 199 512 195 548 195 549 c 0
 195 565 200 567 215 576 c 0
 236 589 237 589 245 589 c 0
 250 589 256 589 257 588 c 0
 257 588 263 578 270 566 c 2
 284 544 l 1
 283 513 l 2
 282 487 281 451 281 450 c 0
 281 448 281 447 281 446 c 0
 282 437 277 438 329 433 c 0
 346 431 367 430 386 430 c 0
 427 430 439 434 443 434 c 0
 451 434 460 421 460 418 c 0
 463 402 466 382 466 375 c 0
 466 353 421 350 378 350 c 0
 359 350 340 350 326 352 c 0
 312 354 297 356 290 357 c 2
 278 358 l 1
 276 325 l 2
 276 315 276 307 276 300 c 0
 276 252 286 255 284 244 c 0
 283 238 279 231 277 231 c 0
 273 231 268 213 253 213 c 0
 247 213 242 207 236 208 c 0
 213 213 212 219 212 219 c 0
 212 220 210 224 207 228 c 0
 198 242 196 253 196 302 c 0
 196 304 196 307 196 310 c 2
 196 360 l 1
 150 358 l 2
 130 357 118 356 106 356 c 0
 19 356 19 370 19 395 c 0
 19 398 20 405 24 405 c 0
 27 405 27 411 31 411 c 0
 37 411 38 420 70 424 c 0
 71 424 147 437 165 438 c 0
 182 439 197 440 198 441 c 0
 199 441 199 449 199 460 c 0
283 99 m 0
 167 99 81 71 67 71 c 0
 65 71 58 72 49 77 c 0
 43 81 42 83 37 98 c 0
 31 120 30 120 35 130 c 0
 39 139 44 149 127 164 c 0
 160 170 217 179 270 179 c 0
 310 179 389 178 422 176 c 0
 470 173 470 173 470 149 c 0
 470 95 458 95 439 95 c 0
 427 95 313 99 285 99 c 0
 285 99 284 99 283 99 c 0
EndSplineSet
EndChar

StartChar: radical
Encoding: 8730 8730 103
Width: 514
VWidth: 857
Flags: HW
LayerCount: 2
Fore
SplineSet
27 224 m 0
 42 224 87 181 87 174 c 0
 87 168 123 91 123 90 c 0
 129 75 132 70 133 73 c 0
 133 75 158 227 162 244 c 0
 166 264 194 511 194 514 c 0
 201 585 201 587 207 595 c 0
 225 620 246 636 247 636 c 0
 252 636 253 640 257 638 c 0
 290 625 309 622 375 622 c 0
 380 622 435 623 436 623 c 0
 463 623 468 622 474 619 c 0
 479 617 483 616 484 616 c 0
 488 616 495 605 495 599 c 0
 495 587 508 582 502 567 c 0
 499 561 473 534 453 540 c 0
 444 543 426 544 405 544 c 0
 398 544 338 541 337 541 c 0
 318 541 303 543 287 547 c 2
 277 550 l 1
 275 518 l 2
 274 501 273 478 272 467 c 0
 269 423 239 214 239 211 c 0
 239 208 201 -38 187 -68 c 0
 183 -77 176 -83 170 -83 c 0
 154 -83 164 -88 149 -88 c 0
 129 -88 122 -76 115 -64 c 0
 102 -42 88 -20 83 -12 c 0
 51 34 24 131 10 143 c 0
 8 144 4 149 2 153 c 0
 -9 175 -9 175 -9 180 c 0
 -9 191 13 224 27 224 c 0
EndSplineSet
EndChar

StartChar: multiply
Encoding: 215 215 104
Width: 514
VWidth: 638
Flags: HW
LayerCount: 2
Fore
SplineSet
129 449 m 0
 132 449 242 340 248 340 c 0
 251 340 325 437 334 446 c 0
 348 461 340 467 350 474 c 0
 363 483 360 495 377 495 c 0
 387 495 402 492 402 488 c 0
 402 482 431 476 431 450 c 0
 431 437 395 395 395 395 c 0
 388 388 310 289 310 283 c 0
 310 269 374 258 452 117 c 0
 459 104 468 92 470 89 c 0
 472 86 473 82 473 78 c 0
 473 73 463 45 451 45 c 0
 445 45 435 34 431 35 c 0
 430 35 426 35 422 36 c 0
 414 37 410 44 404 46 c 0
 398 48 363 115 353 128 c 0
 334 154 290 198 274 208 c 0
 271 210 266 214 263 217 c 0
 259 220 255 224 245 210 c 0
 239 200 180 137 172 126 c 0
 170 124 170 124 110 51 c 0
 91 27 81 18 70 18 c 0
 59 18 22 42 22 57 c 0
 22 72 48 104 55 111 c 0
 68 123 96 162 122 190 c 0
 145 214 174 252 180 256 c 0
 181 257 186 261 190 266 c 2
 197 274 l 1
 188 284 l 2
 183 290 177 294 176 294 c 0
 173 294 76 389 76 396 c 0
 76 401 62 413 62 427 c 0
 62 442 92 465 97 465 c 0
 112 465 122 449 129 449 c 0
EndSplineSet
EndChar

StartChar: Sigma
Encoding: 931 931 105
AltUni2: 01d6f4.ffffffff.0 01d6ba.ffffffff.0
Width: 514
Flags: HW
AnchorPoint: "above" 257.52 609 basechar 0
LayerCount: 2
Fore
SplineSet
382.288085938 587.7890625 m 0
 389.297851562 587.7890625 423.25390625 587.250976562 423.666992188 587.250976562 c 0
 426.217773438 587.250976562 430.264648438 587.250976562 431.880859375 587.7890625 c 2
 433.0859375 587.7890625 l 2
 436.118164062 587.7890625 447.287109375 589 454.8828125 589 c 0
 463.782226562 589 472.478515625 589 477.071289062 584.408203125 c 0
 484.815429688 576.665039062 487.610351562 566.779296875 487.610351562 553.173828125 c 0
 487.610351562 536.7734375 484.086914062 519.465820312 484.086914062 490.770507812 c 0
 484.086914062 483.973632812 484.389648438 469.640625 484.389648438 469.426757812 c 0
 484.389648438 465.2734375 484.044921875 461.32421875 481.7421875 457.768554688 c 0
 476.642578125 449.380859375 468.278320312 445.82421875 457.3046875 445.82421875 c 0
 450.655273438 445.82421875 432.919921875 446.556640625 425.426757812 454.049804688 c 0
 418.559570312 460.91796875 418.4140625 467.095703125 418.4140625 486.84375 c 0
 418.4140625 487.721679688 418.4140625 488.626953125 418.4140625 489.559570312 c 0
 418.4140625 504.845703125 417.491210938 512.314453125 416.204101562 514.447265625 c 0
 415.2109375 516.094726562 411.444335938 517.7734375 392.764648438 518.491210938 c 0
 375.923828125 519.293945312 359.48828125 519.694335938 344.0546875 519.694335938 c 0
 313.27734375 519.694335938 286.405273438 518.067382812 268.58203125 514.981445312 c 0
 219.216796875 504.6171875 162.521484375 505.265625 140.990234375 502.51171875 c 0
 140.4921875 500.932617188 139.899414062 497.192382812 139.844726562 496.870117188 c 0
 142.30859375 493.766601562 152.397460938 481.69140625 152.528320312 481.541992188 c 0
 154.990234375 478.733398438 157.158203125 476.701171875 158.764648438 473.48828125 c 0
 159.836914062 471.34375 161.49609375 469.545898438 161.49609375 469.545898438 c 2
 161.623046875 469.482421875 169.149414062 465.5859375 171.275390625 459.202148438 c 0
 172.072265625 456.80859375 202.953125 425.66015625 208.017578125 422.056640625 c 0
 211.797851562 420.037109375 214.87890625 416.899414062 216.826171875 413.0703125 c 0
 217.139648438 412.72265625 219.411132812 410.919921875 220.833984375 410.208007812 c 0
 227.829101562 406.7109375 243.9921875 389.013671875 247.166015625 382.665039062 c 0
 249.497070312 378.00390625 251.83984375 383.0078125 259.276367188 368.1328125 c 0
 259.765625 367.154296875 262.984375 362.73828125 264.75390625 360.793945312 c 0
 269.752929688 357.185546875 273.657226562 351.504882812 276.359375 344.8671875 c 0
 278.455078125 340.715820312 283.455078125 331.83984375 284.58203125 329.627929688 c 0
 288.423828125 323.057617188 289.572265625 314.40234375 289.572265625 306.833007812 c 0
 289.572265625 297.296875 288.509765625 294.684570312 275.6796875 277.037109375 c 0
 263.510742188 258.94140625 220.184570312 220.3671875 214.469726562 208.9375 c 0
 212.407226562 204.814453125 209.390625 202.818359375 207.09375 200.796875 c 0
 203.546875 197.67578125 203.546875 197.67578125 202.543945312 197.061523438 c 0
 198.057617188 194.147460938 199.751953125 188.741210938 189.827148438 180.270507812 c 0
 184.807617188 175.986328125 185.997070312 170.2421875 176.748046875 160.990234375 c 0
 166.849609375 151.094726562 166.96484375 144.2578125 159.2109375 140.291015625 c 0
 155.168945312 136.59375 152.1015625 127.12890625 144.673828125 123.334960938 c 0
 144.416015625 123.102539062 129.961914062 101.48046875 127.8359375 92.978515625 c 0
 126.100585938 86.037109375 121.78515625 80.5966796875 118.62109375 77.4345703125 c 0
 116.637695312 75.4501953125 116.025390625 74.7158203125 114.0390625 68.4501953125 c 1
 131.874023438 66.47265625 157.547851562 67.552734375 178.504882812 64.5859375 c 0
 183.754882812 64.0048828125 191.098632812 63.736328125 191.341796875 63.7353515625 c 0
 195.047851562 63.720703125 198.537109375 63.9921875 203.200195312 64.5751953125 c 0
 259.37109375 72.236328125 341.498046875 66.7451171875 367.80078125 73.3798828125 c 0
 373.61328125 74.8466796875 378.217773438 76.017578125 384.459960938 76.017578125 c 0
 390.619140625 76.017578125 404.90625 75.546875 419.205078125 71.5947265625 c 1
 422.045898438 78.8046875 422.045898438 83.7998046875 422.045898438 97.201171875 c 0
 422.045898438 116.825195312 423.15625 128.561523438 436.018554688 134.1953125 c 0
 440.955078125 136.650390625 445.809570312 138.5625 451.490234375 138.5625 c 0
 454.466796875 138.5625 457.424804688 138.025390625 460.420898438 137.06640625 c 0
 471.377929688 134.74609375 475.862304688 129.702148438 492.463867188 111.024414062 c 1
 495.040039062 38.904296875 495.040039062 38.904296875 495.040039062 34.9345703125 c 0
 495.040039062 17.94140625 494.098632812 12.4658203125 481.41796875 1.896484375 c 0
 473.893554688 -4.3740234375 467.5859375 -7.40625 456.966796875 -7.40625 c 0
 456.697265625 -7.40625 438.533203125 -7.2255859375 430.493164062 -2.400390625 c 0
 417.49609375 5.3984375 381.056640625 5.5283203125 380.551757812 5.5283203125 c 0
 355.620117188 5.5283203125 376.0625 3.814453125 302.625 3.814453125 c 0
 301.694335938 3.814453125 300.77734375 3.814453125 299.875976562 3.814453125 c 0
 217.391601562 3.814453125 233.096679688 -5.4345703125 201.1484375 -5.4345703125 c 0
 178.8515625 -5.4345703125 141.801757812 1.392578125 121.862304688 1.392578125 c 2
 121.65234375 1.392578125 l 2
 105.83203125 1.83203125 56.9951171875 3.1884765625 43.068359375 12.0673828125 c 0
 40.1982421875 13.572265625 35.3837890625 17.115234375 33.787109375 17.9130859375 c 0
 23.794921875 22.91015625 20 31.794921875 20 43.9169921875 c 0
 20 62.8623046875 22.5859375 70.328125 31.80859375 78.0126953125 c 0
 36.3232421875 80.271484375 36.0146484375 90.2685546875 46.1708984375 96.0615234375 c 0
 47.2412109375 98.1982421875 47.6943359375 99.8447265625 48.6298828125 101.715820312 c 0
 49.2529296875 102.962890625 63.6875 126.536132812 63.9736328125 127.39453125 c 0
 66.98046875 136.413085938 75.93359375 147.048828125 78.4384765625 153.845703125 c 0
 80.337890625 160.963867188 85.208984375 165.475585938 87.5625 167.829101562 c 0
 93.361328125 173.627929688 96.216796875 183.484375 104.025390625 187.385742188 c 0
 106.169921875 188.458007812 107.96875 190.119140625 107.96875 190.119140625 c 1
 112.201171875 198.58203125 125.989257812 216.470703125 126.1328125 216.759765625 c 0
 132.731445312 229.956054688 135.025390625 223.088867188 138.155273438 232.474609375 c 1
 144.147460938 241.462890625 144.600585938 242.143554688 148.700195312 244.236328125 c 0
 151.846679688 247.06640625 152.677734375 253.54296875 163.331054688 262.672851562 c 0
 164.923828125 264.0390625 166.01953125 265.178710938 166.157226562 265.323242188 c 0
 171.481445312 275.711914062 200.286132812 296.85546875 206.091796875 311.372070312 c 0
 206.857421875 312.51953125 207.473632812 313.443359375 208.245117188 315.202148438 c 1
 201.3828125 322.0625 200.543945312 322.900390625 198.791992188 326.404296875 c 0
 197.21484375 329.559570312 195.564453125 331.516601562 174.752929688 352.326171875 c 0
 168.803710938 358.276367188 164.323242188 362.870117188 160.859375 366.422851562 c 0
 152.850585938 374.634765625 150.403320312 376.790039062 148.83203125 377.575195312 c 0
 136.966796875 383.5078125 144.981445312 382.096679688 134.791992188 392.2890625 c 0
 133.88671875 393.194335938 132.423828125 394.55859375 130.765625 396.099609375 c 0
 126.735351562 399.844726562 121.655273438 404.430664062 118.356445312 408.830078125 c 0
 105.8125 425.5546875 85.3798828125 443.284179688 76.0673828125 460.978515625 c 0
 74.625 463.720703125 73.0693359375 466.12109375 73.0322265625 466.158203125 c 0
 64.9599609375 474.227539062 61.7744140625 493.890625 54.43359375 511.033203125 c 0
 51.5166015625 518.328125 51.4853515625 524.505859375 51.4853515625 530.357421875 c 0
 51.4853515625 530.482421875 51.4853515625 530.608398438 51.4853515625 530.733398438 c 0
 51.4853515625 546.961914062 55.017578125 551.16796875 71.662109375 558.10546875 c 0
 90.7666015625 566.913085938 92.6220703125 567.76953125 144.420898438 570.419921875 c 0
 204.182617188 573.478515625 204.182617188 573.478515625 226.62890625 579.090820312 c 0
 249.135742188 584.71875 295.952148438 588.022460938 355.247070312 588.022460938 c 0
 364.01171875 588.022460938 373.040039062 587.946289062 382.288085938 587.7890625 c 0
EndSplineSet
EndChar

StartChar: asterisk
Encoding: 42 42 106
Width: 514
VWidth: 680
Flags: HW
LayerCount: 2
Fore
SplineSet
85 418 m 0
 85 424 102 442 113 442 c 0
 118 442 123 440 131 434 c 0
 147 422 158 416 177 400 c 0
 195 385 207 377 212 374 c 0
 216 372 216 372 215 380 c 0
 215 384 213 435 213 457 c 0
 213 475 215 508 226 518 c 0
 230 521 234 524 235 524 c 0
 241 524 271 517 275 515 c 0
 281 512 288 487 288 475 c 0
 288 450 289 482 296 385 c 2
 298 370 l 1
 359 444 376 451 390 451 c 0
 407 451 429 412 429 401 c 0
 429 393 422 386 400 363 c 0
 372 335 351 309 351 304 c 0
 351 302 416 299 421 299 c 0
 438 299 440 303 447 303 c 0
 463 303 475 263 475 257 c 0
 475 246 468 230 460 230 c 0
 458 230 456 229 456 228 c 0
 456 224 437 221 413 221 c 0
 403 221 392 221 382 222 c 2
 363 224 l 1
 394 187 402 177 414 168 c 0
 423 161 428 156 428 150 c 0
 428 141 406 107 404 107 c 0
 399 107 396 101 379 101 c 0
 364 101 340 128 332 138 c 0
 332 138 311 161 300 175 c 1
 298 162 l 2
 298 161 289 17 287 13 c 0
 284 8 278 0 268 0 c 0
 211 0 211 12 211 54 c 0
 211 142 224 172 212 155 c 0
 208 150 152 97 152 99 c 0
 152 104 138 79 120 79 c 0
 114 79 108 81 100 86 c 0
 79 100 77 103 77 115 c 0
 77 134 87 136 87 142 c 0
 87 143 87 145 88 145 c 0
 89 145 107 163 127 184 c 2
 164 222 l 1
 131 222 l 2
 128 222 124 222 120 222 c 0
 31 222 20 222 20 259 c 0
 20 284 22 284 77 294 c 0
 131 304 162 302 175 304 c 0
 180 305 85 377 85 418 c 0
EndSplineSet
EndChar

StartChar: exclam
Encoding: 33 33 107
Width: 514
VWidth: 780
Flags: HW
LayerCount: 2
Fore
SplineSet
212 248 m 0
 212 285 214 361 214 428 c 0
 214 464 213 484 212 487 c 0
 212 488 201 558 201 559 c 0
 201 573 209 576 235 584 c 0
 246 587 251 589 255 589 c 0
 270 589 277 568 281 556 c 0
 293 519 294 516 294 463 c 0
 294 461 294 337 294 282 c 0
 294 244 294 225 294 224 c 0
 294 187 277 202 277 191 c 0
 277 186 266 181 260 181 c 0
 250 181 223 193 218 200 c 0
 214 206 212 214 212 248 c 0
181 14 m 0
 181 68 235 97 247 97 c 0
 265 97 258 89 264 89 c 0
 268 89 284 64 286 64 c 0
 287 64 308 53 308 18 c 0
 308 11 305 0 300 -5 c 0
 293 -12 270 -40 264 -40 c 0
 254 -40 263 -49 234 -49 c 0
 205 -49 211 -38 202 -38 c 0
 194 -38 181 -11 181 14 c 0
EndSplineSet
EndChar

StartChar: question
Encoding: 63 63 108
Width: 514
VWidth: 804
Flags: HW
LayerCount: 2
Fore
SplineSet
125 419 m 0
 125 419 119 407 109 407 c 0
 78 407 71 417 63 427 c 1
 67 454 l 2
 69 472 71 482 74 487 c 0
 89 514 113 540 113 541 c 0
 113 545 164 579 165 581 c 0
 167 585 195 591 198 596 c 0
 201 600 259 611 295 611 c 0
 296 611 295 611 296 611 c 0
 309 611 344 602 350 597 c 0
 352 595 354 593 355 593 c 0
 366 592 382 576 392 572 c 0
 397 570 411 553 411 549 c 0
 411 548 431 527 431 484 c 0
 431 428 395 376 394 375 c 0
 392 373 391 371 390 369 c 0
 388 363 358 330 341 316 c 0
 300 281 237 247 236 246 c 0
 230 241 231 242 233 232 c 0
 235 225 252 182 252 169 c 0
 252 153 239 148 222 143 c 0
 209 139 200 137 196 137 c 0
 190 137 177 149 175 157 c 0
 173 166 169 168 166 180 c 0
 165 185 162 192 161 195 c 0
 161 196 150 219 150 253 c 0
 150 264 152 266 162 286 c 0
 173 307 258 346 297 383 c 0
 312 397 337 433 343 449 c 0
 346 457 350 478 350 485 c 0
 350 487 349 488 349 488 c 0
 348 488 346 492 345 498 c 0
 337 527 286 530 280 530 c 0
 269 530 256 528 241 524 c 0
 211 517 195 508 170 483 c 0
 131 445 150 450 127 423 c 0
 126 422 125 420 125 419 c 0
169 29 m 0
 169 47 205 86 214 90 c 0
 223 94 237 99 277 53 c 0
 286 42 287 41 287 31 c 2
 287 21 l 1
 268 -1 l 2
 252 -19 243 -29 220 -29 c 0
 219 -29 219 -29 218 -29 c 0
 217 -29 173 5 171 17 c 0
 171 17 169 28 169 29 c 0
EndSplineSet
EndChar

StartChar: numbersign
Encoding: 35 35 109
Width: 514
VWidth: 745
Flags: HW
LayerCount: 2
Fore
SplineSet
60 355 m 0
 69 355 112 369 123 369 c 0
 125 369 128 370 128 371 c 0
 128 374 152 373 155 379 c 0
 160 388 160 432 163 448 c 0
 163 449 179 542 179 543 c 0
 179 549 187 560 191 561 c 0
 192 561 198 562 205 562 c 0
 224 562 232 562 236 557 c 0
 245 545 241 477 245 475 c 0
 245 475 245 473 245 471 c 0
 245 460 238 389 238 388 c 0
 238 384 239 383 241 383 c 0
 246 383 243 386 276 388 c 2
 300 390 l 1
 306 422 l 2
 312 450 320 479 331 512 c 0
 336 529 340 537 348 542 c 2
 356 547 l 1
 373 542 l 2
 391 537 398 534 398 513 c 0
 398 512 395 472 382 397 c 1
 381 389 l 1
 392 389 l 2
 405 389 433 392 444 392 c 0
 470 392 458 379 464 379 c 0
 466 379 471 370 471 365 c 0
 471 359 478 350 478 343 c 0
 478 299 367 313 367 309 c 0
 366 308 355 229 355 223 c 0
 355 221 378 226 431 226 c 0
 458 226 471 226 471 182 c 0
 471 150 463 149 427 147 c 0
 410 146 392 145 386 145 c 0
 372 145 364 141 353 141 c 0
 348 141 344 140 343 139 c 0
 340 134 337 76 337 48 c 0
 337 24 343 28 338 16 c 0
 336 10 307 -7 300 -6 c 0
 277 -3 272 -2 259 18 c 0
 256 22 256 25 256 38 c 0
 256 39 257 117 259 125 c 0
 260 129 260 129 258 128 c 0
 250 125 206 122 206 117 c 0
 206 111 199 36 199 16 c 0
 199 9 198 -40 178 -46 c 0
 176 -47 173 -49 172 -50 c 0
 170 -53 152 -53 150 -53 c 0
 130 -53 124 -40 124 -40 c 0
 124 -34 109 -31 109 -14 c 0
 110 7 115 -19 120 55 c 0
 121 79 122 91 124 105 c 1
 111 104 l 2
 92 103 76 100 57 100 c 0
 44 100 16 100 16 142 c 0
 16 165 65 170 70 175 c 0
 71 176 83 179 96 181 c 0
 132 186 130 186 132 195 c 0
 133 198 148 296 141 296 c 0
 130 296 58 282 52 282 c 0
 41 282 38 277 30 277 c 0
 20 277 6 297 6 306 c 0
 6 310 7 322 8 324 c 0
 9 325 51 355 60 355 c 0
270 211 m 0
 270 213 282 284 284 300 c 0
 285 307 285 308 281 308 c 0
 279 308 266 306 252 305 c 2
 227 304 l 1
 224 281 l 2
 224 279 213 204 213 203 c 0
 212 200 214 201 230 204 c 0
 253 209 270 209 270 211 c 0
EndSplineSet
EndChar

StartChar: at
Encoding: 64 64 110
Width: 514
VWidth: 721
Flags: HW
LayerCount: 2
Fore
SplineSet
381 128 m 0
 396 128 398 113 402 113 c 0
 403 113 404 112 404 111 c 0
 404 109 421 91 409 82 c 0
 408 81 406 78 405 75 c 0
 400 54 287 16 202 16 c 0
 181 16 157 18 152 20 c 0
 151 20 120 29 98 44 c 0
 75 60 57 88 54 88 c 0
 51 88 35 115 35 120 c 0
 35 124 26 136 17 172 c 0
 12 192 11 200 11 241 c 0
 11 290 28 365 118 480 c 0
 131 497 186 558 296 558 c 0
 326 558 382 527 383 527 c 0
 397 522 452 463 465 421 c 0
 466 416 468 413 469 413 c 0
 471 413 477 388 479 383 c 0
 485 371 488 347 488 322 c 0
 488 253 463 223 462 222 c 0
 459 219 452 210 445 202 c 0
 434 190 427 182 424 182 c 0
 410 182 408 172 384 172 c 0
 381 172 351 172 345 180 c 0
 345 180 316 200 314 217 c 0
 313 221 313 225 312 225 c 0
 305 225 268 177 207 177 c 0
 176 177 155 205 155 206 c 0
 152 221 143 218 143 247 c 0
 143 273 143 307 173 351 c 0
 185 368 205 391 208 391 c 0
 211 391 226 405 230 405 c 0
 231 405 232 406 232 407 c 0
 232 407 251 421 278 421 c 0
 318 421 333 407 334 407 c 0
 337 407 353 392 353 390 c 0
 353 385 366 377 366 367 c 0
 366 362 365 349 364 346 c 0
 363 344 364 341 367 338 c 0
 389 314 376 253 385 253 c 0
 386 253 410 266 410 314 c 0
 410 370 381 417 380 418 c 0
 371 431 343 460 335 464 c 0
 334 464 306 479 270 479 c 0
 269 479 230 478 193 445 c 0
 161 417 115 345 97 297 c 0
 90 279 87 257 87 234 c 0
 87 205 92 154 128 119 c 0
 142 105 156 92 212 92 c 0
 280 92 366 128 381 128 c 0
296 349 m 0
 294 350 292 350 289 350 c 0
 282 350 274 347 264 340 c 0
 246 329 246 328 232 305 c 0
 228 298 216 279 216 255 c 0
 216 248 250 266 266 287 c 0
 271 294 277 301 279 303 c 0
 285 309 283 317 293 335 c 0
 299 346 299 348 296 349 c 0
EndSplineSet
EndChar

StartChar: dollar
Encoding: 36 36 111
Width: 514
VWidth: 807
Flags: HW
LayerCount: 2
Fore
SplineSet
141 519 m 0
 141 519 172 536 185 536 c 0
 192 536 190 587 201 602 c 0
 205 608 220 612 227 598 c 0
 230 592 231 585 231 564 c 2
 232 538 l 1
 242 538 l 2
 248 538 255 537 257 537 c 0
 263 537 260 550 263 555 c 0
 268 562 269 593 283 593 c 0
 306 593 307 578 307 571 c 0
 307 560 305 546 305 540 c 0
 305 532 307 530 316 530 c 0
 328 530 372 522 375 519 c 0
 377 517 379 517 380 517 c 0
 384 517 392 499 392 493 c 0
 392 489 390 486 385 475 c 0
 378 460 375 454 359 454 c 0
 350 454 337 455 318 458 c 2
 300 461 l 1
 301 451 l 2
 301 449 301 447 301 444 c 0
 301 415 297 400 297 400 c 0
 297 399 298 399 302 399 c 0
 309 399 320 400 329 400 c 0
 369 400 428 359 437 294 c 0
 438 286 439 272 439 255 c 0
 439 235 438 212 437 202 c 0
 431 156 408 121 408 120 c 0
 408 118 379 74 344 58 c 0
 315 45 306 41 304 41 c 0
 303 41 296 40 296 24 c 0
 296 24 296 -2 296 -4 c 0
 296 -31 292 -9 292 -38 c 0
 292 -46 290 -49 284 -49 c 0
 271 -49 277 -38 268 -28 c 0
 266 -25 262 -18 259 -13 c 0
 251 5 251 5 251 7 c 0
 251 7 250 23 242 20 c 0
 240 19 232 19 222 19 c 0
 220 19 217 19 215 19 c 2
 192 19 l 1
 192 0 l 2
 190 -32 187 -47 178 -60 c 0
 171 -70 152 -61 152 -61 c 0
 151 -60 151 -55 151 -50 c 0
 151 -29 146 -60 145 -1 c 2
 144 34 l 1
 131 43 l 2
 90 70 65 114 64 117 c 0
 60 127 58 121 47 155 c 0
 42 170 40 176 40 181 c 0
 40 181 44 211 46 213 c 0
 48 216 74 224 82 224 c 0
 86 224 88 222 88 218 c 0
 88 210 102 193 109 180 c 0
 119 161 126 152 137 140 c 0
 147 129 148 129 149 134 c 0
 151 139 150 154 153 172 c 0
 154 177 162 250 162 258 c 0
 162 264 161 266 158 266 c 0
 138 266 137 275 129 275 c 0
 126 275 106 288 106 290 c 0
 106 300 76 298 76 390 c 0
 76 413 80 402 80 411 c 0
 80 427 99 477 116 493 c 0
 124 500 120 504 132 511 c 0
 144 517 138 519 141 519 c 0
247 441 m 0
 247 465 254 463 249 466 c 0
 247 467 243 467 238 467 c 2
 230 467 l 1
 230 457 l 2
 230 442 227 436 225 395 c 2
 223 367 l 1
 232 372 l 2
 238 375 241 377 241 380 c 0
 241 408 247 418 247 441 c 0
154 375 m 0
 154 350 168 346 169 346 c 0
 177 346 175 401 180 444 c 0
 181 450 181 456 181 456 c 1
 178 456 171 445 164 429 c 0
 157 413 154 406 154 375 c 0
355 295 m 0
 355 295 343 320 325 320 c 0
 325 320 290 320 290 307 c 0
 290 306 287 217 287 197 c 0
 287 178 287 155 287 130 c 2
 287 118 l 1
 299 124 l 2
 307 128 316 135 327 146 c 0
 342 161 343 163 348 180 c 0
 354 200 357 222 357 249 c 0
 357 267 355 291 355 295 c 0
235 101 m 0
 235 109 233 83 233 152 c 0
 233 177 234 216 234 239 c 0
 234 262 233 281 233 281 c 0
 233 281 229 281 224 279 c 0
 213 275 214 277 208 217 c 0
 203 164 199 118 196 98 c 1
 214 97 l 2
 218 97 221 97 224 97 c 0
 232 97 235 98 235 101 c 0
EndSplineSet
EndChar

StartChar: percent
Encoding: 37 37 112
Width: 514
VWidth: 657
Flags: HW
LayerCount: 2
Fore
SplineSet
73 254 m 0
 58 254 2 269 2 352 c 0
 2 416 28 453 29 454 c 0
 29 454 48 488 66 491 c 0
 85 494 94 505 131 505 c 0
 166 505 174 499 200 480 c 0
 212 464 l 0
 212 459 223 446 223 422 c 0
 223 378 190 331 186 328 c 0
 179 322 154 285 115 263 c 0
 106 258 85 254 73 254 c 0
153 421 m 1
 143 430 142 433 134 433 c 0
 133 432 l 0
 110 432 99 415 87 415 c 0
 78 415 76 412 71 390 c 0
 69 382 68 375 68 366 c 0
 68 347 68 321 79 321 c 0
 97 321 145 378 151 410 c 2
 153 421 l 1
371 456 m 0
 377 456 385 469 399 469 c 0
 418 469 423 462 428 462 c 0
 442 462 447 435 447 425 c 0
 447 425 446 418 446 415 c 0
 446 408 440 397 436 397 c 0
 435 397 326 287 326 288 c 0
 326 288 217 174 206 159 c 0
 196 145 160 107 139 79 c 0
 139 78 106 36 93 36 c 0
 91 36 52 53 52 69 c 0
 52 83 58 97 102 156 c 0
 143 211 189 264 199 270 c 0
 207 274 198 272 265 339 c 0
 324 398 360 436 361 441 c 0
 362 447 368 456 371 456 c 0
263 94 m 0
 263 96 270 235 365 235 c 0
 371 236 387 222 392 222 c 0
 394 222 397 219 399 216 c 0
 402 211 404 210 415 208 c 0
 429 206 461 193 468 187 c 0
 485 172 498 156 498 148 c 0
 498 146 497 146 497 135 c 0
 496 105 470 75 470 75 c 0
 467 72 462 67 460 64 c 0
 459 63 402 -2 339 -2 c 0
 291 -2 269 51 269 52 c 0
 269 59 263 80 263 94 c 0
421 127 m 0
 421 131 347 146 346 146 c 0
 342 146 333 118 333 93 c 0
 333 63 343 66 351 69 c 0
 394 83 421 126 421 127 c 0
EndSplineSet
EndChar

StartChar: one
Encoding: 49 49 113
AltUni2: 01d7cf.ffffffff.0
Width: 514
VWidth: 733
Flags: HW
LayerCount: 2
Fore
SplineSet
209 386 m 0
 209 409 206 520 206 521 c 0
 206 560 208 561 241 567 c 0
 250 569 257 569 262 569 c 0
 274 569 278 564 280 551 c 0
 290 495 290 494 290 444 c 0
 290 403 285 48 279 34 c 0
 276 26 267 19 260 19 c 0
 251 19 220 24 212 27 c 0
 209 28 199 36 199 47 c 0
 199 48 202 63 205 187 c 0
 209 374 209 374 209 386 c 0
EndSplineSet
EndChar

StartChar: integral
Encoding: 8747 8747 114
Width: 514
VWidth: 1064
Flags: HW
LayerCount: 2
Fore
SplineSet
15 -132 m 0
 15 -130 2 -111 2 -109 c 0
 2 -107 -15 -83 -17 -77 c 0
 -19 -73 -19 -70 -18 -60 c 0
 -18 -58 12 -27 28 -30 c 0
 31 -30 35 -31 36 -31 c 0
 38 -32 65 -67 81 -84 c 2
 93 -96 l 1
 105 -83 l 2
 141 -45 170 11 177 59 c 0
 186 127 237 371 240 404 c 0
 242 433 246 433 246 447 c 0
 246 455 256 501 260 533 c 0
 260 534 276 651 277 665 c 0
 280 694 298 740 312 754 c 0
 314 756 345 782 365 778 c 0
 386 774 434 782 449 765 c 0
 452 762 455 760 456 760 c 0
 466 760 505 695 508 692 c 0
 522 680 508 659 505 658 c 0
 497 655 509 646 488 633 c 0
 483 630 479 629 474 629 c 0
 459 629 436 649 434 653 c 0
 426 670 421 678 413 687 c 2
 404 697 l 1
 393 697 382 698 371 698 c 1
 367 684 l 2
 359 661 351 616 349 587 c 0
 347 553 316 359 309 326 c 0
 302 292 298 258 295 251 c 0
 291 245 292 225 290 218 c 0
 277 157 261 50 253 23 c 0
 249 9 236 -33 231 -37 c 0
 229 -39 208 -83 204 -88 c 0
 202 -90 160 -147 146 -155 c 0
 115 -173 107 -173 99 -173 c 0
 73 -173 67 -172 58 -166 c 0
 53 -163 48 -160 45 -159 c 0
 40 -158 15 -135 15 -132 c 0
EndSplineSet
Substitution2: "ss01-display-operators-1" integral.disp
EndChar

StartChar: equal
Encoding: 61 61 115
Width: 514
VWidth: 596
Flags: HW
LayerCount: 2
Fore
SplineSet
325 440 m 0
 399 440 404 453 441 453 c 0
 470 453 472 440 474 423 c 0
 476 412 477 404 477 399 c 0
 477 377 451 374 451 374 c 0
 426 374 412 361 333 360 c 0
 205 357 174 357 173 356 c 0
 172 356 123 346 69 346 c 0
 35 346 49 351 38 351 c 0
 35 351 30 354 25 359 c 2
 17 366 l 1
 17 384 l 2
 17 394 17 403 17 404 c 0
 17 410 27 416 37 417 c 0
 54 419 68 422 74 424 c 0
 94 431 232 440 325 440 c 0
358 256 m 0
 410 256 437 267 459 267 c 0
 488 267 485 248 491 245 c 0
 494 243 490 233 490 217 c 0
 490 212 l 0
 490 195 484 190 463 188 c 0
 434 186 421 175 368 175 c 0
 325 175 276 183 249 183 c 0
 225 183 54 169 52 169 c 0
 39 169 36 170 32 174 c 0
 29 177 27 179 27 180 c 0
 27 181 27 183 26 183 c 0
 24 183 18 211 18 218 c 0
 18 223 21 221 21 224 c 0
 21 234 68 246 69 246 c 0
 71 246 73 247 73 248 c 0
 75 255 182 262 253 262 c 0
 312 262 312 256 358 256 c 0
EndSplineSet
EndChar

StartChar: approxequal
Encoding: 8776 8776 116
Width: 514
VWidth: 658
Flags: HW
LayerCount: 2
Fore
SplineSet
-57 338 m 0
 -57 362 -36 378 -36 385 c 0
 -36 389 -13 416 -4 422 c 0
 41 455 45 459 86 469 c 0
 99 472 109 475 110 476 c 0
 111 477 120 477 132 477 c 0
 154 477 197 469 200 465 c 0
 202 462 247 456 330 393 c 0
 348 379 355 374 363 374 c 0
 392 374 428 415 442 431 c 0
 465 457 468 459 478 459 c 0
 484 459 527 438 527 418 c 0
 527 395 494 365 455 329 c 0
 449 324 434 316 432 314 c 0
 427 308 390 294 380 294 c 0
 361 294 384 292 367 292 c 0
 344 292 318 297 296 317 c 0
 274 337 222 372 202 380 c 0
 180 389 145 396 128 396 c 0
 127 396 72 394 29 341 c 0
 27 339 -2 302 -19 302 c 0
 -28 302 -57 319 -57 338 c 0
395 135 m 0
 386 135 378 129 354 129 c 0
 353 129 293 130 259 166 c 0
 247 179 242 182 216 191 c 0
 206 195 189 201 179 206 c 0
 159 216 139 221 124 221 c 0
 121 221 85 220 74 193 c 0
 74 193 61 169 46 169 c 0
 45 169 l 0
 40 169 29 172 20 175 c 0
 5 180 0 182 0 191 c 0
 0 196 2 203 4 213 c 0
 11 242 13 246 27 260 c 0
 38 272 73 301 126 301 c 0
 166 301 222 276 223 276 c 0
 226 274 239 269 251 265 c 0
 286 252 289 250 310 229 c 0
 319 220 323 219 339 214 c 2
 358 208 l 1
 377 213 l 1
 459 232 474 302 499 302 c 0
 506 302 551 279 551 259 c 0
 551 244 494 173 459 160 c 0
 456 159 419 135 395 135 c 0
EndSplineSet
EndChar

StartChar: notequal
Encoding: 8800 8800 117
Width: 514
VWidth: 697
Flags: HW
LayerCount: 2
Fore
SplineSet
174 439 m 0
 217 439 248 439 260 436 c 1
 284 484 l 2
 304 524 313 541 321 542 c 0
 324 542 325 543 326 543 c 0
 327 545 330 541 342 541 c 0
 353 541 350 537 357 537 c 0
 366 537 377 518 377 505 c 0
 377 486 350 439 350 437 c 0
 350 436 388 435 416 435 c 0
 435 435 459 436 459 436 c 0
 473 436 477 433 485 425 c 2
 494 416 l 1
 494 395 l 2
 494 383 493 373 493 372 c 0
 492 364 479 354 392 354 c 0
 376 354 327 355 326 355 c 0
 319 355 319 356 309 355 c 1
 292 320 l 2
 282 301 274 284 274 283 c 0
 274 283 315 283 360 283 c 0
 428 283 454 283 455 283 c 0
 486 283 493 247 493 246 c 0
 493 240 488 227 484 223 c 0
 482 221 473 209 471 206 c 0
 469 203 460 202 435 202 c 0
 412 202 373 203 342 203 c 0
 315 203 296 202 256 199 c 2
 237 198 l 1
 232 187 l 2
 213 143 172 56 165 45 c 0
 160 37 154 33 146 33 c 0
 133 33 91 50 99 66 c 0
 102 72 102 87 105 92 c 0
 108 97 104 91 127 145 c 0
 137 168 144 187 144 187 c 0
 144 187 145 188 144 188 c 0
 143 188 85 178 60 178 c 0
 53 178 34 181 34 182 c 0
 34 189 24 174 17 216 c 0
 16 224 15 227 15 230 c 0
 15 236 23 245 23 245 c 0
 35 257 180 271 181 272 c 0
 182 272 194 303 211 337 c 0
 217 348 222 358 222 359 c 0
 222 360 210 361 194 361 c 0
 165 361 93 357 92 357 c 0
 83 357 73 357 64 358 c 0
 8 362 0 367 0 393 c 0
 0 419 6 429 23 432 c 0
 44 436 104 439 174 439 c 0
EndSplineSet
EndChar

StartChar: asciitilde
Encoding: 126 126 118
Width: 514
VWidth: 597
Flags: HW
LayerCount: 2
Fore
SplineSet
358 353 m 0
 383 353 427 394 427 402 c 0
 427 419 449 433 453 432 c 0
 459 431 460 437 473 437 c 0
 484 437 497 433 497 428 c 0
 497 425 507 425 507 422 c 0
 507 419 514 417 514 409 c 0
 514 403 509 372 509 372 c 0
 509 370 496 358 489 346 c 0
 475 322 406 272 360 272 c 0
 317 272 288 291 287 291 c 0
 286 291 217 338 198 346 c 0
 191 349 182 351 173 351 c 0
 110 351 72 285 48 273 c 0
 44 271 40 268 38 266 c 0
 34 261 26 258 18 258 c 0
 12 258 9 260 -4 274 c 0
 -18 290 -19 290 -19 300 c 0
 -19 322 -1 327 -1 334 c 0
 -1 337 38 377 50 385 c 0
 59 392 93 412 98 415 c 0
 99 415 126 432 165 432 c 0
 220 432 241 410 250 410 c 0
 260 410 319 353 358 353 c 0
EndSplineSet
EndChar

StartChar: lessequal
Encoding: 8804 8804 119
Width: 514
VWidth: 729
Flags: HW
LayerCount: 2
Fore
SplineSet
335 548 m 0
 340 548 364 577 375 577 c 0
 385 577 419 548 419 540 c 0
 419 524 406 516 407 513 c 0
 409 511 388 490 388 487 c 0
 388 483 260 357 220 321 c 0
 201 304 193 298 193 296 c 0
 193 295 195 295 196 295 c 0
 198 295 333 309 379 309 c 0
 392 309 403 308 404 307 c 0
 405 304 426 302 427 299 c 0
 428 296 434 293 434 283 c 0
 434 273 425 243 420 236 c 0
 418 233 416 231 416 232 c 0
 416 235 412 228 398 228 c 0
 391 228 389 229 379 229 c 0
 292 229 156 205 99 205 c 0
 71 205 64 210 50 229 c 0
 46 235 43 242 43 249 c 0
 43 264 53 270 53 274 c 0
 53 281 174 387 247 458 c 0
 308 518 309 518 309 519 c 0
 309 522 332 548 335 548 c 0
395 155 m 0
 423 155 418 160 427 160 c 0
 440 160 444 140 451 132 c 0
 455 128 457 126 457 108 c 0
 457 103 453 74 376 74 c 0
 344 74 319 78 262 78 c 0
 171 78 148 68 110 68 c 0
 66 68 64 81 61 105 c 0
 60 111 60 114 60 117 c 0
 60 134 79 138 81 138 c 0
 83 138 111 157 274 157 c 0
 333 157 372 155 395 155 c 0
EndSplineSet
EndChar

StartChar: greaterequal
Encoding: 8805 8805 120
Width: 514
VWidth: 744
Flags: HW
LayerCount: 2
Fore
SplineSet
132 294 m 0
 187 294 324 307 324 311 c 0
 324 312 322 313 319 314 c 0
 308 319 181 447 163 472 c 0
 154 484 98 524 98 555 c 0
 98 564 99 566 111 580 c 0
 123 594 124 595 132 595 c 0
 162 595 258 487 259 486 c 0
 269 474 321 420 321 420 c 0
 322 420 392 353 401 353 c 0
 403 353 430 329 439 326 c 0
 448 322 446 316 452 309 c 0
 455 306 457 295 457 285 c 0
 457 278 456 272 454 269 c 0
 446 257 396 236 368 234 c 0
 367 234 284 224 281 224 c 0
 278 224 279 224 276 224 c 0
 245 224 224 215 152 215 c 0
 119 215 81 216 79 218 c 0
 71 224 38 222 38 250 c 0
 38 255 40 262 42 274 c 0
 44 285 48 303 65 303 c 0
 80 303 100 294 132 294 c 0
411 98 m 0
 321 98 317 103 232 103 c 0
 186 103 130 102 119 100 c 0
 100 97 85 96 73 96 c 0
 45 96 43 102 38 134 c 0
 37 140 36 144 36 147 c 0
 36 157 45 164 48 166 c 0
 71 179 185 183 213 183 c 0
 265 183 385 178 387 178 c 0
 455 177 453 177 457 162 c 0
 461 148 468 145 468 136 c 0
 468 98 430 98 411 98 c 0
EndSplineSet
EndChar

StartChar: bar_greater
Encoding: 1114133 -1 121
Width: 514
VWidth: 785
Flags: HW
LayerCount: 2
Fore
SplineSet
188 561 m 0
 188 606 202 607 216 607 c 0
 270 607 265 593 275 593 c 0
 281 593 325 545 325 539 c 0
 325 530 428 418 428 414 c 0
 428 411 454 382 456 382 c 0
 460 382 462 376 471 372 c 0
 480 369 492 346 495 344 c 0
 496 343 497 336 497 327 c 0
 497 311 495 285 482 285 c 0
 479 285 467 267 464 267 c 0
 460 267 389 194 371 172 c 0
 317 106 273 20 256 16 c 0
 253 15 250 15 247 15 c 0
 239 15 233 18 221 26 c 0
 201 40 199 44 199 57 c 0
 199 64 201 67 207 76 c 0
 208 77 265 167 303 215 c 0
 309 223 317 232 321 237 c 0
 328 247 386 307 397 315 c 2
 404 321 l 1
 396 328 l 2
 380 343 293 448 292 449 c 0
 242 514 226 533 214 533 c 0
 209 533 200 542 197 542 c 0
 197 542 188 550 188 561 c 0
104 245 m 0
 104 245 104 229 104 228 c 0
 104 118 100 61 89 51 c 0
 81 44 74 40 66 40 c 0
 62 40 30 50 28 52 c 0
 18 66 18 66 18 79 c 0
 18 81 21 84 23 244 c 0
 24 344 29 536 29 539 c 0
 29 542 29 543 29 546 c 0
 29 595 37 597 63 602 c 0
 72 604 81 606 83 606 c 0
 87 606 94 599 94 596 c 0
 94 595 95 594 96 594 c 0
 100 594 105 547 109 544 c 0
 110 544 110 536 110 523 c 0
 110 452 104 357 104 245 c 0
EndSplineSet
EndChar

StartChar: less_bar
Encoding: 1114134 -1 122
Width: 514
VWidth: 830
Flags: HW
LayerCount: 2
Fore
SplineSet
9 261 m 0
 9 265 -5 275 -5 287 c 0
 -5 304 28 363 48 386 c 0
 52 391 58 397 61 401 c 0
 69 413 112 460 140 488 c 0
 250 598 220 606 261 629 c 0
 265 631 267 633 270 633 c 0
 274 633 279 631 289 627 c 0
 311 619 313 616 313 601 c 0
 313 559 247 483 219 454 c 0
 218 453 63 295 88 295 c 0
 97 295 158 234 159 225 c 0
 159 224 199 171 223 134 c 0
 244 102 251 93 260 76 c 0
 266 65 271 59 274 57 c 0
 283 53 288 42 288 31 c 0
 288 18 280 12 280 4 c 0
 280 -1 270 -12 265 -12 c 0
 264 -12 263 -13 263 -14 c 0
 263 -17 253 -20 247 -20 c 0
 240 -20 220 -10 214 -4 c 0
 200 10 203 34 112 154 c 0
 82 193 72 204 55 218 c 0
 37 233 9 258 9 261 c 0
422 -25 m 0
 421 -25 372 -21 372 6 c 0
 372 10 394 369 395 377 c 0
 400 409 409 577 410 579 c 0
 414 585 409 598 418 611 c 0
 421 615 428 627 462 627 c 0
 477 627 480 620 484 599 c 0
 484 599 489 578 489 561 c 0
 489 556 456 15 453 14 c 0
 452 14 451 9 451 5 c 0
 451 -11 437 -25 422 -25 c 0
EndSplineSet
EndChar

StartChar: u1F382
Encoding: 127874 127874 123
Width: 514
VWidth: 931
Flags: HW
LayerCount: 2
Fore
SplineSet
-49 336 m 0
 -49 339 -65 347 -65 374 c 0
 -65 393 -59 388 -52 411 c 0
 -41 450 -20 437 -13 447 c 0
 3 465 25 479 53 479 c 0
 76 479 87 468 87 468 c 0
 93 459 97 473 118 475 c 0
 125 476 129 476 128 478 c 0
 127 479 128 479 130 478 c 0
 132 476 135 475 140 476 c 0
 153 478 156 478 156 486 c 0
 156 512 155 512 157 516 c 0
 161 524 164 535 167 535 c 0
 168 535 169 536 169 537 c 0
 169 544 196 566 210 569 c 0
 224 573 225 573 235 574 c 0
 244 575 246 575 247 580 c 0
 249 587 256 595 256 598 c 0
 256 601 277 636 277 636 c 0
 279 638 300 665 335 681 c 0
 348 687 352 689 356 689 c 0
 362 689 359 693 372 694 c 0
 398 698 391 702 414 702 c 0
 433 702 440 727 457 710 c 0
 460 707 462 705 463 705 c 0
 466 705 463 700 465 692 c 0
 468 682 461 663 465 653 c 0
 469 643 463 648 459 638 c 0
 458 635 456 634 454 634 c 0
 452 634 447 633 444 632 c 0
 439 631 437 632 432 637 c 0
 425 644 406 653 397 653 c 0
 396 653 377 653 345 638 c 0
 323 628 304 602 303 602 c 0
 302 602 301 600 301 598 c 0
 301 593 289 585 289 578 c 0
 289 576 291 574 295 574 c 0
 310 574 339 563 342 556 c 0
 342 555 344 555 345 555 c 0
 350 555 362 536 362 533 c 0
 362 530 371 523 371 499 c 0
 371 492 369 484 369 477 c 0
 369 471 371 470 377 469 c 0
 389 467 391 471 411 471 c 0
 432 471 431 462 464 462 c 0
 465 462 l 0
 493 462 503 457 539 422 c 0
 548 414 554 405 554 403 c 0
 554 396 559 401 559 380 c 0
 559 360 555 368 554 351 c 0
 553 336 550 340 550 336 c 0
 550 328 521 315 521 313 c 0
 521 312 518 311 516 311 c 0
 507 311 512 307 492 306 c 0
 484 306 493 304 476 236 c 0
 476 235 447 124 447 120 c 0
 447 119 437 68 437 35 c 0
 437 31 442 18 438 12 c 0
 436 9 418 1 413 1 c 0
 403 1 388 4 377 1 c 0
 359 -4 347 12 347 7 c 0
 347 7 325 -3 315 5 c 0
 311 8 307 9 303 9 c 0
 294 9 294 3 276 3 c 0
 269 3 264 4 262 6 c 0
 259 9 252 10 252 7 c 0
 252 4 230 -5 222 -5 c 0
 205 -5 206 16 190 6 c 0
 186 3 176 2 168 2 c 0
 160 2 153 3 153 6 c 0
 153 8 152 9 149 9 c 0
 138 9 121 -3 106 -3 c 0
 94 -3 93 5 85 1 c 0
 75 -4 67 -5 65 -4 c 0
 64 -3 52 0 52 5 c 0
 52 8 32 21 24 70 c 0
 21 89 18 90 18 98 c 0
 18 106 11 131 8 175 c 0
 8 176 1 244 -8 307 c 2
 -10 325 l 1
 -32 324 -49 336 -49 336 c 0
86 413 m 0
 86 413 72 415 72 418 c 0
 72 419 70 420 69 420 c 0
 66 420 58 428 58 431 c 0
 58 439 25 431 21 409 c 0
 20 403 17 398 15 398 c 0
 10 398 16 392 1 392 c 0
 -8 392 -9 392 -12 385 c 0
 -20 370 -14 368 4 368 c 0
 14 368 20 370 20 370 c 0
 24 370 26 367 32 351 c 0
 34 346 38 343 38 347 c 0
 38 348 50 365 63 365 c 0
 70 365 72 359 75 359 c 0
 76 359 79 356 82 352 c 0
 94 336 102 355 111 354 c 0
 112 354 115 353 117 353 c 0
 119 353 121 352 121 350 c 0
 121 341 139 348 139 351 c 0
 139 352 141 353 143 353 c 0
 149 353 150 358 166 358 c 0
 182 358 178 353 181 353 c 0
 188 353 184 333 223 352 c 0
 232 356 242 359 249 359 c 0
 260 359 259 353 263 353 c 0
 264 353 266 352 266 351 c 0
 266 351 266 342 283 350 c 2
 293 354 l 1
 277 363 277 363 283 374 c 0
 288 383 291 386 298 382 c 0
 314 372 314 373 310 367 c 2
 307 362 l 1
 317 364 322 364 326 362 c 0
 332 359 339 353 339 350 c 0
 339 346 342 345 345 347 c 0
 346 348 379 359 384 359 c 0
 397 359 404 345 404 345 c 0
 404 338 423 353 440 353 c 0
 444 353 447 353 447 351 c 0
 447 342 460 337 472 348 c 0
 485 359 496 353 503 369 c 0
 505 374 506 378 506 381 c 0
 506 386 503 390 494 398 c 0
 479 413 475 415 453 416 c 0
 427 418 420 423 406 423 c 0
 397 423 388 421 380 421 c 0
 363 421 348 431 331 431 c 0
 322 431 318 428 306 428 c 0
 291 428 284 433 274 433 c 0
 258 433 216 426 215 426 c 0
 199 426 199 436 189 429 c 0
 186 427 180 425 174 425 c 0
 157 425 162 432 137 432 c 0
 115 432 119 426 114 426 c 0
 112 426 111 425 111 424 c 0
 111 421 92 413 86 413 c 0
92 57 m 0
 92 77 86 95 86 110 c 0
 86 122 82 127 78 157 c 0
 77 168 69 242 66 260 c 0
 63 282 64 343 63 343 c 0
 62 343 56 332 48 328 c 0
 42 325 41 325 48 289 c 0
 55 253 58 211 70 146 c 0
 70 145 86 51 86 51 c 0
 86 47 87 46 87 46 c 1
 87 47 90 48 91 48 c 0
 92 48 92 52 92 57 c 0
380 243 m 0
 380 251 386 259 386 271 c 0
 386 290 401 310 388 322 c 0
 379 332 381 338 376 336 c 0
 359 328 359 328 358 327 c 0
 357 325 352 325 344 325 c 0
 332 325 332 325 325 333 c 0
 321 338 318 340 316 340 c 0
 313 340 312 333 312 319 c 0
 312 317 312 307 312 307 c 0
 312 269 307 247 305 216 c 0
 293 72 294 75 286 57 c 0
 283 49 284 49 297 54 c 0
 301 55 303 56 306 56 c 0
 316 56 327 48 339 52 c 0
 347 55 347 55 350 74 c 0
 359 135 360 145 360 148 c 0
 360 161 380 241 380 243 c 0
158 195 m 2
 158 274 158 339 157 339 c 0
 155 339 132 322 116 330 c 0
 102 337 99 323 86 323 c 0
 82 323 82 323 83 320 c 0
 84 319 92 256 92 255 c 0
 93 220 119 59 119 57 c 0
 120 48 120 39 120 39 c 0
 121 38 140 50 151 50 c 2
 158 50 l 1
 158 195 l 2
274 324 m 0
 259 324 259 331 255 331 c 0
 249 331 252 343 233 332 c 0
 224 327 210 319 199 319 c 0
 186 319 174 329 183 320 c 0
 188 315 182 47 192 47 c 0
 193 47 196 49 203 49 c 0
 211 49 218 47 218 44 c 0
 218 43 221 43 225 43 c 0
 229 43 232 43 232 44 c 0
 232 47 256 56 264 56 c 2
 271 56 l 1
 270 81 l 2
 270 84 270 86 270 89 c 0
 270 186 286 270 286 272 c 0
 288 295 298 328 296 329 c 0
 295 330 286 324 274 324 c 0
434 266 m 0
 434 271 445 303 445 309 c 0
 445 311 444 311 442 311 c 0
 440 311 437 315 433 320 c 2
 427 329 l 1
 419 324 l 2
 412 319 412 320 408 292 c 0
 408 290 399 239 395 228 c 0
 394 226 381 180 364 50 c 1
 374 51 l 2
 386 53 386 53 386 63 c 0
 386 75 392 100 392 111 c 0
 392 135 434 264 434 266 c 0
232 410 m 0
 232 416 246 424 250 424 c 0
 253 424 264 410 264 407 c 0
 264 403 249 392 244 392 c 0
 240 392 232 405 232 410 c 0
197 386 m 1
 176 398 177 401 184 411 c 0
 188 416 192 420 193 420 c 0
 197 420 212 409 212 406 c 0
 212 404 208 399 204 394 c 2
 197 386 l 1
331 410 m 0
 340 426 358 405 358 402 c 0
 358 398 357 396 348 386 c 1
 339 391 l 2
 332 395 329 398 329 402 c 0
 329 404 329 407 331 410 c 0
141 376 m 0
 133 376 125 392 125 396 c 0
 125 404 145 415 147 414 c 0
 150 414 165 393 165 390 c 0
 165 389 148 376 141 376 c 0
445 395 m 0
 443 406 452 408 461 408 c 0
 467 408 468 405 470 394 c 0
 471 386 471 386 457 384 c 0
 449 383 447 385 445 395 c 0
19 395 m 0
 23 404 23 404 42 395 c 1
 38 387 l 2
 34 378 34 378 24 382 c 0
 16 385 15 385 19 395 c 0
69 395 m 0
 77 397 78 396 80 390 c 0
 82 382 78 378 70 379 c 0
 63 380 63 380 63 387 c 0
 63 393 64 394 69 395 c 0
414 393 m 0
 418 401 428 393 424 388 c 0
 419 382 410 386 414 393 c 0
407 368 m 0
 407 371 413 381 416 381 c 0
 418 381 421 379 429 374 c 0
 437 369 437 367 430 359 c 2
 424 353 l 1
 417 357 l 2
 410 361 407 365 407 368 c 0
EndSplineSet
EndChar

StartChar: two
Encoding: 50 50 124
AltUni2: 01d7d0.ffffffff.0
Width: 514
VWidth: 797
Flags: HW
LayerCount: 2
Fore
SplineSet
362 442 m 0
 362 460 351 483 351 495 c 0
 351 499 342 512 338 514 c 0
 334 516 304 525 289 525 c 0
 269 525 237 517 222 509 c 0
 211 502 191 496 182 488 c 0
 141 452 115 426 115 427 c 0
 115 433 113 417 102 426 c 0
 87 437 70 438 65 452 c 0
 64 455 64 458 64 460 c 0
 64 463 65 467 67 474 c 0
 74 494 79 500 107 527 c 0
 155 573 226 601 257 603 c 0
 258 603 308 606 313 607 c 0
 314 607 314 606 314 605 c 0
 314 604 316 603 318 603 c 0
 323 603 357 595 358 593 c 0
 362 588 365 592 391 574 c 0
 405 564 416 551 415 547 c 0
 415 546 437 504 437 491 c 0
 437 477 442 479 442 443 c 0
 442 365 415 329 415 328 c 0
 415 325 374 271 374 270 c 0
 374 264 282 173 276 166 c 0
 264 152 194 81 179 68 c 2
 169 59 l 1
 179 61 l 2
 185 62 192 62 195 62 c 0
 197 62 386 58 390 56 c 0
 399 52 407 58 409 55 c 0
 410 53 431 54 431 48 c 0
 431 43 448 32 448 22 c 0
 448 14 441 4 441 -3 c 0
 441 -24 407 -31 407 -29 c 0
 406 -27 363 -21 352 -21 c 0
 337 -21 327 -23 314 -23 c 0
 300 -23 298 -20 273 -20 c 0
 272 -20 272 -20 271 -20 c 0
 224 -20 194 -19 193 -19 c 0
 152 -19 166 -24 132 -27 c 0
 110 -28 111 -31 107 -31 c 0
 105 -31 102 -30 100 -30 c 0
 100 -30 69 -16 64 -11 c 0
 57 -4 49 17 49 26 c 0
 49 29 48 32 47 33 c 0
 44 35 57 54 57 58 c 0
 57 63 168 171 169 172 c 0
 179 183 208 209 259 265 c 0
 266 273 309 312 320 331 c 0
 322 334 323 336 324 336 c 0
 325 336 362 390 362 442 c 0
EndSplineSet
EndChar

StartChar: period
Encoding: 46 46 125
Width: 514
VWidth: 153
Flags: HW
LayerCount: 2
Fore
SplineSet
189 25 m 0
 189 30 193 36 193 43 c 0
 193 46 195 56 197 64 c 0
 201 79 203 80 219 95 c 0
 230 105 237 112 246 112 c 0
 260 112 273 93 280 93 c 0
 285 93 294 84 294 80 c 0
 294 74 305 65 305 45 c 0
 305 21 279 -14 269 -16 c 0
 264 -17 255 -27 245 -27 c 0
 239 -27 229 -24 225 -23 c 0
 203 -16 201 -13 193 11 c 0
 191 18 189 22 189 25 c 0
EndSplineSet
EndChar

StartChar: comma
Encoding: 44 44 126
Width: 514
VWidth: 172
Flags: HW
LayerCount: 2
Fore
SplineSet
242 18 m 0
 242 33 240 48 240 57 c 0
 240 70 250 81 250 81 c 0
 252 82 286 94 294 94 c 0
 314 94 326 39 326 19 c 0
 326 -33 289 -97 281 -108 c 0
 278 -112 276 -116 275 -117 c 0
 272 -125 237 -162 231 -163 c 0
 231 -163 205 -169 204 -169 c 0
 195 -169 168 -147 168 -132 c 0
 169 -122 173 -119 173 -113 c 0
 173 -112 172 -111 172 -110 c 0
 172 -103 184 -90 190 -90 c 0
 195 -90 242 -40 242 18 c 0
EndSplineSet
EndChar

StartChar: semicolon
Encoding: 59 59 127
Width: 514
VWidth: 657
Flags: HW
LayerCount: 2
Fore
SplineSet
228 437 m 0
 228 438 255 463 265 463 c 0
 277 463 287 454 292 454 c 0
 298 454 330 451 330 402 c 0
 330 378 318 376 318 370 c 0
 318 367 303 351 304 351 c 0
 310 351 290 341 285 337 c 0
 279 331 273 328 263 328 c 0
 257 328 249 330 241 332 c 0
 217 338 224 355 217 355 c 0
 212 355 207 392 207 392 c 0
 207 397 210 411 212 411 c 0
 214 411 213 418 222 428 c 0
 225 432 228 436 228 437 c 0
248 -159 m 0
 248 -159 228 -181 210 -181 c 0
 203 -181 196 -179 192 -176 c 0
 189 -174 184 -171 180 -169 c 0
 165 -163 165 -140 165 -140 c 0
 165 -139 165 -140 177 -110 c 0
 179 -104 182 -100 189 -97 c 0
 197 -93 198 -92 209 -69 c 0
 250 17 224 47 238 75 c 0
 243 85 247 87 266 91 c 0
 266 91 283 95 288 95 c 0
 307 95 311 77 316 53 c 0
 319 40 320 27 320 18 c 0
 320 1 316 5 315 -5 c 0
 313 -17 305 -50 303 -52 c 0
 303 -52 277 -117 264 -136 c 0
 255 -150 255 -155 251 -156 c 0
 249 -157 248 -158 248 -159 c 0
EndSplineSet
EndChar

StartChar: colon
Encoding: 58 58 128
Width: 514
VWidth: 618
Flags: HW
LayerCount: 2
Fore
SplineSet
266 378 m 0
 255 378 251 370 238 370 c 0
 225 370 194 396 194 396 c 0
 193 397 193 400 193 402 c 0
 193 422 218 475 233 485 c 0
 236 487 242 488 247 488 c 0
 257 488 256 485 269 485 c 0
 272 485 l 0
 284 485 294 479 294 472 c 0
 294 470 295 469 296 469 c 0
 296 469 306 462 306 445 c 0
 306 422 282 378 266 378 c 0
210 141 m 0
 217 141 221 164 246 164 c 0
 248 164 302 164 302 118 c 0
 302 83 275 75 270 67 c 0
 269 64 267 62 265 62 c 0
 264 62 262 61 262 60 c 0
 262 57 251 54 243 54 c 0
 242 54 194 60 194 103 c 0
 194 122 208 141 210 141 c 0
EndSplineSet
EndChar

StartChar: quoteright
Encoding: 8217 8217 129
Width: 514
VWidth: 824
Flags: HW
LayerCount: 2
Fore
SplineSet
219 686 m 0
 237 723 254 757 278 759 c 0
 282 759 313 740 318 734 c 0
 318 733 320 730 320 722 c 0
 320 710 317 699 310 689 c 0
 309 688 257 592 252 559 c 0
 250 547 249 538 232 538 c 0
 231 538 189 540 183 553 c 0
 182 555 180 557 179 557 c 0
 177 557 175 567 175 575 c 0
 175 593 197 641 219 686 c 0
EndSplineSet
EndChar

StartChar: quoteleft
Encoding: 8216 8216 130
Width: 514
VWidth: 825
Flags: HW
LayerCount: 2
Fore
SplineSet
176 700 m 0
 176 701 182 749 200 749 c 0
 204 749 211 747 227 743 c 0
 282 729 262 706 284 687 c 0
 288 684 301 648 302 638 c 0
 303 628 318 576 318 540 c 0
 318 496 301 496 278 496 c 0
 257 496 256 496 249 502 c 0
 238 511 237 513 235 542 c 0
 233 591 219 643 204 659 c 0
 196 668 194 671 194 673 c 0
 194 675 194 675 193 675 c 0
 192 675 190 676 190 677 c 0
 190 679 176 690 176 700 c 0
EndSplineSet
EndChar

StartChar: three
Encoding: 51 51 131
AltUni2: 01d7d1.ffffffff.0
Width: 514
VWidth: 786
Flags: HW
LayerCount: 2
Fore
SplineSet
135 502 m 0
 121 502 127 505 104 505 c 0
 77 505 72 508 67 530 c 0
 65 539 64 544 64 548 c 0
 64 565 81 569 95 572 c 0
 105 574 116 577 118 578 c 0
 132 585 336 593 336 600 c 0
 336 601 338 602 340 601 c 0
 351 597 375 603 393 588 c 0
 394 587 397 585 399 584 c 0
 407 580 411 567 411 554 c 0
 411 537 404 534 404 527 c 0
 404 521 393 517 391 511 c 0
 390 509 389 507 388 507 c 0
 387 507 383 506 378 503 c 0
 368 498 366 496 314 430 c 0
 302 414 302 414 285 392 c 1
 291 391 297 390 297 388 c 0
 297 387 349 375 356 369 c 0
 361 366 381 360 384 356 c 0
 390 349 397 354 419 330 c 0
 432 315 432 315 437 298 c 0
 443 279 450 237 450 220 c 0
 450 210 447 217 447 196 c 0
 447 196 447 188 447 187 c 0
 447 121 415 82 416 82 c 0
 418 82 394 47 385 36 c 0
 377 26 344 -9 288 -14 c 0
 268 -15 262 -19 243 -19 c 0
 224 -19 202 -15 177 -7 c 0
 114 13 92 20 62 70 c 0
 55 81 49 91 48 92 c 0
 48 92 30 127 30 147 c 0
 30 175 56 180 65 182 c 2
 82 185 l 1
 91 181 l 2
 96 179 100 175 101 173 c 0
 101 172 127 110 142 96 c 0
 149 89 167 80 195 70 c 2
 219 62 l 1
 246 63 l 2
 274 64 296 68 306 73 c 0
 325 83 362 142 362 158 c 0
 362 167 367 181 368 203 c 0
 368 223 362 268 358 275 c 0
 351 287 284 314 255 314 c 0
 238 314 208 308 208 308 c 0
 198 308 170 331 170 348 c 0
 170 356 175 377 179 382 c 0
 180 383 240 464 240 464 c 0
 240 468 273 508 273 509 c 0
 273 510 271 510 266 510 c 0
 214 510 136 502 135 502 c 0
EndSplineSet
EndChar

StartChar: quotesingle
Encoding: 39 39 132
Width: 514
VWidth: 781
Flags: HW
LayerCount: 2
Fore
SplineSet
207 622 m 0
 207 642 203 663 203 672 c 0
 203 677 204 679 206 683 c 0
 216 701 217 702 234 704 c 0
 242 705 250 706 257 706 c 0
 278 706 277 705 284 661 c 0
 288 635 290 612 290 601 c 0
 290 600 287 593 287 546 c 0
 287 510 288 499 290 496 c 0
 291 494 292 493 292 490 c 0
 292 476 280 475 278 471 c 0
 277 469 276 468 274 468 c 0
 273 468 260 455 243 455 c 0
 222 455 212 478 211 481 c 0
 210 484 208 488 207 491 c 0
 206 494 206 503 206 530 c 0
 206 562 207 620 207 622 c 0
EndSplineSet
EndChar

StartChar: quotedbl
Encoding: 34 34 133
Width: 514
VWidth: 780
Flags: HW
LayerCount: 2
Fore
SplineSet
262 634 m 0
 262 645 258 658 258 659 c 0
 258 664 262 676 264 683 c 0
 266 692 268 693 287 700 c 0
 298 704 306 706 312 706 c 0
 317 706 321 704 324 701 c 0
 329 696 349 643 349 635 c 0
 349 629 344 618 342 606 c 0
 335 552 331 507 331 492 c 2
 331 474 l 1
 323 468 312 460 280 460 c 0
 269 460 263 462 259 467 c 0
 250 477 248 479 248 498 c 0
 248 538 262 613 262 634 c 0
146 509 m 0
 146 554 151 590 152 622 c 0
 152 634 153 650 154 657 c 0
 158 683 158 683 164 689 c 0
 170 695 170 695 192 695 c 0
 213 695 215 695 220 690 c 0
 227 684 230 678 230 671 c 0
 230 668 229 668 229 664 c 0
 229 651 233 647 233 629 c 0
 233 612 229 584 228 526 c 0
 227 483 227 481 222 474 c 0
 217 466 216 466 187 461 c 0
 179 460 174 459 171 459 c 0
 168 459 167 459 164 461 c 0
 150 470 146 478 146 509 c 0
EndSplineSet
EndChar

StartChar: four
Encoding: 52 52 134
AltUni2: 01d7d2.ffffffff.0
Width: 514
VWidth: 775
Flags: HW
LayerCount: 2
Fore
SplineSet
133 253 m 0
 114 253 48 258 48 337 c 0
 48 384 60 398 65 435 c 0
 71 481 82 513 83 533 c 0
 84 556 92 579 100 588 c 0
 105 593 106 593 123 593 c 0
 164 593 164 587 164 531 c 0
 164 502 163 498 160 496 c 0
 154 492 160 488 143 419 c 0
 138 401 128 341 128 335 c 0
 128 334 130 334 133 334 c 0
 173 334 238 372 326 372 c 2
 344 372 l 1
 346 387 l 2
 347 399 348 434 348 465 c 0
 348 523 343 561 343 562 c 0
 343 571 344 575 347 575 c 0
 348 575 349 576 348 577 c 0
 347 578 347 579 347 579 c 1
 350 579 386 588 398 588 c 0
 408 588 415 588 425 536 c 0
 430 514 431 503 431 492 c 0
 431 441 420 277 420 193 c 0
 420 134 422 121 432 44 c 2
 437 3 l 1
 432 -4 429 -7 420 -10 c 0
 408 -14 386 -19 379 -19 c 0
 374 -19 366 -10 365 -9 c 0
 359 -4 351 4 351 43 c 0
 351 72 339 51 339 197 c 0
 339 199 339 202 339 204 c 0
 339 240 339 275 339 280 c 0
 339 292 340 292 325 292 c 0
 267 292 240 273 222 273 c 0
 221 273 159 253 133 253 c 0
EndSplineSet
EndChar

StartChar: five
Encoding: 53 53 135
AltUni2: 01d7d3.ffffffff.0
Width: 514
VWidth: 800
Flags: HW
LayerCount: 2
Fore
SplineSet
127 323 m 0
 126 323 99 331 99 394 c 0
 99 396 104 542 106 563 c 0
 107 575 113 587 117 589 c 0
 119 590 144 591 160 591 c 0
 182 591 171 586 185 587 c 0
 317 595 393 599 432 610 c 0
 439 612 443 613 446 613 c 0
 463 613 474 587 474 582 c 0
 476 570 478 569 478 564 c 0
 478 554 468 540 456 535 c 0
 411 516 210 511 191 504 c 0
 184 502 182 501 182 439 c 0
 182 427 183 422 184 422 c 0
 185 422 209 440 262 440 c 0
 301 440 330 427 331 427 c 0
 334 425 336 424 337 424 c 0
 338 424 365 410 383 384 c 0
 390 374 400 355 400 351 c 0
 400 350 400 348 401 348 c 0
 402 348 415 324 415 267 c 0
 415 229 411 182 406 170 c 0
 402 160 399 150 399 147 c 0
 399 124 360 68 360 67 c 0
 360 64 326 32 321 30 c 0
 319 29 317 27 317 26 c 0
 317 25 278 -13 199 -13 c 0
 141 -13 112 9 100 11 c 0
 91 13 91 18 86 18 c 0
 78 18 36 62 36 65 c 0
 36 68 29 72 27 80 c 0
 25 88 22 88 22 94 c 0
 22 101 16 112 16 123 c 0
 16 139 27 161 29 177 c 0
 31 190 33 192 47 192 c 0
 64 192 68 189 68 176 c 0
 68 169 69 164 71 161 c 0
 78 154 87 127 107 105 c 0
 113 98 119 93 120 93 c 0
 121 93 165 67 194 67 c 0
 210 67 253 73 271 91 c 0
 272 92 276 95 278 97 c 0
 299 114 320 162 321 163 c 0
 321 163 334 216 334 247 c 0
 334 308 327 343 288 356 c 0
 278 359 270 361 262 361 c 0
 236 361 194 339 186 330 c 0
 180 323 157 317 143 317 c 0
 131 317 133 323 127 323 c 0
EndSplineSet
EndChar

StartChar: six
Encoding: 54 54 136
AltUni2: 01d7d4.ffffffff.0
Width: 514
VWidth: 804
Flags: HW
LayerCount: 2
Fore
SplineSet
221 583 m 0
 221 583 257 611 274 611 c 0
 281 611 292 610 311 606 c 0
 318 605 332 594 332 589 c 0
 332 584 337 582 337 577 c 0
 337 572 335 556 333 546 c 0
 332 542 323 538 317 538 c 0
 299 538 309 531 293 531 c 0
 282 531 272 524 241 497 c 0
 207 467 191 444 175 403 c 0
 170 389 164 375 162 372 c 0
 148 341 137 275 137 256 c 0
 137 253 138 252 138 252 c 0
 140 252 243 297 297 297 c 0
 364 297 386 270 396 270 c 0
 400 270 427 243 428 238 c 0
 429 235 432 231 435 228 c 0
 436 228 455 208 455 160 c 0
 455 98 419 63 419 58 c 0
 419 49 368 6 365 6 c 0
 364 6 313 -29 251 -29 c 0
 195 -29 144 9 138 14 c 0
 111 35 82 80 73 113 c 0
 71 120 69 127 68 129 c 0
 65 135 54 161 54 235 c 0
 54 288 76 398 104 448 c 0
 119 474 147 524 184 557 c 0
 198 569 218 583 221 583 c 0
256 52 m 0
 314 52 371 107 371 154 c 0
 371 180 369 184 364 190 c 0
 359 196 343 216 298 216 c 0
 250 216 142 171 142 164 c 0
 142 157 155 122 164 106 c 0
 184 70 226 52 256 52 c 0
EndSplineSet
EndChar

StartChar: seven
Encoding: 55 55 137
AltUni2: 01d7d5.ffffffff.0
Width: 514
VWidth: 783
Flags: HW
LayerCount: 2
Fore
SplineSet
132 508 m 0
 121 508 110 504 87 504 c 0
 67 504 64 510 58 539 c 0
 57 545 56 550 56 554 c 0
 56 564 56 581 138 590 c 0
 169 593 169 594 169 593 c 0
 169 592 185 591 204 591 c 0
 314 590 415 589 415 585 c 0
 415 584 416 583 418 583 c 0
 420 583 421 582 421 581 c 0
 421 574 438 579 438 558 c 0
 438 557 438 527 435 527 c 0
 421 504 l 0
 421 502 372 434 333 319 c 0
 326 299 326 309 319 280 c 0
 312 251 304 230 298 202 c 0
 298 200 261 31 246 -1 c 0
 234 -29 234 -29 232 -29 c 0
 228 -29 227 -38 212 -38 c 0
 210 -38 162 -24 162 1 c 0
 162 15 176 25 185 64 c 0
 185 66 220 229 223 235 c 0
 227 243 252 347 259 358 c 0
 261 361 265 377 277 401 c 0
 281 410 285 416 285 417 c 0
 285 421 330 507 329 509 c 0
 328 510 184 513 183 513 c 0
 155 513 154 509 132 508 c 0
EndSplineSet
EndChar

StartChar: eight
Encoding: 56 56 138
AltUni2: 01d7d6.ffffffff.0
Width: 514
VWidth: 787
Flags: HW
LayerCount: 2
Fore
SplineSet
229 596 m 0
 238 596 235 601 263 601 c 0
 306 601 332 574 333 574 c 0
 336 573 355 543 355 539 c 0
 355 536 357 541 363 535 c 0
 365 533 367 531 367 532 c 0
 367 539 390 501 396 470 c 0
 400 450 400 440 400 429 c 0
 400 415 389 383 382 378 c 0
 373 371 369 360 347 342 c 0
 338 335 331 330 331 329 c 0
 331 328 394 277 394 269 c 0
 394 268 412 241 417 218 c 0
 417 218 425 176 425 175 c 0
 425 163 422 137 418 125 c 0
 415 114 395 69 391 65 c 0
 389 63 383 56 379 50 c 0
 374 43 331 -17 219 -17 c 0
 142 -17 114 17 109 17 c 0
 100 17 72 66 72 75 c 0
 72 82 64 76 64 124 c 0
 64 181 82 207 83 208 c 0
 87 212 96 239 110 261 c 0
 120 277 154 312 170 324 c 2
 177 330 l 1
 167 336 l 2
 139 353 93 390 93 444 c 0
 93 496 136 539 137 540 c 0
 137 540 161 561 171 569 c 0
 183 579 220 596 229 596 c 0
281 512 m 0
 274 520 271 521 265 521 c 0
 265 521 244 521 234 515 c 0
 209 502 173 465 173 450 c 0
 173 441 179 427 188 419 c 0
 196 411 250 378 255 378 c 0
 256 378 301 403 313 420 c 0
 322 432 314 470 305 475 c 0
 298 479 296 485 296 494 c 0
 296 503 290 506 290 504 c 0
 290 503 286 507 281 512 c 0
299 251 m 0
 283 266 261 283 255 283 c 0
 254 283 163 244 148 138 c 2
 144 113 l 1
 150 99 l 2
 159 77 164 65 223 65 c 0
 259 65 285 72 303 87 c 0
 304 88 342 121 342 162 c 0
 342 212 324 228 299 251 c 0
EndSplineSet
EndChar

StartChar: nine
Encoding: 57 57 139
AltUni2: 01d7d7.ffffffff.0
Width: 514
VWidth: 811
Flags: HW
LayerCount: 2
Fore
SplineSet
294 283 m 0
 294 288 306 322 306 326 c 0
 306 327 242 293 211 290 c 0
 194 288 203 287 188 287 c 0
 140 287 55 302 55 408 c 0
 55 436 59 445 73 479 c 0
 100 545 169 592 181 595 c 0
 185 596 214 612 236 615 c 0
 269 619 270 619 294 614 c 0
 323 608 361 584 362 580 c 0
 363 577 364 577 365 577 c 0
 367 577 372 572 387 555 c 0
 392 549 400 540 404 536 c 0
 411 529 411 527 412 515 c 2
 413 502 l 1
 425 496 l 2
 431 493 436 490 437 489 c 0
 438 488 440 477 440 469 c 0
 440 454 430 444 430 438 c 0
 430 434 425 429 424 421 c 0
 420 401 393 347 387 317 c 0
 386 314 321 90 315 62 c 0
 306 18 298 2 298 2 c 0
 298 2 292 -23 275 -23 c 0
 271 -23 265 -21 250 -16 c 2
 225 -8 l 1
 222 -2 219 6 216 12 c 1
 224 37 l 2
 234 74 239 77 241 99 c 0
 242 115 283 249 285 253 c 0
 288 258 294 278 294 283 c 0
346 463 m 0
 346 473 316 538 258 538 c 0
 229 538 141 487 138 409 c 0
 138 404 137 401 137 398 c 0
 137 368 164 368 174 368 c 0
 254 368 346 446 346 463 c 0
EndSplineSet
EndChar

StartChar: zero
Encoding: 48 48 140
AltUni2: 01d7ce.ffffffff.0
Width: 514
VWidth: 774
Flags: HW
LayerCount: 2
Fore
SplineSet
158 579 m 0
 167 579 174 597 215 597 c 0
 239 597 234 592 243 592 c 0
 249 592 272 581 272 578 c 0
 272 578 276 578 282 572 c 0
 294 559 342 555 351 545 c 0
 358 537 377 534 401 502 c 0
 446 444 458 332 458 312 c 0
 458 284 459 279 459 279 c 0
 459 231 454 219 445 191 c 0
 434 157 427 143 427 142 c 0
 427 141 384 63 338 40 c 0
 314 27 314 27 313 27 c 0
 308 27 287 15 281 15 c 0
 265 15 282 9 230 9 c 0
 210 9 183 9 136 38 c 0
 122 47 89 80 85 89 c 0
 82 96 62 129 62 134 c 0
 62 141 35 180 35 252 c 0
 35 340 50 361 50 378 c 0
 50 392 77 467 89 488 c 0
 114 530 114 531 122 539 c 0
 127 545 131 551 131 552 c 0
 131 555 156 579 158 579 c 0
314 472 m 0
 258 503 224 472 204 506 c 0
 200 512 177 482 177 482 c 0
 162 460 142 405 138 397 c 0
 137 396 117 335 117 273 c 0
 117 246 117 246 126 186 c 0
 127 173 161 107 200 95 c 0
 211 92 222 89 233 89 c 0
 279 89 340 125 368 213 c 2
 375 236 l 1
 375 277 l 2
 375 335 368 382 350 426 c 0
 339 454 333 461 314 472 c 0
EndSplineSet
EndChar

StartChar: p.mono
Encoding: 1114137 -1 141
Width: 514
VWidth: -6
Flags: HW
LayerCount: 2
Fore
SplineSet
139 134 m 0
 140 133 212 90 268 90 c 0
 292 90 322 102 337 157 c 0
 339 163 341 172 343 176 c 0
 343 177 357 221 357 269 c 0
 357 288 357 296 352 307 c 0
 346 321 319 350 288 350 c 0
 287 350 205 348 177 300 c 0
 176 295 169 289 168 288 c 0
 147 273 151 260 144 251 c 1
 144 248 139 135 139 134 c 0
50 -82 m 0
 50 -49 55 -69 55 -36 c 0
 55 -34 60 106 64 152 c 0
 64 153 68 255 68 284 c 0
 68 295 67 314 67 314 c 0
 67 323 69 318 70 336 c 0
 71 353 70 369 114 369 c 0
 119 369 124 369 131 358 c 1
 137 366 139 364 141 368 c 0
 147 381 195 407 221 414 c 0
 222 414 262 425 275 425 c 0
 277 425 276 426 282 426 c 0
 298 426 312 426 338 416 c 0
 369 404 379 393 393 378 c 0
 394 378 l 0
 403 376 425 330 426 326 c 0
 426 325 434 299 434 268 c 0
 434 242 433 219 411 143 c 0
 407 128 394 85 382 77 c 0
 381 76 380 74 379 72 c 0
 372 58 359 47 346 37 c 0
 341 33 312 20 306 20 c 1
 306 20 l 2
 301 20 281 15 250 15 c 0
 223 15 208 21 135 53 c 1
 133 39 131 1 131 -58 c 0
 131 -141 137 -165 137 -166 c 0
 137 -166 136 -191 95 -191 c 0
 93 -191 90 -191 88 -191 c 0
 63 -191 61 -173 61 -173 c 0
 57 -138 50 -112 50 -82 c 0
EndSplineSet
EndChar

StartChar: u.mono
Encoding: 1114139 -1 142
Width: 514
VWidth: 121
Flags: HW
LayerCount: 2
Fore
SplineSet
70 165 m 0
 70 278 105 402 143 402 c 0
 149 402 153 400 163 396 c 0
 175 391 179 389 179 376 c 0
 179 353 146 253 146 192 c 0
 146 158 146 135 151 115 c 0
 161 78 172 78 195 78 c 0
 217 78 282 77 327 144 c 0
 336 158 341 168 348 189 c 1
 348 223 l 2
 348 320 324 334 324 371 c 0
 324 398 370 402 371 402 c 0
 379 402 395 393 395 385 c 0
 395 385 404 367 407 346 c 0
 407 345 425 292 425 227 c 0
 425 156 402 121 381 89 c 0
 376 82 359 59 311 30 c 0
 310 29 261 2 198 2 c 0
 71 2 70 127 70 165 c 0
EndSplineSet
EndChar

StartChar: v.mono
Encoding: 1114140 -1 143
Width: 514
VWidth: 118
Flags: HW
LayerCount: 2
Fore
SplineSet
391 398 m 0
 401 398 405 394 430 372 c 1
 429 348 429 349 418 335 c 0
 400 313 385 286 359 232 c 0
 298 108 264 26 263 24 c 0
 257 12 247 -1 229 -1 c 0
 196 -1 192 7 178 42 c 0
 177 43 151 99 122 180 c 0
 122 180 106 218 105 223 c 0
 90 277 65 337 65 363 c 0
 65 365 65 381 77 388 c 0
 84 392 107 396 112 396 c 0
 122 396 129 390 131 380 c 0
 133 372 135 377 139 360 c 0
 145 337 157 304 174 247 c 0
 183 217 223 114 224 113 c 1
 341 371 363 398 391 398 c 0
EndSplineSet
EndChar

StartChar: D.mono
Encoding: 1114155 -1 144
Width: 514
VWidth: 168
Flags: HW
LayerCount: 2
Fore
SplineSet
160 615 m 0
 172 615 160 621 187 621 c 0
 279 621 305 599 312 599 c 0
 317 599 352 573 359 570 c 0
 365 568 397 536 397 533 c 0
 397 531 397 531 398 531 c 0
 403 529 421 492 430 479 c 0
 450 448 459 388 459 372 c 0
 459 310 453 278 442 245 c 0
 438 235 435 223 434 219 c 0
 428 192 387 128 387 127 c 0
 387 119 340 69 300 42 c 0
 282 30 205 -8 198 -8 c 0
 189 -8 193 -16 162 -20 c 0
 148 -22 160 -25 136 -25 c 0
 89 -25 85 -21 74 -9 c 0
 61 5 57 9 57 24 c 0
 57 33 60 41 63 43 c 0
 64 44 63 44 60 44 c 0
 56 44 35 46 35 83 c 0
 35 149 48 208 48 367 c 0
 48 437 45 498 39 513 c 0
 37 518 37 522 37 526 c 0
 37 532 49 578 62 578 c 0
 67 578 135 615 160 615 c 0
129 52 m 0
 150 52 192 72 196 72 c 0
 197 72 250 95 281 124 c 0
 289 131 295 137 296 137 c 0
 297 137 303 145 311 155 c 0
 381 236 383 353 383 355 c 0
 383 435 328 498 325 500 c 0
 323 501 316 506 310 511 c 0
 266 549 206 550 205 550 c 0
 205 550 l 0
 204 550 201 549 197 549 c 0
 188 548 116 535 115 525 c 0
 115 523 116 519 117 518 c 0
 121 514 124 448 124 383 c 0
 124 239 114 110 114 107 c 0
 114 100 115 105 115 95 c 0
 115 81 112 73 112 69 c 0
 112 63 118 52 129 52 c 0
EndSplineSet
EndChar

